<svg xmlns="http://www.w3.org/2000/svg" width="41.663" height="20.005" viewBox="0 0 41.663 20.005">
  <g id="Group_18" data-name="Group 18" transform="translate(-63.168 -502.932)">
    <g id="brand" transform="translate(79.408 503.932)">
      <g id="Group_16" data-name="Group 16" transform="translate(0 0)">
        <path id="Path_55" data-name="Path 55" d="M184.1,164.542a.736.736,0,0,1,.815-.676h3.877c2.445,0,4.354,1.173,4.354,4.374v.159c0,3.181-1.968,4.393-4.473,4.393H186.2v4.91c0,.457-.517.7-1.054.7-.517,0-1.054-.239-1.054-.7v-13.16Zm2.107,1.193v5.387h2.465c1.471,0,2.366-.835,2.366-2.584V168.3c0-1.749-.895-2.564-2.366-2.564Z" transform="translate(-184.097 -163.866)" fill="#353535"/>
        <path id="Path_56" data-name="Path 56" d="M306.819,232.081v4.99c0,.378-.437.7-1.014.7-.537,0-.954-.318-.954-.7v-.7a3.9,3.9,0,0,1-3,1.551A2.445,2.445,0,0,1,299.2,235.3c0-2.246,1.889-2.843,4.652-2.843h.875V232.1a1.937,1.937,0,0,0-1.968-2.147c-1.451,0-1.809.6-2.207.6-.5,0-.755-.576-.755-1.054,0-.716,1.65-1.272,3-1.272C305.726,228.224,306.819,230.093,306.819,232.081Zm-2.087,1.531h-.5c-1.511,0-2.922.159-2.922,1.431a1.181,1.181,0,0,0,1.292,1.292,2.311,2.311,0,0,0,2.127-1.988v-.736Z" transform="translate(-290.28 -223.234)" fill="#353535"/>
        <path id="Path_57" data-name="Path 57" d="M400.542,229.24a.42.42,0,0,1-.079-.278c0-.537.815-.994,1.372-.994a.641.641,0,0,1,.636.378l2.5,6.461,2.147-6.461a.641.641,0,0,1,.6-.378c.5,0,1.392.437,1.392,1.034a.467.467,0,0,1-.04.238l-2.942,7.773c-.895,2.346-1.869,4.99-4.692,4.99-.537,0-.974-.139-.974-.895,0-.477.159-.895.576-.895,1.014,0,2.564-1.014,2.843-3.26Z" transform="translate(-383.688 -222.998)" fill="#353535"/>
      </g>
    </g>
    <g id="company" transform="translate(63.168 502.932)">
      <path id="Path_67" data-name="Path 67" d="M50.374,130.276c-2.382-.014-4.352-4.876-4.352-7.353,0-4.045,3.035-4.931,4.2-4.931a4.838,4.838,0,0,1,1.586.39,3.546,3.546,0,0,0,.906.26,2.819,2.819,0,0,0,.65-.211,5.208,5.208,0,0,1,1.958-.473h0a4.014,4.014,0,0,1,3.359,1.7l.245.368-.353.266a2.967,2.967,0,0,0-1.423,2.447,2.761,2.761,0,0,0,1.541,2.553c.221.133.449.27.449.569,0,.2-1.561,4.394-3.827,4.394a3.078,3.078,0,0,1-1.292-.314,2.62,2.62,0,0,0-1.15-.277,2.959,2.959,0,0,0-.911.246,4.461,4.461,0,0,1-1.58.369Z" transform="translate(-46.022 -114.271)" fill="#353535"/>
      <path id="Path_68" data-name="Path 68" d="M258.161,0a3.153,3.153,0,0,1-2.983,3.512A3.391,3.391,0,0,1,258.161,0Z" transform="translate(-248.617)" fill="#353535"/>
    </g>
  </g>
</svg>
