<svg id="download" xmlns="http://www.w3.org/2000/svg" xmlns:xlink="http://www.w3.org/1999/xlink" width="24" height="24" viewBox="0 0 24 24">
  <defs>
    <clipPath id="clip-path">
      <path id="Combined_Shape" data-name="Combined Shape" d="M3,22a3,3,0,0,1-3-3V16a1,1,0,0,1,2,0v3a1,1,0,0,0,1,1H17a1,1,0,0,0,1-1V16a1,1,0,1,1,2,0v3a3,3,0,0,1-3,3Zm6.288-6.3-4-4a1,1,0,0,1,1.414-1.414L9,12.586V1a1,1,0,0,1,2,0V12.586l2.293-2.293a1,1,0,0,1,1.414,1.414l-4,4a1,1,0,0,1-1.423,0Z" transform="translate(2 1)"/>
    </clipPath>
  </defs>
  <g id="Group_5" data-name="Group 5">
    <path id="Combined_Shape-2" data-name="Combined Shape" d="M3,22a3,3,0,0,1-3-3V16a1,1,0,0,1,2,0v3a1,1,0,0,0,1,1H17a1,1,0,0,0,1-1V16a1,1,0,1,1,2,0v3a3,3,0,0,1-3,3Zm6.288-6.3-4-4a1,1,0,0,1,1.414-1.414L9,12.586V1a1,1,0,0,1,2,0V12.586l2.293-2.293a1,1,0,0,1,1.414,1.414l-4,4a1,1,0,0,1-1.423,0Z" transform="translate(2 1)"/>
    <g id="Mask_Group_5" data-name="Mask Group 5" clip-path="url(#clip-path)">
      <g id="_Color" data-name="🎨Color">
        <rect id="Rectangle" width="24" height="24"/>
      </g>
      <g id="_Color_Copy" data-name="🎨Color Copy">
        <rect id="Rectangle-2" data-name="Rectangle" width="24" height="24" fill="#909090"/>
      </g>
    </g>
  </g>
</svg>
