<svg xmlns="http://www.w3.org/2000/svg" width="431.589" height="415" viewBox="0 0 431.589 415">
  <g id="Group_16" data-name="Group 16" transform="translate(0 -0.5)">
    <path id="Line_4" data-name="Line 4" d="M1,0,.5,308.5" transform="translate(51.5 21)" fill="none" stroke="#979797" stroke-linecap="square" stroke-miterlimit="10" stroke-width="1"/>
    <path id="Line_4-2" data-name="Line 4" d="M74,0,.5,305.5" transform="translate(51.5 24)" fill="none" stroke="#ff5959" stroke-linecap="square" stroke-miterlimit="10" stroke-width="1"/>
    <path id="Line_4-3" data-name="Line 4" d="M159,0,.5,305.5" transform="translate(51.5 24)" fill="none" stroke="#000" stroke-linecap="square" stroke-miterlimit="10" stroke-width="1"/>
    <path id="Line_4-4" data-name="Line 4" d="M278,0,.5,305.5" transform="translate(51.5 24)" fill="none" stroke="#35d1ff" stroke-linecap="square" stroke-miterlimit="10" stroke-width="1"/>
    <path id="Line_4-5" data-name="Line 4" d="M376,0,.5,183.5" transform="translate(51.5 146)" fill="none" stroke="#4882c2" stroke-linecap="square" stroke-miterlimit="10" stroke-width="1"/>
    <path id="Line_4_Copy_4" data-name="Line 4 Copy 4" d="M1,0,.5,308.5" transform="translate(124.5 21.25)" fill="none" stroke="#979797" stroke-linecap="square" stroke-miterlimit="10" stroke-width="1"/>
    <path id="Line_4_Copy_5" data-name="Line 4 Copy 5" d="M.5,0,.25,308.5" transform="translate(197.5 21.25)" fill="none" stroke="#979797" stroke-linecap="square" stroke-miterlimit="10" stroke-width="1"/>
    <path id="Line_4_Copy_6" data-name="Line 4 Copy 6" d="M1,0,.5,308.5" transform="translate(269.5 21.25)" fill="none" stroke="#979797" stroke-linecap="square" stroke-miterlimit="10" stroke-width="1"/>
    <path id="Line_4_Copy_7" data-name="Line 4 Copy 7" d="M1,0,.5,308.5" transform="translate(342.5 21.25)" fill="none" stroke="#979797" stroke-linecap="square" stroke-miterlimit="10" stroke-width="1"/>
    <path id="Line_4_Copy_8" data-name="Line 4 Copy 8" d="M1,0,.5,308.5" transform="translate(415.5 21.25)" fill="none" stroke="#979797" stroke-linecap="square" stroke-miterlimit="10" stroke-width="1"/>
    <path id="Line_4-6" data-name="Line 4" d="M.5.412V379.588" transform="translate(51.5 330.5) rotate(-90)" fill="none" stroke="#979797" stroke-linecap="square" stroke-miterlimit="10" stroke-width="1"/>
    <path id="Line_4_Copy_2" data-name="Line 4 Copy 2" d="M.5.411V378.589" transform="translate(52.5 49) rotate(-90)" fill="none" stroke="#979797" stroke-linecap="square" stroke-miterlimit="10" stroke-width="1"/>
    <path id="Line_4_Copy" data-name="Line 4 Copy" d="M.5.411V378.589" transform="translate(51.5 189) rotate(-90)" fill="none" stroke="#979797" stroke-linecap="square" stroke-miterlimit="10" stroke-width="1" stroke-dasharray="3"/>
    <path id="Line_4_Copy_3" data-name="Line 4 Copy 3" d="M.5.411V378.589" transform="translate(52.5 260) rotate(-90)" fill="none" stroke="#979797" stroke-linecap="square" stroke-miterlimit="10" stroke-width="1"/>
    <text id="_1000" data-name="1000" transform="translate(0 57.5)" fill="#979797" font-size="18" font-family="Akkurat-Bold, Akkurat" font-weight="700"><tspan x="0" y="0">1000</tspan></text>
    <text id="ERLENRTE_WÖRTER" data-name="ERLENRTE WÖRTER" transform="translate(6 10.5)" fill="#979797" font-size="10" font-family="Akkurat-Bold, Akkurat" font-weight="700"><tspan x="0" y="0">ERLENRTE WÖRTER</tspan></text>
    <text id="LERNZEIT_WOCHEN" data-name="LERNZEIT WOCHEN" transform="translate(338 381.5)" fill="#979797" font-size="10" font-family="Akkurat-Bold, Akkurat" font-weight="700"><tspan x="0" y="0">LERNZEIT WOCHEN</tspan></text>
    <text id="_1x_10_Min._Tg." data-name="1x 10 Min./Tg." transform="translate(50 388.5)" fill="#ff6060" font-size="10" font-family="Akkurat-Bold, Akkurat" font-weight="700" letter-spacing="-0.03em"><tspan x="0" y="0">1x 10 Min./Tg.</tspan></text>
    <text id="_3x_10_Min._Tg." data-name="3x 10 Min./Tg." transform="translate(50 409.5)" font-size="10" font-family="Akkurat-Bold, Akkurat" font-weight="700" letter-spacing="-0.03em"><tspan x="0" y="0">3x 10 Min./Tg.</tspan></text>
    <text id="_6x_10_Min._Tg." data-name="6x 10 Min./Tg." transform="translate(131 388.5)" fill="#66dcff" font-size="10" font-family="Akkurat-Bold, Akkurat" font-weight="700" letter-spacing="-0.03em"><tspan x="0" y="0">6x 10 Min./Tg.</tspan></text>
    <text id="_9x_10_Min._Tg." data-name="9x 10 Min./Tg." transform="translate(131 412.5)" fill="#4882c2" font-size="10" font-family="Akkurat-Bold, Akkurat" font-weight="700" letter-spacing="-0.03em"><tspan x="0" y="0">9x 10 Min./Tg.</tspan></text>
    <text id="_600" data-name="600" transform="translate(11 198.5)" fill="#979797" font-size="18" font-family="Akkurat-Bold, Akkurat" font-weight="700"><tspan x="0" y="0">600</tspan></text>
    <text id="_300" data-name="300" transform="translate(11 269.5)" fill="#979797" font-size="18" font-family="Akkurat-Bold, Akkurat" font-weight="700"><tspan x="0" y="0">300</tspan></text>
    <text id="A1" transform="translate(369 309.5)" fill="#eaeaea" font-size="24" font-family="Akkurat-Bold, Akkurat" font-weight="700"><tspan x="0" y="0">A1</tspan></text>
    <text id="A2" transform="translate(369 238.5)" fill="#eaeaea" font-size="24" font-family="Akkurat-Bold, Akkurat" font-weight="700"><tspan x="0" y="0">A2</tspan></text>
    <text id="B1" transform="translate(369 162.5)" fill="#eaeaea" font-size="24" font-family="Akkurat-Bold, Akkurat" font-weight="700"><tspan x="0" y="0">B1</tspan></text>
    <text id="B2" transform="translate(369 100.5)" fill="#eaeaea" font-size="24" font-family="Akkurat-Bold, Akkurat" font-weight="700"><tspan x="0" y="0">B2</tspan></text>
    <text id="_0" data-name="0" transform="translate(46 359.5)" fill="#979797" font-size="18" font-family="Akkurat-Bold, Akkurat" font-weight="700"><tspan x="0" y="0">0</tspan></text>
    <text id="_5" data-name="5" transform="translate(120 359.5)" fill="#979797" font-size="18" font-family="Akkurat-Bold, Akkurat" font-weight="700"><tspan x="0" y="0">5</tspan></text>
    <text id="_10" data-name="10" transform="translate(187 359.5)" fill="#979797" font-size="18" font-family="Akkurat-Bold, Akkurat" font-weight="700"><tspan x="0" y="0">10</tspan></text>
    <text id="_15" data-name="15" transform="translate(260 359.5)" fill="#979797" font-size="18" font-family="Akkurat-Bold, Akkurat" font-weight="700"><tspan x="0" y="0">15</tspan></text>
    <text id="_20" data-name="20" transform="translate(333 359.5)" fill="#979797" font-size="18" font-family="Akkurat-Bold, Akkurat" font-weight="700"><tspan x="0" y="0">20</tspan></text>
    <text id="_25" data-name="25" transform="translate(406 359.5)" fill="#979797" font-size="18" font-family="Akkurat-Bold, Akkurat" font-weight="700"><tspan x="0" y="0">25</tspan></text>
    <circle id="Oval" cx="5" cy="5" r="5" transform="translate(64 254.5)" fill="#ff6060"/>
    <circle id="Oval_Copy" data-name="Oval Copy" cx="5" cy="5" r="5" transform="translate(81 183.5)" fill="#ff6060"/>
    <circle id="Oval_Copy_2" data-name="Oval Copy 2" cx="5" cy="5" r="5" transform="translate(115 43.5)" fill="#ff6060"/>
    <circle id="Oval_Copy_3" data-name="Oval Copy 3" cx="5" cy="5" r="5" transform="translate(193 43.5)"/>
    <circle id="Oval_Copy_4" data-name="Oval Copy 4" cx="5" cy="5" r="5" transform="translate(120 183.5)"/>
    <circle id="Oval_Copy_5" data-name="Oval Copy 5" cx="5" cy="5" r="5" transform="translate(84 254.5)"/>
    <circle id="Oval_Copy_6" data-name="Oval Copy 6" cx="5" cy="5" r="5" transform="translate(110 254.5)" fill="#66dcff"/>
    <circle id="Oval_Copy_7" data-name="Oval Copy 7" cx="5" cy="5" r="5" transform="translate(191 254.5)" fill="#4882c2"/>
    <circle id="Oval_Copy_8" data-name="Oval Copy 8" cx="5" cy="5" r="5" transform="translate(338 183.5)" fill="#4882c2"/>
    <circle id="Oval_Copy_9" data-name="Oval Copy 9" cx="5" cy="5" r="5" transform="translate(176 183.5)" fill="#66dcff"/>
    <circle id="Oval_Copy_10" data-name="Oval Copy 10" cx="5" cy="5" r="5" transform="translate(302 43.5)" fill="#66dcff"/>
    <circle id="Oval_Copy_11" data-name="Oval Copy 11" cx="5" cy="5" r="5" transform="translate(412 146.5)" fill="#4882c2"/>
    <g id="Group_15" data-name="Group 15" transform="translate(202 180.5)">
      <rect id="Rectangle" width="125" height="13" fill="#fff"/>
      <text id="GRUNDWORTSCHATZ" transform="translate(2 15)" fill="#979797" font-size="12" font-family="Akkurat-Bold, Akkurat" font-weight="700"><tspan x="0" y="0">GRUNDWORTSCHATZ </tspan></text>
    </g>
  </g>
</svg>
