<svg id="Icon_Top_Listen" data-name="Icon Top – Listen" xmlns="http://www.w3.org/2000/svg" xmlns:xlink="http://www.w3.org/1999/xlink" width="59" height="59" viewBox="0 0 59 59">
  <defs>
    <clipPath id="clip-path">
      <path id="Combined_Shape" data-name="Combined Shape" d="M21.25,0H20A3.754,3.754,0,0,0,16.25,3.75V7.5A3.755,3.755,0,0,0,20,11.25h2.5V12.5a10,10,0,0,1-20,0V11.25H5A3.755,3.755,0,0,0,8.75,7.5V3.75A3.754,3.754,0,0,0,5,0H3.75A3.754,3.754,0,0,0,0,3.75V12.5a12.5,12.5,0,0,0,25,0V3.75A3.754,3.754,0,0,0,21.25,0ZM20,8.75A1.252,1.252,0,0,1,18.75,7.5V3.75A1.251,1.251,0,0,1,20,2.5h1.25A1.251,1.251,0,0,1,22.5,3.75v5Zm-17.5,0v-5A1.251,1.251,0,0,1,3.75,2.5H5A1.252,1.252,0,0,1,6.251,3.75V7.5A1.252,1.252,0,0,1,5,8.75Z" transform="translate(25 25) rotate(180)"/>
    </clipPath>
  </defs>
  <circle id="Oval" cx="29.5" cy="29.5" r="29.5" fill="#3d76ce"/>
  <g id="headphones" transform="translate(15 13)">
    <g id="Group_12" data-name="Group 12" transform="translate(2.5 2.5)">
      <path id="Combined_Shape-2" data-name="Combined Shape" d="M21.25,0H20A3.754,3.754,0,0,0,16.25,3.75V7.5A3.755,3.755,0,0,0,20,11.25h2.5V12.5a10,10,0,0,1-20,0V11.25H5A3.755,3.755,0,0,0,8.75,7.5V3.75A3.754,3.754,0,0,0,5,0H3.75A3.754,3.754,0,0,0,0,3.75V12.5a12.5,12.5,0,0,0,25,0V3.75A3.754,3.754,0,0,0,21.25,0ZM20,8.75A1.252,1.252,0,0,1,18.75,7.5V3.75A1.251,1.251,0,0,1,20,2.5h1.25A1.251,1.251,0,0,1,22.5,3.75v5Zm-17.5,0v-5A1.251,1.251,0,0,1,3.75,2.5H5A1.252,1.252,0,0,1,6.251,3.75V7.5A1.252,1.252,0,0,1,5,8.75Z" transform="translate(25 25) rotate(180)"/>
      <g id="Mask_Group_12" data-name="Mask Group 12" clip-path="url(#clip-path)">
        <g id="COLOR_black" data-name="COLOR/ black" transform="translate(-2.5 -2.5)">
          <rect id="Rectangle" width="30" height="30" fill="#fff"/>
        </g>
      </g>
    </g>
  </g>
</svg>
