<svg xmlns="http://www.w3.org/2000/svg" xmlns:xlink="http://www.w3.org/1999/xlink" width="119.852" height="32.815" viewBox="0 0 119.852 32.815">
  <defs>
    <clipPath id="clip-path">
      <path id="Clip_4" data-name="Clip 4" d="M0,32.815H119.852V0H0Z" transform="translate(0 0)" fill="none"/>
    </clipPath>
  </defs>
  <g id="Group_11" data-name="Group 11" transform="translate(0 0)">
    <path id="Fill_1" data-name="Fill 1" d="M9.29,25.348a9.3,9.3,0,0,1-6.685-2.524A9.169,9.169,0,0,1,0,16.092V0H3.814V10.343A6.907,6.907,0,0,1,9.96,7.117a8.582,8.582,0,0,1,8.76,8.975C18.72,21.542,14.842,25.348,9.29,25.348Zm.035-14.725a5.32,5.32,0,0,0-5.511,5.61,5.32,5.32,0,0,0,5.511,5.61,5.336,5.336,0,0,0,5.545-5.61A5.336,5.336,0,0,0,9.325,10.623Z" transform="translate(0 0.07)" fill="#4882c2"/>
    <path id="Clip_4-2" data-name="Clip 4" d="M0,32.815H119.852V0H0Z" transform="translate(0 0)" fill="none"/>
    <g id="Group_11-2" data-name="Group 11" clip-path="url(#clip-path)">
      <path id="Fill_3" data-name="Fill 3" d="M4.451,24.962H.635V7.643H4.451V24.961ZM2.579,5.189A2.529,2.529,0,0,1,0,2.595,2.53,2.53,0,0,1,2.579,0,2.53,2.53,0,0,1,5.157,2.595,2.529,2.529,0,0,1,2.579,5.189Z" transform="translate(20.778 0)" fill="#4882c2"/>
      <path id="Fill_5" data-name="Fill 5" d="M0,7.643C0,2.489,3.073,0,7.594,0s7.558,2.489,7.558,7.713v.14H11.374v-.21c0-2.98-1.519-4.137-3.779-4.137s-3.78,1.157-3.78,4.137V17.775H0Z" transform="translate(28.665 7.187)" fill="#4882c2"/>
      <path id="Fill_6" data-name="Fill 6" d="M0,24.892H3.815V0H0Z" transform="translate(45.758 0.07)" fill="#4882c2"/>
      <path id="Fill_7" data-name="Fill 7" d="M4.451,24.962H.635V7.643H4.451V24.961ZM2.579,5.189A2.529,2.529,0,0,1,0,2.595,2.53,2.53,0,0,1,2.579,0,2.53,2.53,0,0,1,5.157,2.595,2.529,2.529,0,0,1,2.579,5.189Z" transform="translate(52.77 0)" fill="#4882c2"/>
      <path id="Fill_8" data-name="Fill 8" d="M0,8.765C0,2.98,3.462,0,8.618,0s8.619,2.945,8.619,8.765v9.01H13.422V8.765c0-3.506-1.907-5.259-4.8-5.259s-4.8,1.753-4.8,5.259v9.01H0Z" transform="translate(60.594 7.187)" fill="#4882c2"/>
      <path id="Fill_9" data-name="Fill 9" d="M9.466,25.628c-4.629,0-7.777-2.092-8.866-5.891H4.486c.694,1.673,2.462,2.595,4.981,2.595,3.66,0,5.44-1.892,5.44-5.784V14.8a6.872,6.872,0,0,1-6.181,3.26,8.879,8.879,0,0,1-5.992-2.209A8.77,8.77,0,0,1,0,9.115a9.009,9.009,0,0,1,2.631-6.53A9.567,9.567,0,0,1,9.4,0c5.578,0,9.325,3.72,9.325,9.256v7.152c0,3.123-.911,5.51-2.707,7.095A9.715,9.715,0,0,1,9.466,25.628ZM9.4,3.506A5.336,5.336,0,0,0,3.85,9.115a5.182,5.182,0,0,0,5.545,5.4c3.348,0,5.511-2.119,5.511-5.4A5.32,5.32,0,0,0,9.4,3.506Z" transform="translate(80.126 7.187)" fill="#4882c2"/>
      <path id="Fill_10" data-name="Fill 10" d="M9.4,18.23a9.567,9.567,0,0,1-6.764-2.586A9.009,9.009,0,0,1,0,9.115a9.009,9.009,0,0,1,2.631-6.53A9.567,9.567,0,0,1,9.4,0a9.567,9.567,0,0,1,6.764,2.586,9.01,9.01,0,0,1,2.631,6.53,9.01,9.01,0,0,1-2.631,6.53A9.567,9.567,0,0,1,9.4,18.23Zm0-14.725A5.336,5.336,0,0,0,3.85,9.115,5.336,5.336,0,0,0,9.4,14.725a5.32,5.32,0,0,0,5.511-5.61A5.32,5.32,0,0,0,9.4,3.506Z" transform="translate(101.062 7.187)" fill="#4882c2"/>
    </g>
  </g>
</svg>
