<svg xmlns="http://www.w3.org/2000/svg" width="56.168" height="14.354" viewBox="0 0 56.168 14.354">
  <g id="paypal" transform="translate(0 -187.6)">
    <path id="Path_58" data-name="Path 58" d="M351.925,221.2h-3.031a.592.592,0,0,0-.446.357L347.2,229.4a.236.236,0,0,0,.267.267h1.6a.236.236,0,0,0,.267-.267l.357-2.229a.408.408,0,0,1,.446-.357h.981a3.107,3.107,0,0,0,3.477-2.942,2.337,2.337,0,0,0-.357-1.961,3.6,3.6,0,0,0-2.318-.713m.357,2.942c-.178,1.07-.981,1.07-1.783,1.07h-.535l.357-2.051c0-.089.089-.178.267-.178h.178c.535,0,1.07,0,1.337.357.178.089.178.357.178.8" transform="translate(-308.507 -29.856)" fill="#139ad6"/>
    <g id="Group_17" data-name="Group 17" transform="translate(16.85 191.345)">
      <path id="Path_59" data-name="Path 59" d="M155.925,221.2h-3.031a.592.592,0,0,0-.446.357L151.2,229.4a.236.236,0,0,0,.267.267h1.426a.592.592,0,0,0,.446-.357l.357-2.14a.408.408,0,0,1,.446-.357h.981a3.107,3.107,0,0,0,3.477-2.942,2.337,2.337,0,0,0-.357-1.961,3.427,3.427,0,0,0-2.318-.713m.357,2.942c-.178,1.07-.981,1.07-1.783,1.07h-.446l.357-2.051c0-.089.089-.178.267-.178h.178c.535,0,1.07,0,1.337.357a.955.955,0,0,1,.089.8" transform="translate(-151.2 -221.2)" fill="#263b80"/>
      <path id="Path_60" data-name="Path 60" d="M220.82,245.378h-1.426c-.089,0-.267.089-.267.178l-.089.446-.089-.178a2.1,2.1,0,0,0-1.694-.624,3.426,3.426,0,0,0-3.3,2.942,2.657,2.657,0,0,0,.535,2.229,2.247,2.247,0,0,0,1.872.713,2.85,2.85,0,0,0,2.051-.8l-.089.446a.236.236,0,0,0,.268.268h1.337a.592.592,0,0,0,.446-.357l.8-4.993c-.089-.089-.268-.267-.357-.267m-2.051,2.853a1.724,1.724,0,0,1-1.694,1.426,1.426,1.426,0,0,1-.981-.357,1.9,1.9,0,0,1-.267-1.07,1.59,1.59,0,0,1,2.586-1.07,1.557,1.557,0,0,1,.357,1.07" transform="translate(-206.911 -242.525)" fill="#263b80"/>
    </g>
    <path id="Path_61" data-name="Path 61" d="M416.02,245.378h-1.426c-.089,0-.267.089-.267.178l-.089.446-.089-.178a2.1,2.1,0,0,0-1.694-.624,3.426,3.426,0,0,0-3.3,2.942,2.658,2.658,0,0,0,.535,2.229,2.247,2.247,0,0,0,1.872.713,2.85,2.85,0,0,0,2.051-.8l-.089.446a.236.236,0,0,0,.267.268h1.337a.592.592,0,0,0,.446-.357l.8-4.993c-.089-.089-.178-.267-.357-.267m-2.051,2.853a1.724,1.724,0,0,1-1.694,1.426,1.425,1.425,0,0,1-.981-.357,1.9,1.9,0,0,1-.267-1.07,1.59,1.59,0,0,1,2.585-1.07,1.023,1.023,0,0,1,.357,1.07" transform="translate(-363.507 -51.181)" fill="#139ad6"/>
    <path id="Path_62" data-name="Path 62" d="M290.865,246.8h-1.516a.463.463,0,0,0-.357.178l-1.961,3.031-.892-2.853a.412.412,0,0,0-.446-.267h-1.426c-.178,0-.268.178-.268.357l1.6,4.725-1.516,2.14c-.089.178,0,.446.178.446h1.426a.463.463,0,0,0,.357-.178l4.9-7.043c.267-.267.089-.535-.089-.535" transform="translate(-252.35 -52.603)" fill="#263b80"/>
    <path id="Path_63" data-name="Path 63" d="M476.448,221.9l-1.248,8.024a.236.236,0,0,0,.268.267h1.248a.592.592,0,0,0,.446-.357l1.248-7.846a.236.236,0,0,0-.267-.267h-1.427c-.089-.089-.178,0-.267.178" transform="translate(-422.242 -30.287)" fill="#139ad6"/>
    <path id="Path_64" data-name="Path 64" d="M10.253,188.67a4.4,4.4,0,0,0-3.388-1.07H2.407a.765.765,0,0,0-.624.535L0,199.814a.408.408,0,0,0,.357.446H3.12l.713-4.369v.178a.765.765,0,0,1,.624-.535H5.8c2.585,0,4.547-1.07,5.171-4.012v-.267h0a3.114,3.114,0,0,0-.713-2.586" transform="translate(0 0)" fill="#263b80"/>
    <path id="Path_65" data-name="Path 65" d="M33.624,220.4h0v.267c-.624,3.031-2.585,4.012-5.171,4.012H27.116a.765.765,0,0,0-.624.535l-.892,5.438a.327.327,0,0,0,.357.357h2.318a.5.5,0,0,0,.535-.446v-.089l.446-2.764v-.178a.5.5,0,0,1,.535-.446h.357c2.229,0,4.012-.892,4.458-3.566a3.278,3.278,0,0,0-.446-2.675.913.913,0,0,0-.535-.446" transform="translate(-22.747 -29.145)" fill="#139ad6"/>
    <path id="Path_66" data-name="Path 66" d="M40.819,215.867c-.089,0-.178-.089-.267-.089a.327.327,0,0,1-.267-.089,4.711,4.711,0,0,0-1.159-.089H35.648a.328.328,0,0,0-.267.089.49.49,0,0,0-.267.446l-.713,4.636v.178a.765.765,0,0,1,.624-.535h1.337c2.586,0,4.547-1.07,5.171-4.012a.328.328,0,0,1,.089-.268c-.178-.089-.267-.178-.446-.178-.267-.089-.267-.089-.357-.089" transform="translate(-30.566 -24.88)" fill="#232c65"/>
  </g>
</svg>
