<?xml version="1.0"?>
<svg xmlns="http://www.w3.org/2000/svg" xmlns:xlink="http://www.w3.org/1999/xlink" version="1.1" id="Capa_1" x="0px" y="0px" viewBox="0 0 295.914 295.914" style="enable-background:new 0 0 295.914 295.914;" xml:space="preserve" width="512px" height="512px"><g><g>
	<path d="M67.964,120.522H53.356c11.922-42,50.267-72.631,95.604-72.631c22.904,0,44.424,7.687,62.234,21.997   c9.912,7.966,18.172,17.564,24.362,28.634h35.811c-8.395-21.286-22.133-39.853-39.871-54.107   c-23.292-18.717-52.604-28.751-82.537-28.751c-63.354,0-116.41,44.858-129.009,104.858H0l33.491,55.506L67.964,120.522z" data-original="#000000" class="active-path" data-old_color="#000000" fill="#4882C2"/>
	<path d="M262.423,120.015l-34.473,55.508h14.607c-11.922,42-50.267,72.135-95.604,72.135c-22.904,0-44.424-7.202-62.234-21.513   c-10.011-8.043-18.324-17.622-24.537-28.622H24.394c8.389,21,22.189,39.517,40.023,53.848c23.292,18.717,52.603,28.88,82.537,28.88   c63.354,0,116.41-44.727,129.009-104.727h19.951L262.423,120.015z" data-original="#000000" class="active-path" data-old_color="#000000" fill="#4882C2"/>
</g></g> </svg>
