<svg xmlns="http://www.w3.org/2000/svg" xmlns:xlink="http://www.w3.org/1999/xlink" width="44.113" height="44.043" viewBox="0 0 44.113 44.043">
  <defs>
    <filter id="Path_69" x="0" y="0" width="44.113" height="44.043" filterUnits="userSpaceOnUse">
      <feOffset dy="5" input="SourceAlpha"/>
      <feGaussianBlur stdDeviation="4" result="blur"/>
      <feFlood flood-opacity="0.078"/>
      <feComposite operator="in" in2="blur"/>
      <feComposite in="SourceGraphic"/>
    </filter>
  </defs>
  <g id="icons" transform="translate(12 7)">
    <g id="samsung_pay" transform="translate(0 0)">
      <g id="Group_19" data-name="Group 19">
        <g transform="matrix(1, 0, 0, 1, -12, -7)" filter="url(#Path_69)">
          <path id="Path_69-2" data-name="Path 69" d="M.432,5.965A6.78,6.78,0,0,1,6.472.306,21.138,21.138,0,0,1,13.71.318a6.825,6.825,0,0,1,6.027,5.856,19.976,19.976,0,0,1-.008,7.745,7.038,7.038,0,0,1-6.089,5.818A21.14,21.14,0,0,1,6.4,19.725,6.933,6.933,0,0,1,.366,13.773,19.336,19.336,0,0,1,.432,5.965Z" transform="translate(12 7)"/>
        </g>
        <path id="Path_70" data-name="Path 70" d="M.432,5.965A6.78,6.78,0,0,1,6.472.306,21.138,21.138,0,0,1,13.71.318a6.825,6.825,0,0,1,6.027,5.856,19.976,19.976,0,0,1-.008,7.745,7.038,7.038,0,0,1-6.089,5.818A21.14,21.14,0,0,1,6.4,19.725,6.933,6.933,0,0,1,.366,13.773,19.336,19.336,0,0,1,.432,5.965Z" transform="translate(0 0)" fill="#3056d3"/>
      </g>
      <path id="Path_71" data-name="Path 71" d="M80.142,168.009a2.346,2.346,0,0,1,2.346,2.346c0,.1-.021,2.251-.021,2.251H81.6V170.42c0-.044,0-.087-.006-.13v0h0a1.432,1.432,0,0,0-2.858.132,1.342,1.342,0,0,0,1.435,1.319h.3l0,.856c-.109,0-.205,0-.319,0a2.272,2.272,0,0,1-2.346-2.236,2.346,2.346,0,0,1,2.346-2.346Zm-4.55.141a2.12,2.12,0,0,1,1.959,2.205,2.154,2.154,0,0,1-2.205,2.236c-.114,0-.352.006-.46,0l0-.856h.4a1.33,1.33,0,0,0,1.334-1.334,1.433,1.433,0,0,0-.8-1.291.848.848,0,0,0-.4-.1H73.868v4.859H73v-4.7a1.028,1.028,0,0,1,1.028-1.028h1.564Zm10.846.141h.891l-2.775,5.734h-.891l2.775-5.734Zm-1.853,2.243-.446.921-1.533-3.164H83.5Z" transform="translate(-69.721 -160.462)" fill="#fff" fill-rule="evenodd"/>
    </g>
  </g>
</svg>
