<svg id="settings" xmlns="http://www.w3.org/2000/svg" xmlns:xlink="http://www.w3.org/1999/xlink" width="24" height="24" viewBox="0 0 24 24">
  <defs>
    <clipPath id="clip-path">
      <path id="Combined_Shape" data-name="Combined Shape" d="M9.08,21a.7.7,0,0,0-.484-.685.652.652,0,0,0-.265-.056.64.64,0,0,0-.445.178l-.059.059a3,3,0,0,1-4.244,0A3.021,3.021,0,0,1,2.7,18.375a2.981,2.981,0,0,1,.879-2.122l.052-.052a.655.655,0,0,0,.126-.727.648.648,0,0,0-.591-.393H3a3,3,0,0,1,0-6A.7.7,0,0,0,3.686,8.6a.648.648,0,0,0-.122-.709L3.5,7.827A3,3,0,1,1,7.747,3.583l.052.052a.647.647,0,0,0,.716.13,1.051,1.051,0,0,1,.2-.064A.646.646,0,0,0,9,3.17V3a3,3,0,0,1,6,0v.086a.671.671,0,0,0,.668.655.637.637,0,0,0,.445-.178l.059-.059a2.982,2.982,0,0,1,2.123-.88,3.018,3.018,0,0,1,2.121.879,3,3,0,0,1,0,4.244l-.052.052a.645.645,0,0,0-.13.716,1,1,0,0,1,.064.2A.646.646,0,0,0,20.83,9H21a3,3,0,1,1,0,6h-.086a.663.663,0,0,0-.477,1.112l.059.059a2.982,2.982,0,0,1,.88,2.123,3,3,0,0,1-3,3,2.981,2.981,0,0,1-2.122-.879l-.052-.052a.645.645,0,0,0-.453-.184.678.678,0,0,0-.274.059.646.646,0,0,0-.393.59V21a3,3,0,1,1-6,0Zm.266-2.538A2.65,2.65,0,0,1,11.08,20.91V21a1,1,0,1,0,2,0v-.174a2.662,2.662,0,0,1,4.527-1.883l.061.06a1.008,1.008,0,0,0,.707.293,1,1,0,0,0,.707-1.71l-.068-.068A2.664,2.664,0,0,1,20.91,13H21a1,1,0,1,0,0-2h-.174A2.649,2.649,0,0,1,18.4,9.394a1,1,0,0,1-.072-.265,2.642,2.642,0,0,1,.615-2.737l.06-.06a1.008,1.008,0,0,0,.293-.707,1,1,0,0,0-1.71-.708l-.068.068a2.642,2.642,0,0,1-1.856.757,2.605,2.605,0,0,1-1.057-.223A2.652,2.652,0,0,1,13,3.09V3a1,1,0,1,0-2,0v.175A2.646,2.646,0,0,1,9.394,5.6a.954.954,0,0,1-.265.073,2.653,2.653,0,0,1-2.737-.615L6.332,5A1,1,0,0,0,5.625,4.7.992.992,0,0,0,4.917,5a1,1,0,0,0,0,1.415l.068.068a2.621,2.621,0,0,1,.553,2.865A2.65,2.65,0,0,1,3.09,11.08H3a1,1,0,1,0,0,2h.175a2.663,2.663,0,0,1,1.883,4.527L5,17.668a1,1,0,0,0-.293.707A1,1,0,0,0,5,19.084a1,1,0,0,0,1.415,0l.068-.068a2.686,2.686,0,0,1,1.862-.762A2.456,2.456,0,0,1,9.346,18.462ZM8,12a4,4,0,1,1,4,4A4,4,0,0,1,8,12Z"/>
    </clipPath>
  </defs>
  <g id="Group_8" data-name="Group 8">
    <path id="Combined_Shape-2" data-name="Combined Shape" d="M9.08,21a.7.7,0,0,0-.484-.685.652.652,0,0,0-.265-.056.64.64,0,0,0-.445.178l-.059.059a3,3,0,0,1-4.244,0A3.021,3.021,0,0,1,2.7,18.375a2.981,2.981,0,0,1,.879-2.122l.052-.052a.655.655,0,0,0,.126-.727.648.648,0,0,0-.591-.393H3a3,3,0,0,1,0-6A.7.7,0,0,0,3.686,8.6a.648.648,0,0,0-.122-.709L3.5,7.827A3,3,0,1,1,7.747,3.583l.052.052a.647.647,0,0,0,.716.13,1.051,1.051,0,0,1,.2-.064A.646.646,0,0,0,9,3.17V3a3,3,0,0,1,6,0v.086a.671.671,0,0,0,.668.655.637.637,0,0,0,.445-.178l.059-.059a2.982,2.982,0,0,1,2.123-.88,3.018,3.018,0,0,1,2.121.879,3,3,0,0,1,0,4.244l-.052.052a.645.645,0,0,0-.13.716,1,1,0,0,1,.064.2A.646.646,0,0,0,20.83,9H21a3,3,0,1,1,0,6h-.086a.663.663,0,0,0-.477,1.112l.059.059a2.982,2.982,0,0,1,.88,2.123,3,3,0,0,1-3,3,2.981,2.981,0,0,1-2.122-.879l-.052-.052a.645.645,0,0,0-.453-.184.678.678,0,0,0-.274.059.646.646,0,0,0-.393.59V21a3,3,0,1,1-6,0Zm.266-2.538A2.65,2.65,0,0,1,11.08,20.91V21a1,1,0,1,0,2,0v-.174a2.662,2.662,0,0,1,4.527-1.883l.061.06a1.008,1.008,0,0,0,.707.293,1,1,0,0,0,.707-1.71l-.068-.068A2.664,2.664,0,0,1,20.91,13H21a1,1,0,1,0,0-2h-.174A2.649,2.649,0,0,1,18.4,9.394a1,1,0,0,1-.072-.265,2.642,2.642,0,0,1,.615-2.737l.06-.06a1.008,1.008,0,0,0,.293-.707,1,1,0,0,0-1.71-.708l-.068.068a2.642,2.642,0,0,1-1.856.757,2.605,2.605,0,0,1-1.057-.223A2.652,2.652,0,0,1,13,3.09V3a1,1,0,1,0-2,0v.175A2.646,2.646,0,0,1,9.394,5.6a.954.954,0,0,1-.265.073,2.653,2.653,0,0,1-2.737-.615L6.332,5A1,1,0,0,0,5.625,4.7.992.992,0,0,0,4.917,5a1,1,0,0,0,0,1.415l.068.068a2.621,2.621,0,0,1,.553,2.865A2.65,2.65,0,0,1,3.09,11.08H3a1,1,0,1,0,0,2h.175a2.663,2.663,0,0,1,1.883,4.527L5,17.668a1,1,0,0,0-.293.707A1,1,0,0,0,5,19.084a1,1,0,0,0,1.415,0l.068-.068a2.686,2.686,0,0,1,1.862-.762A2.456,2.456,0,0,1,9.346,18.462ZM8,12a4,4,0,1,1,4,4A4,4,0,0,1,8,12Z"/>
    <g id="Mask_Group_8" data-name="Mask Group 8" clip-path="url(#clip-path)">
      <g id="COLOR_black" data-name="COLOR/ black">
        <rect id="Rectangle" width="24" height="24" fill="#909090"/>
      </g>
    </g>
  </g>
</svg>
