<svg xmlns="http://www.w3.org/2000/svg" width="64.555" height="10.036" viewBox="0 0 64.555 10.036">
  <g id="Group_15" data-name="Group 15" transform="translate(-55 -427.392)">
    <g id="mastercard_1_" data-name="mastercard(1)" transform="translate(86.021 427.392)">
      <path id="Path_12" data-name="Path 12" d="M211.627,105.814a5.014,5.014,0,1,1-10.027,0h0a5.014,5.014,0,1,1,10.027,0Z" transform="translate(-194.915 -100.8)" fill="#ffb600"/>
      <path id="Path_13" data-name="Path 13" d="M206.614,100.8a5.027,5.027,0,0,1,5.014,5.014h0a5.014,5.014,0,1,1-10.027,0" transform="translate(-194.915 -100.8)" fill="#f7981d"/>
      <path id="Path_14" data-name="Path 14" d="M352.8,100.8a5.027,5.027,0,0,1,5.014,5.014h0a5.01,5.01,0,0,1-5.014,5.014" transform="translate(-341.102 -100.8)" fill="#ff8500"/>
      <path id="Path_15" data-name="Path 15" d="M4.961,100.8a5.014,5.014,0,0,0,.053,10.027,5.072,5.072,0,0,0,3.369-1.3h0a4.768,4.768,0,0,0,.5-.531H7.852a6.121,6.121,0,0,1-.371-.5H9.258a3.4,3.4,0,0,0,.292-.531H7.189a3.162,3.162,0,0,1-.212-.531H9.735A5.268,5.268,0,0,0,10,105.84a6.847,6.847,0,0,0-.106-1.061H6.817a3.879,3.879,0,0,1,.133-.531H9.709a3.162,3.162,0,0,0-.212-.531H7.162a5.26,5.26,0,0,1,.292-.531H9.231a2.522,2.522,0,0,0-.4-.531H7.852a4.521,4.521,0,0,1,.5-.5,4.895,4.895,0,0,0-3.369-1.3C4.987,100.8,4.987,100.8,4.961,100.8Z" transform="translate(0 -100.8)" fill="#ff5050"/>
      <path id="Path_16" data-name="Path 16" d="M0,107.361a5.01,5.01,0,0,0,5.014,5.014,5.072,5.072,0,0,0,3.369-1.3h0a4.766,4.766,0,0,0,.5-.531H7.852a6.12,6.12,0,0,1-.371-.5H9.258a3.4,3.4,0,0,0,.292-.531H7.189a3.162,3.162,0,0,1-.212-.531H9.735A5.268,5.268,0,0,0,10,107.387a6.847,6.847,0,0,0-.106-1.061H6.817a3.878,3.878,0,0,1,.133-.531H9.709a3.162,3.162,0,0,0-.212-.531H7.162a5.26,5.26,0,0,1,.292-.531H9.231a2.523,2.523,0,0,0-.4-.531H7.852a4.521,4.521,0,0,1,.5-.5,4.895,4.895,0,0,0-3.369-1.3H4.961" transform="translate(0 -102.347)" fill="#e52836"/>
      <path id="Path_17" data-name="Path 17" d="M149.653,112.374a5.072,5.072,0,0,0,3.369-1.3h0a4.767,4.767,0,0,0,.5-.531h-1.035a6.122,6.122,0,0,1-.371-.5H153.9a3.4,3.4,0,0,0,.292-.531h-2.361a3.163,3.163,0,0,1-.212-.531h2.759a5.267,5.267,0,0,0,.265-1.592,6.847,6.847,0,0,0-.106-1.061h-3.077a3.877,3.877,0,0,1,.133-.531h2.759a3.162,3.162,0,0,0-.212-.531H151.8a5.258,5.258,0,0,1,.292-.531h1.777a2.523,2.523,0,0,0-.4-.531h-.982a4.519,4.519,0,0,1,.5-.5,4.9,4.9,0,0,0-3.369-1.3H149.6" transform="translate(-144.639 -102.347)" fill="#cb2026"/>
      <g id="Group_12" data-name="Group 12" transform="translate(0.477 3.714)">
        <path id="Path_18" data-name="Path 18" d="M182.369,222.334l.08-.451a1.148,1.148,0,0,1-.133.027c-.186,0-.212-.106-.186-.159l.159-.928h.292l.08-.5H182.4l.053-.318h-.531s-.318,1.751-.318,1.963a.4.4,0,0,0,.424.451A.814.814,0,0,0,182.369,222.334Z" transform="translate(-176.056 -219.761)" fill="#fff"/>
        <path id="Path_19" data-name="Path 19" d="M210.4,229.9a.844.844,0,0,0,.928.928,1.377,1.377,0,0,0,.557-.08l.106-.5a1.59,1.59,0,0,1-.557.133c-.584,0-.477-.424-.477-.424h1.088a3.441,3.441,0,0,0,.08-.477.719.719,0,0,0-.769-.769C210.8,228.649,210.4,229.233,210.4,229.9Zm.928-.769c.292,0,.239.345.239.371h-.584C210.984,229.471,211.037,229.127,211.328,229.127Z" transform="translate(-203.901 -228.172)" fill="#fff"/>
        <path id="Path_20" data-name="Path 20" d="M297.459,215.373l.106-.584a1.3,1.3,0,0,1-.451.133c-.371,0-.531-.292-.531-.61,0-.637.318-.982.69-.982a.886.886,0,0,1,.478.159l.08-.557a1.865,1.865,0,0,0-.61-.133c-.61,0-1.22.531-1.22,1.539,0,.663.318,1.114.955,1.114A2.38,2.38,0,0,0,297.459,215.373Z" transform="translate(-286.662 -212.8)" fill="#fff"/>
        <path id="Path_21" data-name="Path 21" d="M87.408,227.2a1.879,1.879,0,0,0-.637.106l-.08.451a1.568,1.568,0,0,1,.584-.106c.186,0,.345.027.345.186,0,.106-.027.133-.027.133h-.239c-.451,0-.955.186-.955.8,0,.478.318.584.5.584a.8.8,0,0,0,.557-.239l-.027.212h.477l.212-1.459A.629.629,0,0,0,87.408,227.2Zm.106,1.194c0,.08-.053.5-.371.5a.207.207,0,0,1-.212-.212c0-.133.08-.318.477-.318A.418.418,0,0,0,87.514,228.394Z" transform="translate(-84.013 -226.723)" fill="#fff"/>
        <path id="Path_22" data-name="Path 22" d="M135.81,228.575a.68.68,0,0,0,.8-.69c0-.663-.637-.531-.637-.8,0-.133.106-.186.292-.186.08,0,.371.027.371.027l.08-.477a2.015,2.015,0,0,0-.5-.053c-.4,0-.8.159-.8.69,0,.61.663.557.663.8,0,.159-.186.186-.318.186a1.735,1.735,0,0,1-.477-.08l-.08.477C135.227,228.522,135.359,228.575,135.81,228.575Z" transform="translate(-131.194 -225.949)" fill="#fff"/>
        <path id="Path_23" data-name="Path 23" d="M428.712,214.4l-.106.716a.736.736,0,0,0-.5-.265c-.478,0-.9.584-.9,1.273,0,.424.212.875.663.875a.708.708,0,0,0,.5-.212l-.027.186h.531l.4-2.547Zm-.239,1.406c0,.292-.133.663-.424.663-.186,0-.292-.159-.292-.424,0-.424.186-.69.424-.69C428.367,215.355,428.473,215.488,428.473,215.806Z" transform="translate(-413.512 -214.347)" fill="#fff"/>
        <path id="Path_24" data-name="Path 24" d="M14.9,216.947l.318-1.91.053,1.91h.371l.69-1.91-.292,1.91H16.6l.424-2.547h-.875l-.531,1.565-.027-1.565h-.769l-.424,2.547Z" transform="translate(-14.4 -214.347)" fill="#fff"/>
        <path id="Path_25" data-name="Path 25" d="M260.584,230.869c.159-.875.186-1.592.557-1.459a2.083,2.083,0,0,1,.186-.61h-.106c-.239,0-.424.318-.424.318l.053-.292h-.5L260,230.9h.584Z" transform="translate(-251.856 -228.269)" fill="#fff"/>
        <path id="Path_26" data-name="Path 26" d="M347.408,227.2a1.879,1.879,0,0,0-.637.106l-.08.451a1.568,1.568,0,0,1,.584-.106c.186,0,.345.027.345.186,0,.106-.026.133-.026.133h-.239c-.451,0-.955.186-.955.8,0,.478.318.584.5.584a.8.8,0,0,0,.557-.239l-.027.212h.477l.212-1.459A.619.619,0,0,0,347.408,227.2Zm.133,1.194c0,.08-.053.5-.371.5a.207.207,0,0,1-.212-.212c0-.133.08-.318.478-.318C347.514,228.394,347.514,228.394,347.541,228.394Z" transform="translate(-335.391 -226.723)" fill="#fff"/>
        <path id="Path_27" data-name="Path 27" d="M394.984,230.869c.159-.875.186-1.592.557-1.459a2.082,2.082,0,0,1,.186-.61h-.106c-.239,0-.424.318-.424.318l.053-.292h-.5L394.4,230.9h.584Z" transform="translate(-381.8 -228.269)" fill="#fff"/>
      </g>
      <g id="Group_13" data-name="Group 13" transform="translate(0.477 3.714)">
        <path id="Path_28" data-name="Path 28" d="M180,221.963a.4.4,0,0,0,.424.451,1.01,1.01,0,0,0,.4-.08l.08-.451a1.149,1.149,0,0,1-.133.027c-.186,0-.212-.106-.186-.159l.159-.928h.292l.08-.5h-.265L180.9,220" transform="translate(-174.509 -219.761)" fill="#dce5e5"/>
        <path id="Path_29" data-name="Path 29" d="M218.4,229.9c0,.743.239.928.663.928a1.377,1.377,0,0,0,.557-.08l.106-.5a1.59,1.59,0,0,1-.557.133c-.584,0-.477-.424-.477-.424h1.088a3.44,3.44,0,0,0,.08-.477.719.719,0,0,0-.769-.769C218.533,228.649,218.4,229.233,218.4,229.9Zm.663-.769c.292,0,.345.345.345.371h-.69C218.718,229.471,218.771,229.127,219.063,229.127Z" transform="translate(-211.636 -228.172)" fill="#dce5e5"/>
        <path id="Path_30" data-name="Path 30" d="M305.194,215.373l.106-.584a1.3,1.3,0,0,1-.451.133c-.371,0-.531-.292-.531-.61,0-.637.318-.982.69-.982a.886.886,0,0,1,.477.159l.08-.557a1.865,1.865,0,0,0-.61-.133c-.61,0-.955.531-.955,1.539,0,.663.053,1.114.69,1.114A2.381,2.381,0,0,0,305.194,215.373Z" transform="translate(-294.397 -212.8)" fill="#dce5e5"/>
        <path id="Path_31" data-name="Path 31" d="M86.692,229.331a1.568,1.568,0,0,1,.584-.106c.186,0,.345.027.345.186,0,.106-.027.133-.027.133h-.239c-.451,0-.955.186-.955.8,0,.478.318.584.5.584a.8.8,0,0,0,.557-.239l-.027.212h.477l.212-1.459c0-.61-.531-.637-.743-.637m.4,1.141a.869.869,0,0,1-.637.5.207.207,0,0,1-.212-.212c0-.133.08-.318.477-.318A2.165,2.165,0,0,0,87.779,229.941Z" transform="translate(-84.013 -228.269)" fill="#dce5e5"/>
        <path id="Path_32" data-name="Path 32" d="M136,228.522a2.245,2.245,0,0,0,.61.053.68.68,0,0,0,.8-.69c0-.663-.637-.531-.637-.8,0-.133.106-.186.292-.186.08,0,.371.027.371.027l.08-.477a2.015,2.015,0,0,0-.5-.053c-.4,0-.531.159-.531.69,0,.61.4.557.4.8,0,.159-.186.186-.318.186" transform="translate(-131.968 -225.949)" fill="#dce5e5"/>
        <path id="Path_33" data-name="Path 33" d="M436.285,215.89a.736.736,0,0,0-.5-.265c-.478,0-.637.584-.637,1.273,0,.424-.053.875.4.875a.708.708,0,0,0,.5-.212l-.027.186h.531l.4-2.547m-.69,1.379c0,.292-.239.663-.531.663-.186,0-.292-.159-.292-.424,0-.424.186-.69.424-.69A.405.405,0,0,1,436.258,216.579Z" transform="translate(-421.191 -215.12)" fill="#dce5e5"/>
        <path id="Path_34" data-name="Path 34" d="M14.9,216.947l.318-1.91.053,1.91h.371l.69-1.91-.292,1.91H16.6l.424-2.547h-.663l-.743,1.565-.027-1.565H15.3l-.9,2.547Z" transform="translate(-14.4 -214.347)" fill="#dce5e5"/>
        <path id="Path_35" data-name="Path 35" d="M260.8,230.869h.557c.159-.875.186-1.592.557-1.459a2.082,2.082,0,0,1,.186-.61h-.106c-.239,0-.424.318-.424.318l.053-.292" transform="translate(-252.63 -228.269)" fill="#dce5e5"/>
        <path id="Path_36" data-name="Path 36" d="M346.692,229.331a1.568,1.568,0,0,1,.584-.106c.186,0,.345.027.345.186,0,.106-.026.133-.026.133h-.239c-.451,0-.955.186-.955.8,0,.478.318.584.5.584a.8.8,0,0,0,.557-.239l-.027.212h.477l.212-1.459c0-.61-.531-.637-.743-.637m.4,1.141a.869.869,0,0,1-.637.5.207.207,0,0,1-.212-.212c0-.133.08-.318.478-.318A2.331,2.331,0,0,0,347.779,229.941Z" transform="translate(-335.391 -228.269)" fill="#dce5e5"/>
        <path id="Path_37" data-name="Path 37" d="M395.2,230.869h.557c.159-.875.186-1.592.557-1.459a2.082,2.082,0,0,1,.186-.61h-.106c-.239,0-.424.318-.424.318l.053-.292" transform="translate(-382.573 -228.269)" fill="#dce5e5"/>
      </g>
    </g>
    <g id="visa_1_" data-name="visa(1)" transform="translate(55 428.559)">
      <path id="Path_38" data-name="Path 38" d="M184.8,188.758l1.486-8.358h2.322l-1.439,8.358Z" transform="translate(-174.074 -180.121)" fill="#3c58bf"/>
      <path id="Path_39" data-name="Path 39" d="M184.8,188.758l1.9-8.358h1.9l-1.439,8.358Z" transform="translate(-174.074 -180.121)" fill="#293688"/>
      <path id="Path_40" data-name="Path 40" d="M255.1,175.971a5.889,5.889,0,0,0-2.136-.371c-2.322,0-3.993,1.161-3.993,2.832,0,1.254,1.161,1.9,2.089,2.322s1.207.7,1.207,1.068c0,.557-.743.836-1.393.836a5.047,5.047,0,0,1-2.229-.464l-.325-.139-.325,1.9a7.529,7.529,0,0,0,2.647.464c2.461,0,4.086-1.161,4.086-2.925,0-.975-.6-1.718-2-2.322-.836-.418-1.346-.65-1.346-1.068,0-.371.418-.743,1.346-.743a4.259,4.259,0,0,1,1.764.325l.232.093.371-1.811Z" transform="translate(-233.606 -175.6)" fill="#3c58bf"/>
      <path id="Path_41" data-name="Path 41" d="M255.1,175.971a5.889,5.889,0,0,0-2.136-.371c-2.322,0-3.575,1.161-3.575,2.832a2.427,2.427,0,0,0,1.672,2.322c.929.418,1.207.7,1.207,1.068,0,.557-.743.836-1.393.836a5.047,5.047,0,0,1-2.229-.464l-.325-.139-.325,1.9a7.529,7.529,0,0,0,2.647.464c2.461,0,4.086-1.161,4.086-2.925,0-.975-.6-1.718-2-2.322-.836-.418-1.346-.65-1.346-1.068,0-.371.418-.743,1.346-.743a4.259,4.259,0,0,1,1.764.325l.232.093.371-1.811Z" transform="translate(-233.606 -175.6)" fill="#293688"/>
      <path id="Path_42" data-name="Path 42" d="M363.09,180.4c-.557,0-.975.046-1.207.6l-3.482,7.754h2.507l.464-1.393h2.972l.279,1.393h2.229L364.9,180.4Zm-1.068,5.572c.139-.418.929-2.461.929-2.461s.186-.511.325-.836l.139.789s.464,2.089.557,2.554h-1.95Z" transform="translate(-337.599 -180.121)" fill="#3c58bf"/>
      <path id="Path_43" data-name="Path 43" d="M363.647,180.4c-.557,0-.975.046-1.207.6l-4.04,7.754h2.507l.464-1.393h2.972l.279,1.393h2.229L364.9,180.4Zm-1.625,5.572c.186-.464.929-2.461.929-2.461s.186-.511.325-.836l.139.789s.464,2.089.557,2.554h-1.95Z" transform="translate(-337.599 -180.121)" fill="#293688"/>
      <path id="Path_44" data-name="Path 44" d="M54.682,187,54.45,185.8a6.731,6.731,0,0,0-3.25-3.668l2.089,7.429H55.8l3.761-8.358H57.05Z" transform="translate(-48.228 -180.875)" fill="#3c58bf"/>
      <path id="Path_45" data-name="Path 45" d="M54.682,187,54.45,185.8a6.731,6.731,0,0,0-3.25-3.668l2.089,7.429H55.8l3.761-8.358H57.515Z" transform="translate(-48.228 -180.875)" fill="#293688"/>
      <path id="Path_46" data-name="Path 46" d="M0,180.4l.418.093a7.83,7.83,0,0,1,5.8,4.55L5.386,181.1c-.139-.557-.557-.7-1.068-.7Z" transform="translate(0 -180.121)" fill="#ffbc00"/>
      <path id="Path_47" data-name="Path 47" d="M0,180.4H0c2.972.7,5.432,2.507,6.222,4.6l-.789-3.3a1.133,1.133,0,0,0-1.114-.882Z" transform="translate(0 -180.121)" fill="#f7981d"/>
      <path id="Path_48" data-name="Path 48" d="M0,180.4H0c2.972.7,5.432,2.507,6.222,4.6l-.557-1.811a1.637,1.637,0,0,0-.975-1.347Z" transform="translate(0 -180.121)" fill="#ed7c00"/>
      <g id="Group_14" data-name="Group 14" transform="translate(3.018 1.207)">
        <path id="Path_49" data-name="Path 49" d="M57.757,201.043l-1.579-1.579-.743,1.764-.186-1.161A6.731,6.731,0,0,0,52,196.4l2.089,7.429H56.6Z" transform="translate(-52 -196.4)" fill="#051244"/>
        <path id="Path_50" data-name="Path 50" d="M187.168,291.243l-2-2.043-.371,2.043Z" transform="translate(-177.092 -283.814)" fill="#051244"/>
        <path id="Path_51" data-name="Path 51" d="M252.04,274.8h0c.186.186.279.325.232.511,0,.557-.743.836-1.393.836a5.046,5.046,0,0,1-2.229-.464l-.325-.139-.325,1.9a7.528,7.528,0,0,0,2.647.464,4.6,4.6,0,0,0,3.389-1.161Z" transform="translate(-236.624 -270.25)" fill="#051244"/>
        <path id="Path_52" data-name="Path 52" d="M364,225.683h2.182l.464-1.393h2.972l.279,1.393h2.229l-.789-3.39L368.55,219.6l.139.743s.464,2.089.557,2.554H367.3c.186-.464.929-2.461.929-2.461s.186-.511.325-.836" transform="translate(-345.892 -218.253)" fill="#051244"/>
      </g>
    </g>
    <g id="american-express_1_" data-name="american-express(1)" transform="translate(105.015 427.392)">
      <path id="Path_1" data-name="Path 1" d="M14.54,88.619a.859.859,0,0,1-.859.86H.859A.859.859,0,0,1,0,88.619V80.311a.859.859,0,0,1,.859-.86H13.68a.859.859,0,0,1,.859.86v8.308Z" transform="translate(0 -79.451)" fill="#306fc5"/>
      <path id="Path_2" data-name="Path 2" d="M.611,88.619V80.311a.86.86,0,0,1,.86-.86H.859a.859.859,0,0,0-.859.86v8.308a.859.859,0,0,0,.859.86h.611A.86.86,0,0,1,.611,88.619Z" transform="translate(0 -79.451)" fill="#202121" opacity="0.15"/>
      <g id="Group_11" data-name="Group 11" transform="translate(1.044 2.946)">
        <path id="Path_3" data-name="Path 3" d="M74.59,201.831h.434l-.217-.553Z" transform="translate(-73.515 -200.765)" fill="#fff"/>
        <path id="Path_4" data-name="Path 4" d="M155.946,286.107v.257h.731v.276h-.731v.3h.81l.375-.415-.355-.415Z" transform="translate(-152.561 -283.185)" fill="#fff"/>
        <path id="Path_5" data-name="Path 5" d="M348.79,201.278l-.237.553h.454Z" transform="translate(-339.698 -200.765)" fill="#fff"/>
        <path id="Path_6" data-name="Path 6" d="M212.781,282.367v-1.126l-.513.553Z" transform="translate(-207.284 -278.457)" fill="#fff"/>
        <path id="Path_7" data-name="Path 7" d="M242.8,286.285a.2.2,0,0,0-.217-.178h-.415v.355h.434C242.72,286.462,242.8,286.4,242.8,286.285Z" transform="translate(-236.334 -283.185)" fill="#fff"/>
        <path id="Path_8" data-name="Path 8" d="M294.174,287.1a.154.154,0,0,0,.059-.138.11.11,0,0,0-.059-.138.385.385,0,0,0-.158-.02h-.395v.316h.395A.384.384,0,0,0,294.174,287.1Z" transform="translate(-286.326 -283.863)" fill="#fff"/>
        <path id="Path_9" data-name="Path 9" d="M47.439,183.2v.237l-.118-.237h-.928v.237l-.119-.237H45.01a1.2,1.2,0,0,0-.553.118V183.2h-.889v.118a.57.57,0,0,0-.375-.118H40.015l-.217.494-.217-.494H38.573v.237l-.1-.237h-.869l-.395.928-.454,1.007-.008.02h1.028l.007-.02.119-.3h.257l.118.316h1.145v-.237l.1.237h.573l.1-.237v.237h2.745v-.513h.04c.039,0,.039,0,.039.059v.434h1.422v-.118a1.181,1.181,0,0,0,.533.118h.592l.118-.316h.276l.118.316h1.145v-.3l.178.3h.928V183.2h-.889Zm-6.694,1.659h-.316v-1.086l-.02.045h0l-.459,1.041h-.291l-.474-1.086v1.086h-.671l-.138-.3H37.7l-.138.3h-.347l.584-1.382H38.3l.553,1.323v-1.323h.523l.009.02h0l.249.542.179.406.006-.02.395-.948h.533v1.382Zm1.363-1.086h-.77v.257h.75v.276h-.75v.277h.77v.3H41v-1.4h1.106v.3Zm1.408.509h0a.225.225,0,0,1,.019.023.38.38,0,0,1,.07.231v.006s0,0,0,0v0c0,.011,0,.022,0,.034v.276h-.3V184.7a.47.47,0,0,0-.059-.276.18.18,0,0,0-.058-.04.394.394,0,0,0-.179-.019H42.66v.494h-.336v-1.382h.75a.757.757,0,0,1,.395.059.334.334,0,0,1,.157.307.392.392,0,0,1-.236.364A.264.264,0,0,1,43.516,184.28Zm.665.577h-.336v-1.382h.336Zm3.851,0H47.6l-.632-1.047v.869l0,0v.181h-.669l-.118-.3h-.691l-.118.316H44.99a.594.594,0,0,1-.652-.691.81.81,0,0,1,.178-.553.622.622,0,0,1,.494-.158h.316v.3H45.01a.364.364,0,0,0-.257.079.464.464,0,0,0-.1.316.43.43,0,0,0,.1.336.315.315,0,0,0,.237.079h.138l.454-1.086h.494l.553,1.323v-1.323h.494l.573.968v-.968h.336v1.362h0Z" transform="translate(-36.748 -183.198)" fill="#fff"/>
        <path id="Path_10" data-name="Path 10" d="M245.519,203.644a.106.106,0,0,0,.015-.021.213.213,0,0,0,.027-.149.113.113,0,0,0,0-.018s0,0,0,0h0a.111.111,0,0,0-.06-.067.387.387,0,0,0-.158-.02h-.395v.316h.395a.384.384,0,0,0,.158-.02.075.075,0,0,0,.016-.012h0Z" transform="translate(-239.033 -202.791)" fill="#fff"/>
        <path id="Path_11" data-name="Path 11" d="M143.39,265.875a.757.757,0,0,0-.1-.375v-.889h0v-.059h-.951a.562.562,0,0,0-.273.118v-.118h-.908a.627.627,0,0,0-.395.118v-.118h-1.619v.118a.764.764,0,0,0-.434-.118h-1.066v.118a.75.75,0,0,0-.454-.118h-1.185l-.277.3-.257-.3H133.7v1.995h1.738l.286-.286.247.286h1.106v-.454h.1a1.2,1.2,0,0,0,.454-.059v.533h.889v-.513h.039c.059,0,.059,0,.059.059v.454H141.3a.774.774,0,0,0,.454-.119v.119h.849a.887.887,0,0,0,.474-.1.663.663,0,0,0,.313-.532c0-.007,0-.014,0-.02h0C143.39,265.9,143.39,265.888,143.39,265.875Zm-6.22-.118h-.4v.513h-.649l-.378-.434h0l-.018-.021-.434.454h-1.264v-1.382h1.283l.351.384.074.08.01-.01.415-.454h1.047a.512.512,0,0,1,.517.257.558.558,0,0,1,.016.138C137.743,265.678,137.466,265.757,137.17,265.757Zm1.975-.02a.448.448,0,0,1,.059.257v.276h-.336v-.178a.441.441,0,0,0-.059-.277c-.039-.059-.118-.059-.237-.059h-.355v.513h-.336v-1.4h.75a.8.8,0,0,1,.395.059.35.35,0,0,1,.178.316.393.393,0,0,1-.237.375A.337.337,0,0,1,139.145,265.737Zm1.363-.573h-.77v.257h.75v.277h-.75v.276h.77v.3H139.4v-1.4h1.106Zm.829,1.106H140.7v-.3h.632a.167.167,0,0,0,.138-.039.143.143,0,0,0,0-.2.168.168,0,0,0-.119-.039c-.316-.02-.691,0-.691-.434,0-.2.118-.415.474-.415h.652v.336h-.612a.293.293,0,0,0-.138.02c-.039.02-.039.059-.039.1,0,.059.039.079.079.1a.25.25,0,0,0,.118.02h.178a.5.5,0,0,1,.375.118.409.409,0,0,1,.1.3C141.85,266.132,141.672,266.27,141.337,266.27Zm1.7-.138a.575.575,0,0,1-.415.138h-.632v-.3h.632a.167.167,0,0,0,.138-.039.143.143,0,0,0,0-.2.167.167,0,0,0-.118-.039c-.316-.02-.691,0-.691-.434a.4.4,0,0,1,.372-.408.738.738,0,0,1,.1-.007h.652v.336h-.612a.293.293,0,0,0-.138.02.151.151,0,0,0-.04.1c0,.059.02.079.079.1a.25.25,0,0,0,.118.02h.178a.616.616,0,0,1,.211.032.425.425,0,0,1,.276.312.442.442,0,0,1,.006.071A.4.4,0,0,1,143.035,266.132Z" transform="translate(-130.942 -262.242)" fill="#fff"/>
      </g>
    </g>
  </g>
</svg>
