<?xml version="1.0" standalone="no"?>
<!DOCTYPE svg PUBLIC "-//W3C//DTD SVG 1.1//EN" "http://www.w3.org/Graphics/SVG/1.1/DTD/svg11.dtd" >
<svg>
<metadata>
Created by FontForge 20090914 at Thu Dec 26 08:10:43 2019
 By www-data
Copyright (c) Laurenz Brunner. www.lineto.com, 2004. All rights reserved.
</metadata>
<defs>
<font id="Akkurat-Bold" horiz-adv-x="570" >
  <font-face 
    font-family="Akkurat-Bold"
    font-weight="400"
    font-stretch="normal"
    units-per-em="1000"
    panose-1="2 0 5 3 3 0 0 2 0 4"
    ascent="800"
    descent="-200"
    x-height="520"
    cap-height="709"
    bbox="-30 -293 1147 983"
    underline-thickness="45"
    underline-position="-71"
    unicode-range="U+0020-U+FB02"
  />
<missing-glyph horiz-adv-x="588" 
d="M88 698h412v-698h-412v698zM425 74v549h-262v-549h262z" />
    <glyph glyph-name=".notdef" horiz-adv-x="588" 
d="M88 698h412v-698h-412v698zM425 74v549h-262v-549h262z" />
    <glyph glyph-name="space" unicode=" " horiz-adv-x="209" 
 />
    <glyph glyph-name="exclam" unicode="!" horiz-adv-x="332" 
d="M221 212h-75l-28 275v222h131v-222zM118 0v133h132v-133h-132z" />
    <glyph glyph-name="quotedbl" unicode="&#x22;" horiz-adv-x="525" 
d="M418 392h-83l-25 171v147h133v-147zM190 392h-83l-25 171v147h133v-147z" />
    <glyph glyph-name="numbersign" unicode="#" horiz-adv-x="758" 
d="M564 413l-17 -131h121v-98h-136l-26 -184h-105l26 184h-138l-26 -184h-105l26 184h-121v98h136l18 131h-122v99h136l27 183h104l-26 -183h138l27 183h104l-26 -183h121v-99h-136zM322 413l-18 -131h138l18 131h-138z" />
    <glyph glyph-name="dollar" unicode="$" 
d="M553 217c0 -32 -5.33008 -59.0049 -15.9971 -81.0049s-24.334 -41.667 -41.001 -59c-20.667 -21.333 -44.834 -38 -72.501 -50s-57.834 -19.667 -90.501 -23v-91h-73v90c-32 2.66699 -62.167 9.5 -90.5 20.5s-54.833 27.833 -79.5 50.5c-20 18 -36.667 40.167 -50 66.5
s-20.333 55.5 -21 87.5h123c0.666992 -17.333 4.33398 -33.166 11.001 -47.499s15.334 -26.5 26.001 -36.5c11.333 -11.333 23.833 -19.666 37.5 -24.999s28.167 -8.66602 43.5 -9.99902v198c-8 0.666992 -16.167 1.66699 -24.5 3l-24.5 4
c-54 8.66699 -96.5 29.334 -127.5 62.001s-46.5 74.667 -46.5 126c0 26.667 5.66699 51 17 73s26 41.667 44 59c19.333 19.333 42.666 35.333 69.999 48s58 20.667 92 24v93h73v-95c28 -3.33301 54.167 -10.166 78.5 -20.499s45.833 -24.166 64.5 -41.499
c20 -18.667 36.167 -40.167 48.5 -64.5s19.166 -50.5 20.499 -78.5h-123c-0.666992 12 -4 24.167 -10 36.5s-13 22.833 -21 31.5c-7.33301 7.33301 -16 13.5 -26 18.5s-20.667 9.16699 -32 12.5v-183c5.33301 -0.666992 11 -1.33398 17 -2.00098s11.667 -1.66699 17 -3
c25.333 -4 49.333 -11 72 -21s42.5 -23 59.5 -39s30.333 -35.167 40 -57.5s14.5 -47.5 14.5 -75.5zM260.003 600.995c-13.333 -2 -26.5 -5.66699 -39.5 -11s-24.5 -12.666 -34.5 -21.999c-8 -7.33301 -14.5 -16.333 -19.5 -27s-7.5 -22.667 -7.5 -36
c0 -23.333 6.5 -40.833 19.5 -52.5s30.167 -19.167 51.5 -22.5c5.33301 -1.33301 10.333 -2.33301 15 -3s9.66699 -1.33398 15 -2.00098v176zM432.003 211.995c0 25.333 -8.33398 44.166 -25.001 56.499s-35.667 20.5 -57 24.5l-17 3v-186
c30.667 5.33301 54.334 16.333 71.001 33c8 8 14.667 17.333 20 28s8 24.334 8 41.001z" />
    <glyph glyph-name="percent" unicode="%" horiz-adv-x="904" 
d="M854 182c0 -22 -2.16699 -43.167 -6.5 -63.5s-12.5 -39.166 -24.5 -56.499c-15.333 -22.667 -34.5 -40.334 -57.5 -53.001s-50.833 -19 -83.5 -19s-60.5 6.33301 -83.5 19s-42.167 30.334 -57.5 53.001c-12 17.333 -20.167 36.166 -24.5 56.499s-6.5 41.5 -6.5 63.5
s2.16699 43.167 6.5 63.5s12.5 39.166 24.5 56.499c15.333 22.667 34.5 40.334 57.5 53.001s50.833 19 83.5 19s60.5 -6.33301 83.5 -19s42.167 -30.334 57.5 -53.001c12 -17.333 20.167 -36.166 24.5 -56.499s6.5 -41.5 6.5 -63.5zM236 -20l-74 56l505 687l76 -53zM389 527
c0 -22 -2.16699 -43.167 -6.5 -63.5s-12.5 -39.166 -24.5 -56.499c-15.333 -22.667 -34.5 -40.334 -57.5 -53.001s-50.833 -19 -83.5 -19s-60.5 6.33301 -83.5 19s-42.167 30.334 -57.5 53.001c-12 17.333 -20.167 36.166 -24.5 56.499s-6.5 41.5 -6.5 63.5
s2.16699 43.167 6.5 63.5s12.5 39.166 24.5 56.499c15.333 22.667 34.5 40.334 57.5 53.001s50.833 19 83.5 19s60.5 -6.33301 83.5 -19s42.167 -30.334 57.5 -53.001c12 -17.333 20.167 -36.166 24.5 -56.499s6.5 -41.5 6.5 -63.5zM755 182
c0 13.333 -0.833008 26.333 -2.5 39s-5.16699 24 -10.5 34s-12.833 18 -22.5 24s-22.167 9 -37.5 9s-27.833 -3 -37.5 -9s-17.167 -14 -22.5 -24s-8.83301 -21.333 -10.5 -34s-2.5 -25.667 -2.5 -39s0.833008 -26.333 2.5 -39s5.16699 -24 10.5 -34s12.833 -18 22.5 -24
s22.167 -9 37.5 -9s27.833 3 37.5 9s17.167 14 22.5 24s8.83301 21.333 10.5 34s2.5 25.667 2.5 39zM290 527c0 13.333 -0.833008 26.333 -2.5 39s-5.16699 24 -10.5 34s-12.833 18 -22.5 24s-22.167 9 -37.5 9s-27.833 -3 -37.5 -9s-17.167 -14 -22.5 -24
s-8.83301 -21.333 -10.5 -34s-2.5 -25.667 -2.5 -39s0.833008 -26.333 2.5 -39s5.16699 -24 10.5 -34s12.833 -18 22.5 -24s22.167 -9 37.5 -9s27.833 3 37.5 9s17.167 14 22.5 24s8.83301 21.333 10.5 34s2.5 25.667 2.5 39z" />
    <glyph glyph-name="ampersand" unicode="&#x26;" horiz-adv-x="742" 
d="M552 -1l-50 55.999c-28.667 -25.333 -60.167 -44 -94.5 -56s-69.833 -18 -106.5 -18c-31.333 0 -61.333 5 -90 15s-53.667 24.167 -75 42.5s-38.333 40.833 -51 67.5s-19 56.667 -19 90c0 44 11.5 81.667 34.5 113s53.5 58.666 91.5 81.999
c-11.333 12 -21.666 23.833 -30.999 35.5s-17.333 23.5 -24 35.5s-11.834 24.667 -15.501 38s-5.5 28.333 -5.5 45c0 28 5.16699 53 15.5 75s24.166 40.833 41.499 56.5s37.833 27.5 61.5 35.5s48.834 12 75.501 12c26 0 50.833 -3.83301 74.5 -11.5s44.5 -19 62.5 -34
s32.333 -33.333 43 -55s16 -46.5 16 -74.5c0 -23.333 -3.33301 -44.166 -10 -62.499s-16 -35 -28 -50s-26.167 -28.833 -42.5 -41.5s-34.166 -24.667 -53.499 -36l123 -134c6 11.333 10.167 24.5 12.5 39.5s4.16602 30.833 5.49902 47.5c1.33301 16 2 31.667 2 47v40h183
v-99h-82c-1.33301 -28 -5 -55.667 -11 -83s-16.667 -52.666 -32 -75.999l131 -142h-152zM389 543.999c0 24.667 -7.49902 43.666 -22.499 56.999s-33.833 20 -56.5 20c-20.667 0 -39 -6.16699 -55 -18.5s-24 -30.833 -24 -55.5c0 -11.333 2.16699 -22 6.5 -32
s9.66602 -19.5 15.999 -28.5s13.5 -17.5 21.5 -25.5l23 -23l32.5 18.5c11 6.33301 20.833 13.5 29.5 21.5s15.667 17.333 21 28s8 23.334 8 38.001zM265.001 312.998l-32.998 -20.999c-10 -6.66699 -18.833 -14.334 -26.5 -23.001s-13.667 -18.5 -18 -29.5
s-6.5 -23.833 -6.5 -38.5c0 -18 3.5 -34 10.5 -48s16.333 -25.667 28 -35s25.167 -16.333 40.5 -21s31.333 -7 48 -7c21.333 0 42.666 3 63.999 9s39.666 17.667 54.999 35z" />
    <glyph glyph-name="quotesingle" unicode="'" horiz-adv-x="277" 
d="M180 392h-83l-25 171v147h133v-147z" />
    <glyph glyph-name="parenleft" unicode="(" horiz-adv-x="328" 
d="M247 -168c-60.667 69.333 -106.167 143.5 -136.5 222.5s-45.5 166.5 -45.5 262.5s15.167 183.5 45.5 262.5s75.833 153.167 136.5 222.5l71 -53c-25.333 -34 -47.333 -67.167 -66 -99.5s-34.167 -65.5 -46.5 -99.5s-21.5 -69.833 -27.5 -107.5s-9 -79.5 -9 -125.5
s3 -87.833 9 -125.5s15.167 -73.5 27.5 -107.5s27.833 -67.167 46.5 -99.5s40.667 -65.5 66 -99.5z" />
    <glyph glyph-name="parenright" unicode=")" horiz-adv-x="328" 
d="M263 317c0 -96 -15.167 -183.5 -45.5 -262.5s-75.833 -153.167 -136.5 -222.5l-71 53c25.333 34 47.333 67.167 66 99.5s34.167 65.5 46.5 99.5s21.5 69.833 27.5 107.5s9 79.5 9 125.5s-3 87.833 -9 125.5s-15.167 73.5 -27.5 107.5s-27.833 67.167 -46.5 99.5
s-40.667 65.5 -66 99.5l71 53c60.667 -69.333 106.167 -143.5 136.5 -222.5s45.5 -166.5 45.5 -262.5z" />
    <glyph glyph-name="asterisk" unicode="*" horiz-adv-x="525" 
d="M334 466l100 -125l-87 -65l-84 139l-85 -140l-87 65l100 126l-151 40l33 106l145 -60l-10 161h108l-11 -162l146 61l34 -106z" />
    <glyph glyph-name="plus" unicode="+" horiz-adv-x="679" 
d="M396 255v-250h-113v250h-228v107h228v234h113v-234h228v-107h-228z" />
    <glyph glyph-name="comma" unicode="," horiz-adv-x="292" 
d="M222 12c0 -43.333 -7.5 -79.832 -22.5 -109.499s-44.5 -53.834 -88.5 -72.501l-35 58c14.667 6.66699 26.5 13.667 35.5 21s16 15.5 21 24.5s8.33301 19 10 30s2.5 23.167 2.5 36.5h-75v156h152v-144z" />
    <glyph glyph-name="hyphen" unicode="-" horiz-adv-x="463" 
d="M60 252v112h343v-112h-343z" />
    <glyph glyph-name="period" unicode="." horiz-adv-x="293" 
d="M70 0v156h152v-156h-152z" />
    <glyph glyph-name="slash" unicode="/" horiz-adv-x="389" 
d="M92 -13h-92l307 735h92z" />
    <glyph glyph-name="zero" unicode="0" 
d="M530 348c0 -28.667 -1 -57 -3 -85s-5.83301 -55 -11.5 -81s-14 -50.333 -25 -73s-25.5 -42.667 -43.5 -60s-40 -32 -66 -44s-58 -18 -96 -18s-70 6 -96 18s-48 26.667 -66 44s-32.5 37.333 -43.5 60s-19.333 47 -25 73s-9.5 53 -11.5 81s-3 56.333 -3 85s1 57 3 85
s5.83301 55 11.5 81s14 50.333 25 73s25.5 42.667 43.5 60s40 32 66 44s58 18 96 18s70 -6 96 -18s48 -26.667 66 -44s32.5 -37.333 43.5 -60s19.333 -47 25 -73s9.5 -53 11.5 -81s3 -56.333 3 -85zM403 391c0 22 -1 45 -3 69s-7 45.833 -15 65.5
s-19.833 35.834 -35.5 48.501s-37.167 19 -64.5 19s-48.833 -6.33301 -64.5 -19s-27.5 -28.834 -35.5 -48.501s-13 -41.5 -15 -65.5s-3 -47 -3 -69v-86c0 -22 1 -45 3 -69s7 -45.833 15 -65.5s19.833 -35.834 35.5 -48.501s37.167 -19 64.5 -19s48.833 6.33301 64.5 19
s27.5 28.834 35.5 48.501s13 41.5 15 65.5s3 47 3 69v86z" />
    <glyph glyph-name="one" unicode="1" 
d="M269 0v547l-153 -111v136l171 123h107v-695h-125z" />
    <glyph glyph-name="two" unicode="2" 
d="M62 0v99.9941l271 323c12 14 21 28.833 27 44.5s9 30.5 9 44.5c0 24.667 -7.5 45.334 -22.5 62.001s-36.833 25 -65.5 25c-30 0 -53 -9.66699 -69 -29s-24 -43 -24 -71h-128c0 30.667 5 58.834 15 84.501s24.333 47.834 43 66.501s41.667 33.167 69 43.5s59 15.5 95 15.5
c30 0 58 -4.5 84 -13.5s48.667 -22 68 -39s34.5 -37.5 45.5 -61.5s16.5 -51.333 16.5 -82c0 -15.333 -2.16699 -30.666 -6.5 -45.999s-10 -30.166 -17 -44.499s-15 -28.166 -24 -41.499s-18.5 -26 -28.5 -38l-192 -230h278v-113h-444z" />
    <glyph glyph-name="three" unicode="3" 
d="M516 199c0 -34.667 -6.16602 -65.166 -18.499 -91.499s-29.333 -48.5 -51 -66.5s-46.834 -31.5 -75.501 -40.5s-59.334 -13.5 -92.001 -13.5c-32 0 -62.167 5 -90.5 15s-53 24.333 -74 43s-38 41.167 -51 67.5s-19.833 55.833 -20.5 88.5h125
c2.66699 -34 14.334 -59.833 35.001 -77.5s46.334 -26.5 77.001 -26.5c31.333 0 57.5 9 78.5 27s31.5 43.667 31.5 77c0 18 -3.33301 33.667 -10 47s-15.5 24.166 -26.5 32.499s-24 14.666 -39 18.999s-30.5 6.5 -46.5 6.5h-52v109h52c34 0 60.333 7.33301 79 22
s28 38.334 28 71.001c0 25.333 -8.83301 46.833 -26.5 64.5s-40.5 26.5 -68.5 26.5c-31.333 0 -56.833 -7.66699 -76.5 -23s-29.834 -39 -30.501 -71h-126c0.666992 32.667 7.16699 61.667 19.5 87s29 46.666 50 63.999s45.5 30.5 73.5 39.5s58 13.5 90 13.5
c31.333 0 60.5 -4.66699 87.5 -14s50.5 -22.666 70.5 -39.999s35.667 -38.166 47 -62.499s17 -51.5 17 -81.5c0 -32 -8.66699 -62 -26 -90s-42 -47.667 -74 -59c18 -5.33301 34 -13.333 48 -24s26 -23.334 36 -38.001s17.5 -30.667 22.5 -48s7.5 -35 7.5 -53z" />
    <glyph glyph-name="four" unicode="4" 
d="M462 140v-140h-125v140h-310v118l255 437h136l-259 -442h178v163h125v-163h88v-113h-88z" />
    <glyph glyph-name="five" unicode="5" 
d="M533 236c0 -36.667 -5.33008 -70.333 -15.9971 -101s-26.334 -57 -47.001 -79s-46 -39.167 -76 -51.5s-64.333 -18.5 -103 -18.5c-34.667 0 -66.334 5.16699 -95.001 15.5s-53.5 25 -74.5 44s-37.667 41.833 -50 68.5s-19.5 56.334 -21.5 89.001h125
c1.33301 -34.667 12.833 -61 34.5 -79s49.167 -27 82.5 -27c20.667 0 38.334 3.5 53.001 10.5s26.5 16.667 35.5 29s15.5 26.833 19.5 43.5s6 34.334 6 53.001c0 36.667 -9 66.834 -27 90.501s-47 35.5 -87 35.5c-20.667 0 -40.334 -5 -59.001 -15s-33.667 -23.667 -45 -41
h-123l15 392h422v-112h-314l-8 -159c16 15.333 35.167 26.666 57.5 33.999s49.166 11 80.499 11c34.667 0 65.5 -6 92.5 -18s49.5 -28.333 67.5 -49s31.667 -45.334 41 -74.001s14 -59.334 14 -92.001z" />
    <glyph glyph-name="six" unicode="6" 
d="M535 229c0 -34 -5.00098 -65.668 -15.001 -95.001s-25 -55 -45 -77s-45 -39.167 -75 -51.5s-64.667 -18.5 -104 -18.5c-33.333 0 -63.166 5.5 -89.499 16.5s-49.5 26.333 -69.5 46s-36.333 42.834 -49 69.501s-21.667 55.667 -27 87c-4 22.667 -6.83301 44.5 -8.5 65.5
s-2.5 42.5 -2.5 64.5c0 25.333 0.666992 51.833 2 79.5s4.66602 54.834 9.99902 81.501s13 52.167 23 76.5s24 46.166 42 65.499c19.333 20 42 36.667 68 50s60 20 102 20c36 0 67 -5.16699 93 -15.5s48 -24.166 66 -41.499c19.333 -18.667 34 -39.5 44 -62.5
s15 -44.833 15 -65.5h-126c-2 21.333 -10 39 -24 53c-16 16.667 -40.667 25 -74 25c-16.667 0 -30.167 -2.66699 -40.5 -8s-19.833 -12 -28.5 -20c-9.33301 -8.66699 -17.166 -19 -23.499 -31s-11.333 -25 -15 -39s-6.16699 -28.5 -7.5 -43.5s-2 -30.167 -2 -45.5
c8 9.33301 17.333 17.166 28 23.499s22 11.5 34 15.5s24 7 36 9s23.333 3 34 3c37.333 0 70.333 -5.66699 99 -17s52.667 -27.5 72 -48.5s33.833 -46 43.5 -75s14.5 -61.167 14.5 -96.5zM407.999 233.999c0 36 -9.33203 66.666 -27.999 91.999s-47.334 38 -86.001 38
c-34 0 -60.5 -12.5 -79.5 -37.5s-28.5 -55.833 -28.5 -92.5c0 -38 9 -70 27 -96s45.667 -39 83 -39c38 0 66.167 12.333 84.5 37s27.5 57.334 27.5 98.001z" />
    <glyph glyph-name="seven" unicode="7" 
d="M255 0h-135l272 583h-345v112h479v-100z" />
    <glyph glyph-name="eight" unicode="8" 
d="M525 195c0 -34 -6.66309 -64 -19.9961 -90s-31 -47.833 -53 -65.5s-47.5 -31 -76.5 -40s-59.167 -13.5 -90.5 -13.5s-61.5 4.5 -90.5 13.5s-54.5 22.333 -76.5 40s-39.667 39.5 -53 65.5s-20 56 -20 90c0 34.667 8.5 67.167 25.5 97.5s42.167 53.166 75.5 68.499
c-12.667 6.66699 -24.334 15.5 -35.001 26.5s-19.834 23.167 -27.501 36.5s-13.667 27.5 -18 42.5s-6.5 29.833 -6.5 44.5c0 32.667 6.16699 61.334 18.5 86.001s28.833 45.334 49.5 62.001s44.667 29.167 72 37.5s56 12.5 86 12.5s58.667 -4.16699 86 -12.5
s51.333 -20.833 72 -37.5s37.167 -37.334 49.5 -62.001s18.5 -53.334 18.5 -86.001c0 -14.667 -2.16699 -29.5 -6.5 -44.5s-10.333 -29.167 -18 -42.5s-16.834 -25.5 -27.501 -36.5s-22.334 -19.833 -35.001 -26.5c33.333 -15.333 58.5 -38.166 75.5 -68.499
s25.5 -62.833 25.5 -97.5zM385.004 509c0 25.333 -8.33301 46.666 -25 63.999s-41.667 26 -75 26c-34 0 -59.167 -8.66699 -75.5 -26s-24.5 -38.666 -24.5 -63.999s8.33301 -47.166 25 -65.499s41.667 -27.5 75 -27.5s58.333 9.16699 75 27.5s25 40.166 25 65.499z
M399.004 203c0 28.667 -9.66895 53 -29.002 73s-47.666 30 -84.999 30s-65.666 -10 -84.999 -30s-29 -44.333 -29 -73c0 -32 10.5 -57.667 31.5 -77s48.5 -29 82.5 -29s61.5 9.66699 82.5 29s31.5 45 31.5 77z" />
    <glyph glyph-name="nine" unicode="9" 
d="M522 360c0 -25.333 -0.669922 -51.8291 -2.00293 -79.4961s-4.66602 -54.834 -9.99902 -81.501s-13 -52.334 -23 -77.001s-24 -46.334 -42 -65.001c-19.333 -20 -42 -36.667 -68 -50s-60 -20 -102 -20c-36 0 -67 5.16699 -93 15.5s-48 24.166 -66 41.499
c-19.333 18.667 -34 39.5 -44 62.5s-15 44.833 -15 65.5h126c2 -21.333 10 -39 24 -53c16 -16.667 40.667 -25 74 -25c16.667 0 30.167 2.66699 40.5 8s19.833 12 28.5 20c18.667 17.333 31.334 40.5 38.001 69.5s10 58.833 10 89.5
c-8 -9.33301 -17.333 -17.166 -28 -23.499s-22 -11.5 -34 -15.5s-24 -7 -36 -9s-23.333 -3 -34 -3c-37.333 0 -70.333 5.66699 -99 17s-52.667 27.5 -72 48.5s-33.833 46 -43.5 75s-14.5 61.167 -14.5 96.5c0 34 5 65.667 15 95s25 55 45 77s45 39.167 75 51.5
s64.667 18.5 104 18.5c32.667 0 62.334 -5.5 89.001 -16.5s50 -26.333 70 -46s36.333 -42.834 49 -69.501s21.667 -55.667 27 -87c4 -22.667 6.83301 -44.5 8.5 -65.5s2.5 -42.5 2.5 -64.5zM385.997 462.004c0 38 -9.00098 70.001 -27.001 96.001s-45.667 39 -83 39
c-38 0 -66.167 -12.333 -84.5 -37s-27.5 -57.334 -27.5 -98.001c0 -36 9.33301 -66.667 28 -92s47.334 -38 86.001 -38c34 0 60.5 12.5 79.5 37.5s28.5 55.833 28.5 92.5z" />
    <glyph glyph-name="colon" unicode=":" horiz-adv-x="321" 
d="M94 369v151h151v-151h-151zM94 0v151h151v-151h-151z" />
    <glyph glyph-name="semicolon" unicode=";" horiz-adv-x="321" 
d="M94 369v151h151v-151h-151zM245 12c0 -22 -1.66699 -42 -5 -60s-9 -34.5 -17 -49.5s-19.167 -28.333 -33.5 -40s-32.5 -22.167 -54.5 -31.5l-35 58c28 13.333 46.5 28.5 55.5 45.5s13.5 38.833 13.5 65.5h-75v151h151v-139z" />
    <glyph glyph-name="less" unicode="&#x3c;" horiz-adv-x="466" 
d="M421 575l-254 -253l254 -254l-69 -68l-322 323l321 322z" />
    <glyph glyph-name="equal" unicode="=" horiz-adv-x="690" 
d="M90 328v98h510v-98h-510zM90 129v99h510v-99h-510z" />
    <glyph glyph-name="greater" unicode="&#x3e;" horiz-adv-x="466" 
d="M115 645l321 -322l-322 -323l-69 68l254 254l-254 253z" />
    <glyph glyph-name="question" unicode="?" horiz-adv-x="522" 
d="M494 529c0 -35.333 -7.33301 -65.8359 -22 -91.5029s-33.667 -48.167 -57 -67.5c-13.333 -11.333 -25.666 -21.333 -36.999 -30s-21.333 -18 -30 -28s-15.5 -21.5 -20.5 -34.5s-7.5 -28.833 -7.5 -47.5v-28h-124v23c0 12.667 0.166992 25.334 0.5 38.001
s1.83301 24.667 4.5 36c4.66699 22 11.5 40.5 20.5 55.5s19.333 28.333 31 40s23.667 22.167 36 31.5s24.5 19.333 36.5 30c9.33301 8.66699 18.166 18.834 26.499 30.501s12.5 25.5 12.5 41.5c0 22 -8.16699 41.5 -24.5 58.5s-40.5 25.5 -72.5 25.5s-57.667 -8.5 -77 -25.5
s-29 -41.833 -29 -74.5h-129c0 34.667 6.33301 65.334 19 92.001s29.834 49 51.501 67s47 31.5 76 40.5s60.167 13.5 93.5 13.5c32.667 0 62.667 -5 90 -15s50.666 -23.833 69.999 -41.5s34.5 -38.5 45.5 -62.5s16.5 -49.667 16.5 -77zM188 -0.00292969v140h139v-140h-139z
" />
    <glyph glyph-name="at" unicode="@" horiz-adv-x="927" 
d="M874 384c0 -29.333 -4.00293 -59.832 -12.0029 -91.499s-20.667 -60.667 -38 -87s-39.5 -48.166 -66.5 -65.499s-59.5 -26 -97.5 -26c-22 0 -41.833 4.66699 -59.5 14s-31.5 27.666 -41.5 54.999c-13.333 -23.333 -30.333 -40.333 -51 -51s-43 -16 -67 -16
c-28 0 -52.333 5.5 -73 16.5s-37.5 25.5 -50.5 43.5s-22.667 38.667 -29 62s-9.5 47.666 -9.5 72.999c0 27.333 3.66699 53.666 11 78.999s18.166 47.5 32.499 66.5s32.333 34.167 54 45.5s46.834 17 75.501 17c20.667 0 41 -5.33301 61 -16s33.333 -26.667 40 -48l14 53h92
l-18 -254v-8c0 -16 2.83301 -26.5 8.5 -31.5s11.834 -7.5 18.501 -7.5c10 0 19.333 2.66699 28 8s16.834 12 24.501 20s14.334 17.167 20.001 27.5s10.167 20.5 13.5 30.5c4.66699 14 8 28.5 10 43.5s3 30.167 3 45.5c0 40 -6.66699 75.333 -20 106s-32 56.167 -56 76.5
s-52.833 35.666 -86.5 45.999s-70.5 15.5 -110.5 15.5c-48.667 0 -92.5 -7.5 -131.5 -22.5s-72 -36.167 -99 -63.5s-47.667 -60.166 -62 -98.499s-21.5 -80.5 -21.5 -126.5c0 -41.333 6.66699 -80 20 -116s32.5 -67.167 57.5 -93.5s55.167 -47 90.5 -62
s74.666 -22.5 117.999 -22.5c38.667 0 78 2.33301 118 7s83 15 129 31v-96c-39.333 -14.667 -79 -25 -119 -31s-83 -9 -129 -9c-60.667 0 -115.334 10.167 -164.001 30.5s-90.167 48.333 -124.5 84s-60.666 77.834 -78.999 126.501s-27.5 101.667 -27.5 159
c0 60 10.333 114.5 31 163.5s49.667 91 87 126s81.833 62 133.5 81s108.834 28.5 171.501 28.5c52 0 101.167 -7.16699 147.5 -21.5s86.833 -35.5 121.5 -63.5s62 -63.167 82 -105.5s30 -91.5 30 -147.5zM545.997 331.001c0 28 -5.50098 51.498 -16.501 70.498
s-30.5 28.5 -58.5 28.5c-14.667 0 -27.167 -3.5 -37.5 -10.5s-18.833 -16.167 -25.5 -27.5s-11.5 -24 -14.5 -38s-4.5 -28.333 -4.5 -43c0 -13.333 1.33301 -26.166 4 -38.499s6.83398 -23.166 12.501 -32.499s13 -16.833 22 -22.5s19.833 -8.5 32.5 -8.5
c16 0 29.5 3.33301 40.5 10s19.833 15.667 26.5 27s11.5 24.333 14.5 39s4.5 30 4.5 46z" />
    <glyph glyph-name="A" unicode="A" horiz-adv-x="639" 
d="M504 0l-46 136h-282l-46 -136h-130l249 709h141l249 -709h-135zM317 551l-101 -299h202z" />
    <glyph glyph-name="B" unicode="B" horiz-adv-x="664" 
d="M626 206c0 -32 -5.66895 -61.6689 -17.002 -89.002s-29.666 -50.666 -54.999 -69.999c-28 -21.333 -58 -34.666 -90 -39.999s-65 -8 -99 -8h-282v710h282c28.667 0 57.167 -2.66699 85.5 -8s54.5 -15.666 78.5 -30.999c26 -17.333 46.167 -39.666 60.5 -66.999
s21.5 -56.333 21.5 -87c0 -14.667 -1.66699 -29.334 -5 -44.001s-8.66602 -28.834 -15.999 -42.501s-16.5 -26 -27.5 -37s-23.833 -19.833 -38.5 -26.5c34 -15.333 59.5 -37.5 76.5 -66.5s25.5 -60.167 25.5 -93.5zM479.998 507.998c0 16.667 -3.00098 30.833 -9.00098 42.5
s-14 21 -24 28s-21.667 12 -35 15s-27.333 4.5 -42 4.5h-159v-178h162c14.667 0 28.5 1.5 41.5 4.5s24.333 7.83301 34 14.5s17.334 15.667 23.001 27s8.5 25.333 8.5 42zM494.997 208.997c0 38 -11.667 64.667 -35 80s-52 23 -86 23h-163v-197h159
c14.667 0 29.5 1.5 44.5 4.5s28.5 8.16699 40.5 15.5s21.667 17 29 29s11 27 11 45z" />
    <glyph glyph-name="C" unicode="C" horiz-adv-x="628" 
d="M600 226c-3.33301 -28 -10.3359 -55.498 -21.0029 -82.498s-26.334 -51.167 -47.001 -72.5c-26.667 -27.333 -57.667 -48.166 -93 -62.499s-72 -21.5 -110 -21.5s-74.167 6.33301 -108.5 19s-65.166 32.667 -92.499 60c-19.333 19.333 -34.833 39.666 -46.5 60.999
s-20.5 44 -26.5 68s-10 49.167 -12 75.5s-3 54.166 -3 83.499c0 28.667 1 56.334 3 83.001s6 52 12 76s14.833 46.667 26.5 68s27.167 41.666 46.5 60.999c27.333 27.333 58.166 47.5 92.499 60.5s70.5 19.5 108.5 19.5s74.667 -6.83301 110 -20.5s66.333 -34.167 93 -61.5
c20.667 -21.333 36.334 -45.333 47.001 -72s17.667 -54 21 -82h-132c-1.33301 15.333 -4.66602 28.833 -9.99902 40.5s-12.666 23.167 -21.999 34.5c-11.333 14.667 -26.5 25.667 -45.5 33s-39.5 11 -61.5 11c-20.667 0 -40.5 -4 -59.5 -12s-35.5 -19.667 -49.5 -35
c-12 -12.667 -21.333 -27.334 -28 -44.001s-11.5 -34.167 -14.5 -52.5s-4.83301 -36.833 -5.5 -55.5s-1 -36 -1 -52s0.333008 -33.333 1 -52s2.5 -37.167 5.5 -55.5s7.83301 -35.833 14.5 -52.5s16 -31.334 28 -44.001c14 -15.333 30.5 -27 49.5 -35s38.833 -12 59.5 -12
c22 0 42.5 3.83301 61.5 11.5s34.167 18.834 45.5 33.501c18.667 22.667 29.334 48.667 32.001 78h132z" />
    <glyph glyph-name="D" unicode="D" horiz-adv-x="684" 
d="M641 355c0 -24.667 -0.833008 -49.5 -2.5 -74.5s-5.5 -49.5 -11.5 -73.5s-14.5 -47.167 -25.5 -69.5s-25.5 -42.833 -43.5 -61.5c-23.333 -24.667 -52.166 -43.5 -86.499 -56.5s-71.833 -19.5 -112.5 -19.5h-276v709h276c40.667 0 78.167 -6.5 112.5 -19.5
s63.166 -31.833 86.499 -56.5c18 -18.667 32.5 -39 43.5 -61s19.5 -45 25.5 -69s9.83301 -48.5 11.5 -73.5s2.5 -49.833 2.5 -74.5zM510 355c0 16 -0.333008 33 -1 51s-2.66699 35.833 -6 53.5s-8.33301 34.5 -15 50.5s-16.334 30.333 -29.001 43
c-12 12 -26.5 21.667 -43.5 29s-35.833 11 -56.5 11h-147v-477h147c20.667 0 39.5 3.66699 56.5 11s31.5 17 43.5 29c12.667 12.667 22.334 27 29.001 43s11.667 32.833 15 50.5s5.33301 35.667 6 54s1 35.5 1 51.5z" />
    <glyph glyph-name="E" unicode="E" horiz-adv-x="628" 
d="M83 0v709h505v-117h-376v-165h331v-116h-331v-194h376v-117h-505z" />
    <glyph glyph-name="F" unicode="F" horiz-adv-x="588" 
d="M212 592v-190h322v-117h-322v-285h-129v709h490v-117h-361z" />
    <glyph glyph-name="G" unicode="G" horiz-adv-x="684" 
d="M538 0l-14.9971 78.0068c-5.33301 -10 -13.333 -20.5 -24 -31.5s-23.834 -20.833 -39.501 -29.5s-33.167 -15.834 -52.5 -21.501s-40 -8.5 -62 -8.5c-41.333 0 -79.833 5.66699 -115.5 17s-67.5 32 -95.5 62c-18.667 19.333 -33.834 39.666 -45.501 60.999s-21 44 -28 68
s-11.833 49.167 -14.5 75.5s-4 54.166 -4 83.499c0 28.667 1.16699 56.167 3.5 82.5s6.83301 51.166 13.5 74.499s16 45.666 28 66.999s27.667 41.666 47 60.999c27.333 27.333 59.833 48 97.5 62s75.5 21 113.5 21c44 0 84 -7.33301 120 -22s66 -34.334 90 -59.001
c17.333 -18 32 -38.5 44 -61.5s19 -50.167 21 -81.5h-132c-1.33301 14 -5 26 -11 36s-12.667 19.667 -20 29c-24.667 28.667 -62.334 43 -113.001 43c-20.667 0 -41.667 -4.16699 -63 -12.5s-39 -20.166 -53 -35.499c-12 -12.667 -21.667 -27.334 -29 -44.001
s-13 -34.167 -17 -52.5s-6.5 -36.833 -7.5 -55.5s-1.5 -36 -1.5 -52s0.666992 -33.5 2 -52.5s4 -37.833 8 -56.5s9.66699 -36.5 17 -53.5s17 -31.833 29 -44.5c14 -15.333 31.5 -26.666 52.5 -33.999s41.833 -11 62.5 -11c23.333 0 43.833 3.66699 61.5 11
s32.5 17.333 44.5 30c19.333 20 31.833 41.167 37.5 63.5s8.5 47.166 8.5 74.499h-169v107h294v-388h-83z" />
    <glyph glyph-name="H" unicode="H" horiz-adv-x="715" 
d="M503 0v309h-291v-309h-129v709h129v-277h291v277h129v-709h-129z" />
    <glyph glyph-name="I" unicode="I" horiz-adv-x="297" 
d="M83 0v709h131v-709h-131z" />
    <glyph glyph-name="J" unicode="J" horiz-adv-x="491" 
d="M428 207c0 -67.333 -18.665 -120.999 -55.998 -160.999s-90.333 -60 -159 -60c-34 0 -63.333 5.16699 -88 15.5s-45.667 24.5 -63 42.5c-41.333 42 -62 101.333 -62 178h125c0 -17.333 1.5 -34.5 4.5 -51.5s10.167 -31.5 21.5 -43.5
c7.33301 -7.33301 16.166 -13.5 26.499 -18.5s22.166 -7.5 35.499 -7.5c29.333 0 51 8.66699 65 26s21 40.666 21 69.999v512h129v-502z" />
    <glyph glyph-name="K" unicode="K" horiz-adv-x="678" 
d="M526 0l-192 335l-122 -143v-192h-129v709h129v-327l283 327h157l-228 -268l254 -441h-152z" />
    <glyph glyph-name="L" unicode="L" horiz-adv-x="550" 
d="M83 0v709h129v-587h329v-122h-458z" />
    <glyph glyph-name="M" unicode="M" horiz-adv-x="878" 
d="M670 0v506l-184 -496h-95l-183 502v-512h-125v709h174l186 -505l187 505h165v-709h-125z" />
    <glyph glyph-name="N" unicode="N" horiz-adv-x="733" 
d="M517 0l-307 487v-487h-127v709h137l303 -480v480h127v-709h-133z" />
    <glyph glyph-name="O" unicode="O" horiz-adv-x="672" 
d="M630 354c0 -29.333 -1 -57 -3 -83s-6.33301 -51 -13 -75s-15.834 -46.667 -27.501 -68s-27.167 -41.666 -46.5 -60.999c-27.333 -27.333 -58.666 -47.5 -93.999 -60.5s-72 -19.5 -110 -19.5s-74.667 6.5 -110 19.5s-66.666 33.167 -93.999 60.5
c-19.333 19.333 -34.833 39.666 -46.5 60.999s-20.834 44 -27.501 68s-11 49 -13 75s-3 53.667 -3 83c0 28.667 1 56.334 3 83.001s6.33301 52 13 76s15.834 46.667 27.501 68s27.167 41.666 46.5 60.999c27.333 27.333 58.666 47.5 93.999 60.5s72 19.5 110 19.5
s74.667 -6.5 110 -19.5s66.666 -33.167 93.999 -60.5c19.333 -19.333 34.833 -39.666 46.5 -60.999s20.834 -44 27.501 -68s11 -49.333 13 -76s3 -54.334 3 -83.001zM499 354c0 16 -0.333008 33.333 -1 52s-2.66699 37.167 -6 55.5s-8.5 35.833 -15.5 52.5
s-16.5 31.334 -28.5 44.001c-14 15.333 -31 27 -51 35s-40.333 12 -61 12s-41 -4 -61 -12s-37 -19.667 -51 -35c-12 -12.667 -21.5 -27.334 -28.5 -44.001s-12.167 -34.167 -15.5 -52.5s-5.33301 -36.833 -6 -55.5s-1 -36 -1 -52s0.333008 -33.333 1 -52s2.66699 -37 6 -55
s8.5 -35.333 15.5 -52s16.5 -31.334 28.5 -44.001c14 -15.333 31 -27 51 -35s40.333 -12 61 -12s41 4 61 12s37 19.667 51 35c12 12.667 21.5 27.334 28.5 44.001s12.167 34 15.5 52s5.33301 36.333 6 55s1 36 1 52z" />
    <glyph glyph-name="P" unicode="P" horiz-adv-x="624" 
d="M611 482c0 -34 -5.33301 -65 -16 -93s-26.5 -52 -47.5 -72s-47.167 -35.5 -78.5 -46.5s-67.333 -16.5 -108 -16.5h-150v-254h-128v709h278c40.667 0 76.667 -5.5 108 -16.5s57.5 -26.333 78.5 -46s36.833 -43.5 47.5 -71.5s16 -59 16 -93zM481 481
c0 34 -10 61.667 -30 83s-51.667 32 -95 32h-145v-229h145c43.333 0 75 10.5 95 31.5s30 48.5 30 82.5z" />
    <glyph glyph-name="Q" unicode="Q" horiz-adv-x="672" 
d="M630 354c0 -29.333 -0.998047 -57 -2.99805 -83s-6.33301 -50.833 -13 -74.5s-15.834 -46.167 -27.501 -67.5s-26.834 -41.666 -45.501 -60.999l62 -78l-77 -60l-66 82c-38 -16.667 -79.333 -25 -124 -25c-38 0 -74.667 6.5 -110 19.5s-66.666 33.167 -93.999 60.5
c-19.333 19.333 -34.833 39.666 -46.5 60.999s-20.834 44 -27.501 68s-11 49 -13 75s-3 53.667 -3 83c0 28.667 1 56.334 3 83.001s6.33301 52 13 76s15.834 46.667 27.501 68s27.167 41.666 46.5 60.999c27.333 27.333 58.666 47.5 93.999 60.5s72 19.5 110 19.5
s74.667 -6.5 110 -19.5s66.666 -33.167 93.999 -60.5c19.333 -19.333 34.833 -39.666 46.5 -60.999s20.834 -44 27.501 -68s11 -49.333 13 -76s3 -54.334 3 -83.001zM499.002 354c0 16 -0.333008 33.334 -1 52.001s-2.66699 37.167 -6 55.5s-8.5 35.833 -15.5 52.5
s-16.5 31.334 -28.5 44.001c-14 15.333 -31 27 -51 35s-40.333 12 -61 12s-41 -4 -61 -12s-37 -19.667 -51 -35c-12 -12.667 -21.5 -27.334 -28.5 -44.001s-12.167 -34.167 -15.5 -52.5s-5.33301 -36.833 -6 -55.5s-1 -36 -1 -52s0.333008 -33.333 1 -52s2.66699 -37 6 -55
s8.5 -35.333 15.5 -52s16.5 -31.334 28.5 -44.001c14 -15.333 31 -27 51 -35s40.333 -12 61 -12c16.667 0 32 2.33301 46 7l-76 95l78 61l78 -99c8.66699 12.667 15.5 26.834 20.5 42.501s8.66699 31.667 11 48s3.83301 32.666 4.5 48.999s1 31.833 1 46.5z" />
    <glyph glyph-name="R" unicode="R" horiz-adv-x="659" 
d="M488 0l-118 267.998h-157v-268h-130v709h299c42 0 78.5 -6.16699 109.5 -18.5s56.667 -28.666 77 -48.999s35.333 -43.666 45 -69.999s14.5 -53.833 14.5 -82.5c0 -48 -11.833 -89.5 -35.5 -124.5s-55.167 -59.833 -94.5 -74.5l130 -290h-140zM499 488.998
c0 14 -2.66699 27.5 -8 40.5s-13 24.5 -23 34.5s-22.333 17.833 -37 23.5s-31 8.5 -49 8.5h-170v-212h172c36.667 0 65 9 85 27s30 44 30 78z" />
    <glyph glyph-name="S" unicode="S" horiz-adv-x="632" 
d="M599 211c0 -33.333 -5.49902 -62.001 -16.499 -86.001s-25.167 -44.667 -42.5 -62c-27.333 -27.333 -60.5 -46.833 -99.5 -58.5s-80.5 -17.5 -124.5 -17.5c-38 0 -75.5 5.5 -112.5 16.5s-70.167 29.833 -99.5 56.5c-21.333 19.333 -39 43.166 -53 71.499
s-21 59.5 -21 93.5h132c0 -17.333 3.5 -33.5 10.5 -48.5s15.833 -27.833 26.5 -38.5c15.333 -15.333 33.833 -25.5 55.5 -30.5s42.834 -7.5 63.501 -7.5c24.667 0 48 2.83301 70 8.5s39.667 15.5 53 29.5c8 8.66699 14.667 17.834 20 27.501s8 23.167 8 40.5
c0 26 -8.5 45.5 -25.5 58.5s-36.5 21.5 -58.5 25.5c-24 4.66699 -50.333 8 -79 10s-54.667 5 -78 9c-24.667 4 -47.834 11 -69.501 21s-40.667 23.167 -57 39.5s-29.333 36 -39 59s-14.5 49.167 -14.5 78.5c0 28 5.66699 53.667 17 77s26.333 44.333 45 63
c23.333 23.333 53.333 41.666 90 54.999s76 20 118 20c38 0 74.5 -5.83301 109.5 -17.5s64.5 -28.834 88.5 -51.501c21.333 -20 38.5 -42.667 51.5 -68s19.833 -53 20.5 -83h-132c-0.666992 12.667 -3.83398 25.167 -9.50098 37.5s-12.834 23.166 -21.501 32.499
c-11.333 12 -27.333 21.333 -48 28s-40.667 10 -60 10c-20 0 -40.5 -2.66699 -61.5 -8s-38.833 -15.666 -53.5 -30.999c-7.33301 -8 -13.166 -16.667 -17.499 -26s-6.5 -20.666 -6.5 -33.999c0 -23.333 6.66699 -41.166 20 -53.499s30.666 -20.166 51.999 -23.499
c22.667 -3.33301 48.167 -6.33301 76.5 -9s54.166 -5.66699 77.499 -9c26.667 -4 51.834 -11.167 75.501 -21.5s44.334 -24 62.001 -41s31.667 -37.5 42 -61.5s15.5 -51 15.5 -81z" />
    <glyph glyph-name="T" unicode="T" horiz-adv-x="561" 
d="M345 589v-589h-129v589h-210v120h549v-120h-210z" />
    <glyph glyph-name="U" unicode="U" horiz-adv-x="682" 
d="M619 272c0 -42 -5.83301 -80.5 -17.5 -115.5s-29.167 -65 -52.5 -90s-52.333 -44.5 -87 -58.5s-75 -21 -121 -21s-86.333 7 -121 21s-63.667 33.5 -87 58.5s-40.833 55 -52.5 90s-17.5 73.5 -17.5 115.5v437h129v-435c0 -50.667 12 -91.667 36 -123s61.667 -47 113 -47
s89 15.667 113 47s36 72.333 36 123v435h129v-437z" />
    <glyph glyph-name="V" unicode="V" horiz-adv-x="610" 
d="M377 0h-142l-235 709h137l172 -541l171 541h130z" />
    <glyph glyph-name="W" unicode="W" horiz-adv-x="872" 
d="M714 0h-129l-148 489l-148 -489h-129l-143 709h123l99 -493l146 482h108l143 -482l101 493h118z" />
    <glyph glyph-name="X" unicode="X" horiz-adv-x="603" 
d="M459 0l-159 258l-159 -258h-139l223 361l-221 348h141l159 -248l154 248h140l-218 -349l221 -360h-142z" />
    <glyph glyph-name="Y" unicode="Y" horiz-adv-x="624" 
d="M376 272v-272h-130v272l-246 437h140l175 -306l175 306h134z" />
    <glyph glyph-name="Z" unicode="Z" horiz-adv-x="615" 
d="M29 0v127l391 465h-385v117h544v-127l-388 -465h393v-117h-555z" />
    <glyph glyph-name="bracketleft" unicode="[" horiz-adv-x="363" 
d="M104 -148v928h234v-85h-140v-758h140v-85h-234z" />
    <glyph glyph-name="backslash" unicode="\" horiz-adv-x="389" 
d="M297 -13l-307 735h92l307 -735h-92z" />
    <glyph glyph-name="bracketright" unicode="]" horiz-adv-x="363" 
d="M25 -148v85h140v758h-140v85h234v-928h-234z" />
    <glyph glyph-name="asciicircum" unicode="^" horiz-adv-x="538" 
d="M350 404l-83 163l-84 -163h-133l170 318h99l169 -318h-138z" />
    <glyph glyph-name="underscore" unicode="_" horiz-adv-x="587" 
d="M24 -90v88h539v-88h-539z" />
    <glyph glyph-name="grave" unicode="`" horiz-adv-x="255" 
d="M203 566l-200 112l56 91l184 -138z" />
    <glyph glyph-name="a" unicode="a" horiz-adv-x="562" 
d="M531 6c-10.667 -4.66699 -19.835 -8.16797 -27.502 -10.501s-19.167 -3.5 -34.5 -3.5c-27.333 0 -48.333 7.33301 -63 22s-23 31.667 -25 51c-12 -21.333 -32 -39.666 -60 -54.999s-60.667 -23 -98 -23c-31.333 0 -58.666 4.5 -81.999 13.5s-42.833 21 -58.5 36
s-27.5 32.333 -35.5 52s-12 40.167 -12 61.5c0 24.667 4.5 46.667 13.5 66s21.5 36 37.5 50s34.667 24.833 56 32.5s44.333 12.5 69 14.5l153 11v32c0 24.667 -5.83301 44.5 -17.5 59.5s-35.167 22.5 -70.5 22.5c-29.333 0 -52.166 -6.33301 -68.499 -19
s-25.166 -31 -26.499 -55h-121c2 29.333 8.83301 54.666 20.5 75.999s27.167 38.833 46.5 52.5s41.666 23.834 66.999 30.501s52.666 10 81.999 10c44.667 0 84.5 -7.83301 119.5 -23.5s60.167 -43.167 75.5 -82.5c6.66699 -16.667 10.834 -34 12.501 -52
s2.5 -35.667 2.5 -53v-193c0 -12 2.16699 -20.5 6.5 -25.5s11.833 -7.5 22.5 -7.5c5.33301 0 9 0.333008 11 1c2 0 3.66699 0.333008 5 1v-92zM363.999 230.999l-132.001 -10.002c-19.333 -1.33301 -36.666 -7.66602 -51.999 -18.999s-23 -27.666 -23 -48.999
c0 -20 7.5 -35.833 22.5 -47.5s32.167 -17.5 51.5 -17.5c39.333 0 71.333 10.167 96 30.5s37 49.833 37 88.5v24z" />
    <glyph glyph-name="b" unicode="b" horiz-adv-x="601" 
d="M559 259c0 -49.333 -7.66699 -93.1709 -23 -131.504s-38.666 -70.166 -69.999 -95.499c-16 -13.333 -34.5 -24 -55.5 -32s-44.5 -12 -70.5 -12c-28.667 0 -56.334 5.5 -83.001 16.5s-47.667 28.5 -63 52.5l-8 -57h-108v722h125v-240c12 14.667 29.833 26.834 53.5 36.501
s51.167 14.5 82.5 14.5c26.667 0 50.5 -3.66699 71.5 -11s39.5 -17.666 55.5 -30.999c62 -51.333 93 -128.666 93 -231.999zM432 260.995c0 22.667 -2.16699 45 -6.5 67s-13.166 41.667 -26.499 59c-9.33301 11.333 -20.833 21 -34.5 29s-30.167 12 -49.5 12
c-24.667 0 -44.667 -5.16699 -60 -15.5s-27.333 -23.666 -36 -39.999s-14.5 -34.333 -17.5 -54s-4.5 -38.834 -4.5 -57.501c0 -25.333 3 -51.166 9 -77.499s18 -47.833 36 -64.5c8.66699 -8 19 -14.333 31 -19s26 -7 42 -7c19.333 0 35.833 4 49.5 12s25.167 17.667 34.5 29
c13.333 17.333 22.166 37.166 26.499 59.499s6.5 44.833 6.5 67.5z" />
    <glyph glyph-name="c" unicode="c" horiz-adv-x="531" 
d="M498 184c-1.33301 -20.667 -5.33301 -40.8311 -12 -60.498s-16 -37.167 -28 -52.5c-18 -22.667 -42.167 -42 -72.5 -58s-65.5 -24 -105.5 -24s-75.667 8.16699 -107 24.5s-56 35.5 -74 57.5c-19.333 24.667 -33.666 53 -42.999 85s-14 67 -14 105s4.66699 73 14 105
s23.666 60.333 42.999 85c18 22 42.667 41.167 74 57.5s67 24.5 107 24.5s75.167 -8 105.5 -24s54.5 -35.333 72.5 -58c12 -15.333 21.333 -32.833 28 -52.5s10.667 -39.834 12 -60.501h-123c-0.666992 9.33301 -2.33398 18 -5.00098 26s-6 15.333 -10 22
c-7.33301 11.333 -17.666 20.666 -30.999 27.999s-29.666 11 -48.999 11c-17.333 0 -32.166 -3 -44.499 -9s-22.833 -13.667 -31.5 -23c-15.333 -16.667 -25 -36.667 -29 -60s-6 -47.333 -6 -72s2 -48.5 6 -71.5s13.667 -42.833 29 -59.5
c8.66699 -9.33301 19.167 -17.166 31.5 -23.499s27.166 -9.5 44.499 -9.5c19.333 0 35.666 3.66699 48.999 11s23.666 16.666 30.999 27.999c4 6.66699 7.33301 14 10 22s4.33398 16.667 5.00098 26h123z" />
    <glyph glyph-name="d" unicode="d" horiz-adv-x="601" 
d="M415 0l-7.99902 57.0039c-15.333 -24 -36.333 -41.5 -63 -52.5s-54.334 -16.5 -83.001 -16.5c-26 0 -49.667 4 -71 12s-40 18.667 -56 32c-31.333 25.333 -54.5 57.166 -69.5 95.499s-22.5 82.166 -22.5 131.499c0 103.333 31 180.666 93 231.999
c16 13.333 34.5 23.666 55.5 30.999s44.833 11 71.5 11c33.333 0 61.5 -4.83301 84.5 -14.5s40.167 -21.167 51.5 -34.5v238h125v-722h-108zM404.001 261.004c0 18.667 -1.5 37.834 -4.5 57.501s-8.83301 37.667 -17.5 54s-20.667 29.666 -36 39.999s-35.333 15.5 -60 15.5
c-19.333 0 -35.833 -4 -49.5 -12s-25.167 -17.667 -34.5 -29c-13.333 -17.333 -22.166 -37 -26.499 -59s-6.5 -44.333 -6.5 -67s2.16699 -45.167 6.5 -67.5s13.166 -42.166 26.499 -59.499c9.33301 -11.333 20.833 -21 34.5 -29s30.167 -12 49.5 -12
c24.667 0 44.667 5.16699 60 15.5s27.333 23.666 36 39.999s14.5 34.5 17.5 54.5s4.5 39.333 4.5 58z" />
    <glyph glyph-name="e" unicode="e" horiz-adv-x="557" 
d="M518 256c-0.666992 -4.66699 -0.995117 -8.99707 -0.995117 -12.9971v-22h-348c0 -20 3.16699 -39 9.5 -57s15.833 -33 28.5 -45c9.33301 -8.66699 20.166 -16.167 32.499 -22.5s27.166 -9.5 44.499 -9.5c18 0 32.833 1.83301 44.5 5.5s22.167 10.167 31.5 19.5
c12 12 20.333 26.667 25 44h120c-1.33301 -15.333 -6.5 -32.166 -15.5 -50.499s-18.5 -33.5 -28.5 -45.5c-22 -26 -48.333 -44.667 -79 -56s-62.667 -17 -96 -17c-36 0 -67.167 5.83301 -93.5 17.5s-49.833 27.167 -70.5 46.5c-26 25.333 -45.833 55.666 -59.5 90.999
s-20.5 74.333 -20.5 117c0 42 6.16699 80.833 18.5 116.5s31.166 66.167 56.499 91.5c19.333 20 42.833 36 70.5 48s59.5 18 95.5 18c38.667 0 74.667 -7.83301 108 -23.5s60.666 -39.834 81.999 -72.501c19.333 -28.667 31.666 -57.834 36.999 -87.501s8 -60.834 8 -93.501
zM393.005 312.003c-0.666992 38 -11.333 68.334 -32 91.001c-8.66699 9.33301 -19.5 16.666 -32.5 21.999s-28.5 8 -46.5 8c-19.333 0 -36.333 -3.66699 -51 -11s-26.667 -17 -36 -29c-9.33301 -11.333 -16 -23.333 -20 -36s-6.33301 -27.667 -7 -45h225z" />
    <glyph glyph-name="f" unicode="f" horiz-adv-x="379" 
d="M379 623c-13.333 2.66699 -26.167 4.66797 -38.5 6.00098s-26.833 2 -43.5 2c-22.667 0 -39.667 -5.83301 -51 -17.5s-17 -26.834 -17 -45.501v-48h139v-103h-139v-417h-125v417h-88v103h88v50c0 48 15.5 87.333 46.5 118s74.5 46 130.5 46c18 0 34 -0.833008 48 -2.5
s30.667 -4.5 50 -8.5v-100z" />
    <glyph glyph-name="g" unicode="g" horiz-adv-x="551" 
d="M536 -69c0 -34 -7.66602 -62.335 -22.999 -85.002s-35 -40.5 -59 -53.5s-51 -22.167 -81 -27.5s-59.333 -8 -88 -8c-32 0 -63.833 2.33301 -95.5 7s-61.167 16.667 -88.5 36c-20 14 -35.5 30.333 -46.5 49s-16.5 40.334 -16.5 65.001c0 22.667 5.33301 43.5 16 62.5
s26 33.5 46 43.5c-16.667 9.33301 -29.5 22.166 -38.5 38.499s-13.5 33.166 -13.5 50.499c0 44.667 20.667 79.667 62 105c-16 16 -28.667 34.667 -38 56s-14 45.333 -14 72c0 30.667 5.66699 58 17 82s26.666 44 45.999 60s41.833 28.167 67.5 36.5s53.167 12.5 82.5 12.5
c21.333 0 42 -2.83301 62 -8.5s38.667 -13.5 56 -23.5c11.333 22.667 26.333 39.167 45 49.5s39 15.5 61 15.5h17c7.33301 0 13 -0.666992 17 -2v-97l-10 1c-14.667 0 -27.834 -2.33301 -39.501 -7s-19.5 -13.334 -23.5 -26.001c18 -29.333 27 -60.666 27 -93.999
c0 -30 -5.83301 -56.667 -17.5 -80s-27.167 -43 -46.5 -59s-41.833 -28.333 -67.5 -37s-52.5 -13 -80.5 -13c-29.333 0 -57.333 4.66699 -84 14c-6 -3.33301 -11.833 -8.16602 -17.5 -14.499s-8.5 -13.833 -8.5 -22.5c0 -15.333 6.16699 -25.5 18.5 -30.5
s25.166 -7.5 38.499 -7.5h86c12.667 0 26.334 -0.166992 41.001 -0.5s29.5 -1.66602 44.5 -3.99902s29.667 -5.83301 44 -10.5s27.5 -11.334 39.5 -20.001c22.667 -15.333 38.834 -33.666 48.501 -54.999s14.5 -44.666 14.5 -69.999zM363.001 341.998
c0 28 -8.16699 51.167 -24.5 69.5s-38.833 27.5 -67.5 27.5s-51.167 -9.16699 -67.5 -27.5s-24.5 -41.5 -24.5 -69.5s8.16699 -51 24.5 -69s38.833 -27 67.5 -27s51.167 9 67.5 27s24.5 41 24.5 69zM418.001 -72.002c0 16 -4.33301 28.332 -13 36.999s-19.167 15 -31.5 19
s-25.666 6.33301 -39.999 7s-27.5 1 -39.5 1h-98c-13.333 -4 -24.5 -11.5 -33.5 -22.5s-13.5 -24.833 -13.5 -41.5s4.5 -29.667 13.5 -39s20.167 -16.5 33.5 -21.5s27.666 -8.16699 42.999 -9.5s29 -2 41 -2c12.667 0 27 0.5 43 1.5s31 3.83301 45 8.5
s25.833 11.834 35.5 21.501s14.5 23.167 14.5 40.5z" />
    <glyph glyph-name="h" unicode="h" horiz-adv-x="591" 
d="M396 0l0.00195312 321.002c0 30 -6 53.667 -18 71s-34.667 26 -68 26c-18.667 0 -34.834 -4.5 -48.501 -13.5s-24.834 -20.5 -33.501 -34.5s-15 -29.5 -19 -46.5s-6 -33.5 -6 -49.5v-274h-125v722h125v-257c15.333 22 36 38.833 62 50.5s52.667 17.5 80 17.5
c28 0 52.833 -4.66699 74.5 -14s40 -22.333 55 -39s26.5 -36.334 34.5 -59.001s12 -47.334 12 -74.001v-347h-125z" />
    <glyph glyph-name="i" unicode="i" horiz-adv-x="286" 
d="M76 592v129h134v-129h-134zM80 0v520h127v-520h-127z" />
    <glyph glyph-name="j" unicode="j" horiz-adv-x="296" 
d="M86 594v129h134v-129h-134zM217 -72c0 -44.667 -12.668 -79.998 -38.001 -105.998s-61.333 -39 -108 -39h-21.5c-7 0 -14.5 0.666992 -22.5 2s-16.667 2.66602 -26 3.99902s-19.666 3.66602 -30.999 6.99902v106c9.33301 -1.33301 16.833 -2.33301 22.5 -3
s10.5 -1.16699 14.5 -1.5l11.5 -1c3.66699 -0.333008 7.83398 -0.5 12.501 -0.5c19.333 0 34.166 5 44.499 15s15.5 23.667 15.5 41v568h126v-592z" />
    <glyph glyph-name="k" unicode="k" horiz-adv-x="577" 
d="M432 0l-146 227l-83 -90v-137h-125v722h125v-413l197 211h157l-186 -201l206 -319h-145z" />
    <glyph glyph-name="l" unicode="l" horiz-adv-x="302" 
d="M272 1c-12.667 -2.66699 -21.832 -4.5 -27.499 -5.5s-14.834 -1.5 -27.501 -1.5c-42.667 0 -77 11 -103 33s-39 57.667 -39 107v589h126v-568c0 -15.333 3 -27.5 9 -36.5s19.667 -13.5 41 -13.5c5.33301 0 9.33301 0.166992 12 0.5s5.66699 0.5 9 0.5v-105z" />
    <glyph glyph-name="m" unicode="m" horiz-adv-x="885" 
d="M691 0l-0.00195312 323.002c0 32 -5.5 56.833 -16.5 74.5s-32.167 26.5 -63.5 26.5c-18 0 -33.333 -4.16699 -46 -12.5s-23.167 -19.333 -31.5 -33s-14.5 -28.834 -18.5 -45.501s-6 -33 -6 -49v-284h-124v323c0 32 -5.5 56.833 -16.5 74.5s-32.167 26.5 -63.5 26.5
c-18 0 -33.333 -4.16699 -46 -12.5s-23.334 -19.333 -32.001 -33s-15 -28.834 -19 -45.501s-6 -33 -6 -49v-284h-124v520h104l10 -69c14.667 24 34.334 43.667 59.001 59s54.334 23 89.001 23c36.667 0 67.334 -7.5 92.001 -22.5s43.667 -35.833 57 -62.5
c15.333 27.333 36.5 48.333 63.5 63s58.167 22 93.5 22c56 0 98.167 -16.833 126.5 -50.5s42.5 -77.5 42.5 -131.5v-351h-124z" />
    <glyph glyph-name="n" unicode="n" horiz-adv-x="591" 
d="M396 0l0.00195312 318.998c0 30.667 -6 54.667 -18 72s-34.667 26 -68 26c-22 0 -40.333 -6.16699 -55 -18.5s-26.334 -28.166 -35.001 -47.499s-13.667 -41.833 -15 -67.5s-2 -49.5 -2 -71.5v-212h-125v520h105l9 -67c15.333 27.333 37.166 47.5 65.499 60.5
s57.5 19.5 87.5 19.5c28 0 52.833 -4.66699 74.5 -14s40 -22.166 55 -38.499s26.5 -36 34.5 -59s12 -47.833 12 -74.5v-347h-125z" />
    <glyph glyph-name="o" unicode="o" 
d="M528 260c0 -44 -5.33301 -80.833 -16 -110.5s-25.667 -56.834 -45 -81.501c-18 -22 -42.833 -41 -74.5 -57s-67.5 -24 -107.5 -24s-75.833 8 -107.5 24s-56.5 35 -74.5 57c-19.333 24.667 -34.333 51.834 -45 81.501s-16 66.5 -16 110.5s5.33301 80.833 16 110.5
s25.667 56.834 45 81.501c18 22 42.833 41 74.5 57s67.5 24 107.5 24s75.833 -8 107.5 -24s56.5 -35 74.5 -57c19.333 -24.667 34.333 -51.834 45 -81.501s16 -66.5 16 -110.5zM401 260c0 24.667 -2.33301 48.5 -7 71.5s-14.667 42.833 -30 59.5
c-8.66699 9.33301 -19.667 17.166 -33 23.499s-28.666 9.5 -45.999 9.5s-32.666 -3.16699 -45.999 -9.5s-24.333 -14.166 -33 -23.499c-15.333 -16.667 -25.333 -36.5 -30 -59.5s-7 -46.833 -7 -71.5s2.33301 -48.5 7 -71.5s14.667 -42.833 30 -59.5
c8.66699 -9.33301 19.667 -17.166 33 -23.499s28.666 -9.5 45.999 -9.5s32.666 3.16699 45.999 9.5s24.333 14.166 33 23.499c15.333 16.667 25.333 36.5 30 59.5s7 46.833 7 71.5z" />
    <glyph glyph-name="p" unicode="p" horiz-adv-x="601" 
d="M559 261c0 -51.333 -7.66797 -96.5039 -23.001 -135.504s-38.666 -71.167 -69.999 -96.5c-16 -13.333 -34.5 -23.666 -55.5 -30.999s-44.833 -11 -71.5 -11c-31.333 0 -58.833 4.83301 -82.5 14.5s-41.5 21.834 -53.5 36.501v-237h-125v719h108l8 -57
c15.333 24 36.333 41.5 63 52.5s54.334 16.5 83.001 16.5c26 0 49.5 -4 70.5 -12s39.5 -18.667 55.5 -32c31.333 -25.333 54.666 -57.166 69.999 -95.499s23 -82.166 23 -131.499zM431.999 258.996c0 22.667 -2.16699 45.167 -6.5 67.5s-13.166 42.166 -26.499 59.499
c-9.33301 11.333 -20.833 21 -34.5 29s-30.167 12 -49.5 12c-24.667 0 -44.667 -5.16699 -60 -15.5s-27.333 -23.666 -36 -39.999s-14.5 -34.5 -17.5 -54.5s-4.5 -39.333 -4.5 -58s1.5 -37.834 4.5 -57.501s8.83301 -37.667 17.5 -54s20.667 -29.666 36 -39.999
s35.333 -15.5 60 -15.5c19.333 0 35.833 4 49.5 12s25.167 17.667 34.5 29c13.333 17.333 22.166 37 26.499 59s6.5 44.333 6.5 67z" />
    <glyph glyph-name="q" unicode="q" horiz-adv-x="601" 
d="M398 -199l-0.000976562 236.003c-12 -14.667 -29.833 -26.667 -53.5 -36s-51.167 -14 -82.5 -14c-26.667 0 -50.5 3.66699 -71.5 11s-39.5 17.666 -55.5 30.999c-31.333 25.333 -54.666 57.5 -69.999 96.5s-23 84.167 -23 135.5c0 49.333 7.66699 93.166 23 131.499
s38.666 70.166 69.999 95.499c16 13.333 34.5 24 55.5 32s44.5 12 70.5 12c28.667 0 56.334 -5.5 83.001 -16.5s47.667 -28.5 63 -52.5l8 57h108v-719h-125zM403.999 259.003c0 18.667 -1.5 38 -4.5 58s-8.83301 38.167 -17.5 54.5s-20.667 29.666 -36 39.999
s-35.333 15.5 -60 15.5c-19.333 0 -35.833 -4 -49.5 -12s-25.167 -17.667 -34.5 -29c-13.333 -17.333 -22.166 -37.166 -26.499 -59.499s-6.5 -44.833 -6.5 -67.5s2.16699 -45 6.5 -67s13.166 -41.667 26.499 -59c9.33301 -11.333 20.833 -21 34.5 -29s30.167 -12 49.5 -12
c24.667 0 44.667 5.16699 60 15.5s27.333 23.666 36 39.999s14.5 34.333 17.5 54s4.5 38.834 4.5 57.501z" />
    <glyph glyph-name="r" unicode="r" horiz-adv-x="395" 
d="M381 404c-15.333 3.33301 -29.668 5 -43.001 5c-44 0 -77.333 -14 -100 -42s-34 -63 -34 -105v-262h-126v520h106l11 -78c12 30 31.833 51.667 59.5 65s56.834 20 87.501 20c12.667 0 25.667 -1 39 -3v-120z" />
    <glyph glyph-name="s" unicode="s" horiz-adv-x="521" 
d="M482 161c0 -25.333 -4.16992 -47.3389 -12.5029 -66.0059s-19.166 -34.667 -32.499 -48c-21.333 -21.333 -47.333 -36.666 -78 -45.999s-64 -14 -100 -14c-33.333 0 -64.333 4.83301 -93 14.5s-53.667 24.834 -75 45.501c-15.333 14.667 -28.333 32.334 -39 53.001
s-16 43.334 -16 68.001h117c0 -11.333 2.66699 -22.666 8 -33.999s12 -20.333 20 -27c10 -8 21.167 -13.833 33.5 -17.5s27.5 -5.5 45.5 -5.5c10.667 0 22.167 0.833008 34.5 2.5s23.833 4.83398 34.5 9.50098s19.5 11.334 26.5 20.001s10.5 20 10.5 34
c0 15.333 -4.66699 27.666 -14 36.999s-22 15.333 -38 18c-23.333 3.33301 -47.333 6.16602 -72 8.49902s-48.667 6.16602 -72 11.499c-18 4 -34.167 10.333 -48.5 19s-26.833 19.167 -37.5 31.5s-18.834 26 -24.501 41s-8.5 30.833 -8.5 47.5c0 26.667 5 49.5 15 68.5
s22.667 35.167 38 48.5c19.333 16.667 42.333 29.5 69 38.5s56.334 13.5 89.001 13.5c31.333 0 61.5 -5 90.5 -15s53.167 -25.333 72.5 -46c14 -15.333 25.167 -32.166 33.5 -50.499s12.5 -37.166 12.5 -56.499h-119c0 10 -2 19 -6 27s-9 15.333 -15 22
c-7.33301 7.33301 -17.166 13.166 -29.499 17.499s-25.166 6.5 -38.499 6.5c-9.33301 0 -18.333 -0.333008 -27 -1s-17.667 -3 -27 -7c-11.333 -4.66699 -20.833 -11.667 -28.5 -21s-11.5 -20.666 -11.5 -33.999c0 -18.667 6.5 -31.5 19.5 -38.5s26.5 -11.5 40.5 -13.5
c12 -1.33301 22 -2.5 30 -3.5l24 -3c8 -1 16.333 -2.16699 25 -3.5l32 -5c41.333 -6.66699 75.333 -22.5 102 -47.5s40 -58.167 40 -99.5z" />
    <glyph glyph-name="t" unicode="t" horiz-adv-x="400" 
d="M372 7c-36 -9.33301 -71.667 -14 -107 -14c-52.667 0 -92 14.167 -118 42.5s-39 67.5 -39 117.5v264h-95v103h95v132l125 31v-163h131v-103h-131v-253c0 -20 4.66699 -34.5 14 -43.5s24 -13.5 44 -13.5c13.333 0 25.833 0.333008 37.5 1s26.167 2 43.5 4v-105z" />
    <glyph glyph-name="u" unicode="u" horiz-adv-x="590" 
d="M408 0l-8.99707 68.001c-12.667 -25.333 -32.334 -45.166 -59.001 -59.499s-56.667 -21.5 -90 -21.5c-28 0 -53 4.5 -75 13.5s-40.833 21.667 -56.5 38s-27.667 35.833 -36 58.5s-12.5 48 -12.5 76v347h125v-319c0 -30.667 6.66699 -54.834 20 -72.501
s36.666 -26.5 69.999 -26.5c14.667 0 27.167 2.5 37.5 7.5s19.166 11.167 26.499 18.5c15.333 14 25.5 31.667 30.5 53s7.5 42.666 7.5 63.999v275h125v-520h-104z" />
    <glyph glyph-name="v" unicode="v" horiz-adv-x="514" 
d="M326 0h-133l-193 520h132l130 -366l123 366h129z" />
    <glyph glyph-name="w" unicode="w" horiz-adv-x="771" 
d="M621 0h-116l-118 351l-116 -351h-116l-132 520h121l83 -341l109 336h103l110 -335l80 340h119z" />
    <glyph glyph-name="x" unicode="x" horiz-adv-x="516" 
d="M334 264l178 -264h-141l-116 174l-114 -174h-137l182 265l-183 255h144l116 -168l113 168h137z" />
    <glyph glyph-name="y" unicode="y" horiz-adv-x="530" 
d="M301 -89c-6.66699 -17.333 -14.5 -33.833 -23.5 -49.5s-19.833 -29.5 -32.5 -41.5s-27.5 -21.5 -44.5 -28.5s-36.833 -10.5 -59.5 -10.5c-20.667 0 -38.5 1.33301 -53.5 4s-29.167 5.66699 -42.5 9v104c8 -1.33301 14.833 -2.66602 20.5 -3.99902s11 -2.33301 16 -3
s10 -1.16699 15 -1.5s11.167 -0.5 18.5 -0.5c11.333 0 22.5 2.66699 33.5 8s19.833 15.666 26.5 30.999l30 73l-205 519h137l136 -376l130 376h127z" />
    <glyph glyph-name="z" unicode="z" horiz-adv-x="507" 
d="M44 0v110l275 307h-273v103h420v-113l-272 -304h274v-103h-424z" />
    <glyph glyph-name="braceleft" unicode="{" horiz-adv-x="379" 
d="M326 -148c-28.667 0 -53.335 4.6709 -74.002 14.0039s-37.667 21.666 -51 36.999s-23.166 33.333 -29.499 54s-9.5 42 -9.5 64v27.5c0 11 0.166992 22.5 0.5 34.5s0.5 23.5 0.5 34.5v27.5c0 44 -9.83301 75 -29.5 93s-49.167 28.667 -88.5 32v93
c18.667 2 35.334 5.16699 50.001 9.5s27 11.166 37 20.499s17.667 21.5 23 36.5s8 34.167 8 57.5v27.5c0 11 -0.166992 22.5 -0.5 34.5s-0.5 23.5 -0.5 34.5v27.5c0 22 3.16699 43.333 9.5 64s16.166 38.667 29.499 54s30.333 27.666 51 36.999s45.334 14 74.001 14h53v-85
h-34c-33.333 0 -56.333 -8 -69 -24s-19 -38.333 -19 -67v-154c0 -14.667 -2.33301 -29 -7 -43s-11.5 -26.833 -20.5 -38.5s-20.167 -21.834 -33.5 -30.501s-29 -15 -47 -19v-3c18 -4 33.667 -10.5 47 -19.5s24.5 -19.5 33.5 -31.5s15.833 -25.167 20.5 -39.5
s7 -28.833 7 -43.5v-154c0 -28.667 6.33301 -51 19 -67s35.667 -24 69 -24h34v-85h-53z" />
    <glyph glyph-name="bar" unicode="|" horiz-adv-x="268" 
d="M85 -148v928h98v-928h-98z" />
    <glyph glyph-name="braceright" unicode="}" horiz-adv-x="379" 
d="M334 270c-39.333 -3.33301 -68.833 -14.0039 -88.5 -32.0039s-29.5 -49 -29.5 -93v-27.5c0 -11 0.166992 -22.5 0.5 -34.5s0.5 -23.5 0.5 -34.5v-27.5c0 -22 -3.16699 -43.333 -9.5 -64s-16.166 -38.667 -29.499 -54s-30.333 -27.666 -51 -36.999
s-45.334 -14 -74.001 -14h-53v85h34c33.333 0 56.333 8 69 24s19 38.333 19 67v154c0 14.667 2.33301 29.167 7 43.5s11.5 27.5 20.5 39.5s20.167 22.5 33.5 31.5s29 15.5 47 19.5v3c-18 4 -33.667 10.333 -47 19s-24.5 18.834 -33.5 30.501s-15.833 24.5 -20.5 38.5
s-7 28.333 -7 43v154c0 28.667 -6.33301 51 -19 67s-35.667 24 -69 24h-34v85h53c28.667 0 53.334 -4.66699 74.001 -14s37.667 -21.666 51 -36.999s23.166 -33.333 29.499 -54s9.5 -42 9.5 -64v-27.5c0 -11 -0.166992 -22.5 -0.5 -34.5s-0.5 -23.5 -0.5 -34.5v-27.5
c0 -23.333 2.5 -42.5 7.5 -57.5s12.5 -27.167 22.5 -36.5s22.333 -16.166 37 -20.499s31.667 -7.5 51 -9.5v-93z" />
    <glyph glyph-name="asciitilde" unicode="~" horiz-adv-x="683" 
d="M623 306c-25.333 -26.667 -52.834 -49.999 -82.501 -69.999s-63.834 -30 -102.501 -30c-19.333 0 -38 3.16699 -56 9.5s-35 13.5 -51 21.5s-31.5 15.167 -46.5 21.5s-29.167 9.5 -42.5 9.5c-20.667 0 -39.667 -6.5 -57 -19.5s-32.666 -26.5 -45.999 -40.5l-79 95
c12.667 13.333 25.667 26.166 39 38.499s27.333 23.166 42 32.499s30.5 16.833 47.5 22.5s35.167 8.5 54.5 8.5c18.667 0 36.834 -3.16699 54.501 -9.5s34.5 -13.166 50.5 -20.499l46.5 -20.5c15 -6.33301 29.5 -9.5 43.5 -9.5c20.667 0 40 5.83301 58 17.5
s33.667 24.5 47 38.5z" />
    <glyph glyph-name="Zcaron" horiz-adv-x="615" 
d="M29 0v127l391 465h-385v117h544v-127l-388 -465h393v-117h-555zM118 913l65 59l107 -118l105 115l62 -56l-136 -148h-63z" />
    <glyph glyph-name="Zcaron" unicode="&#x17d;" horiz-adv-x="615" 
d="M29 0v127l391 465h-385v117h544v-127l-388 -465h393v-117h-555zM118 913l65 59l107 -118l105 115l62 -56l-136 -148h-63z" />
    <glyph glyph-name="zcaron" horiz-adv-x="507" 
d="M44 0v110l275 307h-273v103h420v-113l-272 -304h274v-103h-424zM98 706l59 53l96 -106l94 103l56 -50l-122 -134h-57z" />
    <glyph glyph-name="zcaron" unicode="&#x17e;" horiz-adv-x="507" 
d="M44 0v110l275 307h-273v103h420v-113l-272 -304h274v-103h-424zM98 706l59 53l96 -106l94 103l56 -50l-122 -134h-57z" />
    <glyph glyph-name="uni00A0" unicode="&#xa0;" horiz-adv-x="209" 
 />
    <glyph glyph-name="exclamdown" unicode="&#xa1;" horiz-adv-x="332" 
d="M83 370v135h132v-135h-132zM83 -204v222l28 275h75l28 -275v-222h-131z" />
    <glyph glyph-name="cent" unicode="&#xa2;" 
d="M521 276c-2 -42.667 -15.333 -80.0059 -40 -112.006c-15.333 -20 -35.5 -37.667 -60.5 -53s-54.167 -24.666 -87.5 -27.999v-85h-62v87c-32 4.66699 -60.5 14.334 -85.5 29.001s-45.167 31.334 -60.5 50.001c-19.333 24 -33.166 52.167 -41.499 84.5
s-12.5 67.5 -12.5 105.5s4.16699 73.167 12.5 105.5s22.166 60.5 41.499 84.5c15.333 18.667 35.5 35.5 60.5 50.5s53.5 24.833 85.5 29.5v88h62v-87c33.333 -3.33301 62.5 -12.666 87.5 -27.999s45.167 -33 60.5 -53c24.667 -32 38 -69.333 40 -112h-121
c-0.666992 9.33301 -2.33398 17.833 -5.00098 25.5s-6 14.834 -10 21.501c-11.333 18.667 -28.666 31 -51.999 37v-324c23.333 6 40.666 18.333 51.999 37c4 6.66699 7.33301 13.834 10 21.501s4.33398 16.167 5.00098 25.5h121zM271 513.994c-16 -6 -30 -15.333 -42 -28
c-15.333 -16.667 -24.833 -36.667 -28.5 -60s-5.5 -47.333 -5.5 -72s1.83301 -48.667 5.5 -72s13.167 -43.333 28.5 -60c12 -12.667 26 -22 42 -28v320z" />
    <glyph glyph-name="sterling" unicode="&#xa3;" horiz-adv-x="575" 
d="M549 192c0 -62.667 -16.499 -110.334 -49.499 -143.001s-80.833 -49 -143.5 -49h-318v110c50.667 0 76 24.667 76 74v130h-75v103h75v91c0 63.333 18.5 112.833 55.5 148.5s86.833 53.5 149.5 53.5c28 0 54.167 -4.33301 78.5 -13s45.5 -21.334 63.5 -38.001
s32.167 -36.667 42.5 -60s15.5 -49.666 15.5 -78.999h-125c0 23.333 -6.33301 42.833 -19 58.5s-31.334 23.5 -56.001 23.5c-27.333 0 -47.333 -8.33301 -60 -25s-19 -37.667 -19 -63v-97h143v-103h-143v-131c0 -6.66699 -0.5 -13.667 -1.5 -21
s-2.83301 -14.166 -5.5 -20.499s-6.5 -12 -11.5 -17s-11.167 -8.5 -18.5 -10.5v-2h151c28 0 47.667 6.5 59 19.5s17 33.167 17 60.5h119z" />
    <glyph glyph-name="currency" unicode="&#xa4;" horiz-adv-x="571" 
d="M478 -20l-69.998 76c-20 -11.333 -39.833 -19.666 -59.5 -24.999s-40.167 -8 -61.5 -8s-42 2.66699 -62 8s-40.333 13.666 -61 24.999l-69 -76l-87 84l79 67c-24 42 -36 83 -36 123s12 81 36 123l-79 63l88 87l67 -75c20.667 11.333 41.167 19.5 61.5 24.5
s41.166 7.5 62.499 7.5s41.666 -2.5 60.999 -7.5s39.333 -13.167 60 -24.5l69 75l87 -87l-78 -63c24 -42 36 -83 36 -123c0 -41.333 -12 -82.333 -36 -123l78 -67zM410.002 254c0 18 -2.83301 34.668 -8.5 50.001s-13.834 28.666 -24.501 39.999s-23.667 20.166 -39 26.499
s-32.333 9.5 -51 9.5c-42 0 -73.333 -11.667 -94 -35s-31 -53.666 -31 -90.999c0 -16.667 2.83301 -32.667 8.5 -48s13.834 -28.833 24.501 -40.5s23.667 -21 39 -28s33 -10.5 53 -10.5c40 0 70.5 12 91.5 36s31.5 54.333 31.5 91z" />
    <glyph glyph-name="yen" unicode="&#xa5;" horiz-adv-x="569" 
d="M404 398h114v-73h-170v-90h170v-73h-170v-162h-128v162h-159v73h159v90h-159v73h104l-165 297h139l149 -271l144 271h137z" />
    <glyph glyph-name="brokenbar" unicode="&#xa6;" horiz-adv-x="289" 
d="M83 440v319h123v-319h-123zM83 -50v319h123v-319h-123z" />
    <glyph glyph-name="section" unicode="&#xa7;" horiz-adv-x="549" 
d="M504 173c0 -30.667 -8.33301 -57.167 -25 -79.5s-37 -41.833 -61 -58.5c13.333 -15.333 23.333 -31.833 30 -49.5s10 -37.834 10 -60.501c0 -24 -4.16699 -45.5 -12.5 -64.5s-19.5 -35.5 -33.5 -49.5c-17.333 -17.333 -38.333 -30.833 -63 -40.5s-51 -14.5 -79 -14.5
c-26 0 -50.5 4 -73.5 12s-43.167 19.667 -60.5 35s-31 34.166 -41 56.499s-15 47.833 -15 76.5h109c0 -23.333 7 -42.833 21 -58.5s33.667 -23.5 59 -23.5c23.333 0 42 6.16699 56 18.5s21 29.166 21 50.499c0 14 -3.33301 26.167 -10 36.5s-15 20.166 -25 29.499l-195 167
c-20.667 17.333 -36.834 37.666 -48.501 60.999s-17.5 48.666 -17.5 75.999c0 30.667 8.5 57 25.5 79s37.5 41.333 61.5 58c-13.333 15.333 -23.5 32 -30.5 50s-10.5 38.333 -10.5 61c0 24 4.33301 45.333 13 64s20 35 34 49c17.333 17.333 38.333 31 63 41s51 15 79 15
c26 0 50.5 -4.16699 73.5 -12.5s43.167 -20.166 60.5 -35.499s31 -34.166 41 -56.499s15 -47.833 15 -76.5h-110c0 23.333 -6.83301 43 -20.5 59s-33.167 24 -58.5 24c-23.333 0 -42 -6.16699 -56 -18.5s-21 -29.166 -21 -50.499c0 -14 3.16699 -26.167 9.5 -36.5
s14.5 -20.166 24.5 -29.499l195 -167c20.667 -17.333 36.834 -37.666 48.501 -60.999s17.5 -48.666 17.5 -75.999zM394 165c0 11.333 -2.33203 22.666 -6.99902 33.999s-11.667 21 -21 29l-160 139c-11.333 -8 -21.666 -17.667 -30.999 -29s-14 -23.666 -14 -36.999
c0 -11.333 2.16699 -22.666 6.5 -33.999s11.166 -21 20.499 -29l161 -139c11.333 8 21.666 17.667 30.999 29s14 23.666 14 36.999z" />
    <glyph glyph-name="dieresis" unicode="&#xa8;" horiz-adv-x="323" 
d="M206 601v121h117v-121h-117zM0 601v121h117v-121h-117z" />
    <glyph glyph-name="copyright" unicode="&#xa9;" horiz-adv-x="838" 
d="M789 354c0 -54 -9.16797 -103.5 -27.501 -148.5s-44 -83.667 -77 -116s-72.167 -57.666 -117.5 -75.999s-94.666 -27.5 -147.999 -27.5c-54 0 -103.5 9.16699 -148.5 27.5s-84 43.666 -117 75.999s-58.667 71 -77 116s-27.5 94.5 -27.5 148.5
c0 53.333 9.33301 102.5 28 147.5s44.5 83.833 77.5 116.5s72 58.167 117 76.5s94.167 27.5 147.5 27.5c52.667 0 101.667 -9.16699 147 -27.5s84.5 -44 117.5 -77s58.833 -72 77.5 -117s28 -93.833 28 -146.5zM695.999 354c0 40.667 -6.66797 78.168 -20.001 112.501
s-32.333 64 -57 89s-54 44.667 -88 59s-71.333 21.5 -112 21.5c-41.333 0 -78.833 -7.16699 -112.5 -21.5s-62.667 -34 -87 -59s-43.166 -54.667 -56.499 -89s-20 -71.833 -20 -112.5s6.66699 -78.334 20 -113.001s32 -64.5 56 -89.5s53 -44.5 87 -58.5s71.667 -21 113 -21
c40.667 0 78 7.16699 112 21.5s63.167 34 87.5 59s43.333 54.833 57 89.5s20.5 72 20.5 112zM596.998 301.001c-2.66699 -21.333 -8.66602 -41.001 -17.999 -59.001s-21.5 -33.667 -36.5 -47s-32.5 -23.666 -52.5 -30.999s-42 -11 -66 -11c-30 0 -56.667 5.33301 -80 16
s-43 25 -59 43s-28.167 39 -36.5 63s-12.5 49.667 -12.5 77c0 26.667 4.16699 52 12.5 76s20.5 45 36.5 63s35.667 32.333 59 43s50 16 80 16c24 0 46 -3.66699 66 -11s37.5 -17.666 52.5 -30.999s27.167 -29 36.5 -47s15.333 -37.667 18 -59h-102
c-2.66699 15.333 -10.167 28.666 -22.5 39.999s-28.5 17 -48.5 17c-14.667 0 -27.334 -3 -38.001 -9s-19.5 -14 -26.5 -24s-12.167 -21.5 -15.5 -34.5s-5 -26.167 -5 -39.5c0 -31.333 7.16699 -57.166 21.5 -77.499s35.5 -30.5 63.5 -30.5c20 0 36.167 5.66699 48.5 17
s19.833 24.666 22.5 39.999h102z" />
    <glyph glyph-name="ordfeminine" unicode="&#xaa;" horiz-adv-x="475" 
d="M425 309c-8 -3.33301 -14.999 -6 -20.999 -8s-14.667 -3 -26 -3c-20.667 0 -36.667 5.5 -48 16.5s-17.666 24.167 -18.999 39.5c-9.33301 -16 -24.666 -29.833 -45.999 -41.5s-46 -17.5 -74 -17.5c-23.333 0 -43.833 3.5 -61.5 10.5s-32.334 16.167 -44.001 27.5
s-20.5 24.666 -26.5 39.999s-9 31 -9 47c0 18.667 3.33301 35.334 10 50.001s16 27 28 37s26 18 42 24s33.333 9.66699 52 11l116 9v24c0 18.667 -4.16699 33.667 -12.5 45s-26.166 17 -53.499 17c-45.333 0 -69 -18.667 -71 -56h-92c1.33301 22 6.5 41.167 15.5 57.5
s20.667 29.833 35 40.5s31.166 18.5 50.499 23.5s40 7.5 62 7.5c34 0 64.167 -6 90.5 -18s45.166 -33 56.499 -63c5.33301 -12.667 8.5 -25.834 9.5 -39.501s1.5 -27.167 1.5 -40.5v-148c0 -9.33301 1.83301 -15.666 5.5 -18.999s9.5 -5 17.5 -5c4 0 6.66699 0.333008 8 1
c1.33301 0 2.66602 0.333008 3.99902 1v-70zM298.001 480l-99 -8.00098c-14.667 -1.33301 -27.667 -6.16602 -39 -14.499s-17 -20.5 -17 -36.5c0 -15.333 5.33301 -27.5 16 -36.5s23.667 -13.5 39 -13.5c30 0 54.167 7.83301 72.5 23.5s27.5 38.167 27.5 67.5v18z" />
    <glyph glyph-name="guillemotleft" unicode="&#xab;" horiz-adv-x="587" 
d="M459 54l-173 244l173 247l73 -52l-114 -194l114 -194zM218 54l-173 244l173 247l73 -52l-114 -194l114 -194z" />
    <glyph glyph-name="logicalnot" unicode="&#xac;" horiz-adv-x="665" 
d="M463 84v167h-408v113h530v-280h-122z" />
    <glyph glyph-name="uni00AD" unicode="&#xad;" horiz-adv-x="463" 
d="M60 252v112h343v-112h-343z" />
    <glyph glyph-name="registered" unicode="&#xae;" horiz-adv-x="838" 
d="M789 354c0 -54 -9.16797 -103.5 -27.501 -148.5s-44 -83.667 -77 -116s-72.167 -57.666 -117.5 -75.999s-94.666 -27.5 -147.999 -27.5c-54 0 -103.5 9.16699 -148.5 27.5s-84 43.666 -117 75.999s-58.667 71 -77 116s-27.5 94.5 -27.5 148.5
c0 53.333 9.33301 102.5 28 147.5s44.5 83.833 77.5 116.5s72 58.167 117 76.5s94.167 27.5 147.5 27.5c52.667 0 101.667 -9.16699 147 -27.5s84.5 -44 117.5 -77s58.833 -72 77.5 -117s28 -93.833 28 -146.5zM694.999 354c0 40.667 -6.66797 78.168 -20.001 112.501
s-32.166 64 -56.499 89s-53.5 44.667 -87.5 59s-71.333 21.5 -112 21.5c-41.333 0 -78.833 -7.16699 -112.5 -21.5s-62.667 -34 -87 -59s-43.166 -54.667 -56.499 -89s-20 -71.833 -20 -112.5s6.66699 -78.334 20 -113.001s32 -64.5 56 -89.5s53 -44.5 87 -58.5
s71.667 -21 113 -21c40.667 0 78 7.16699 112 21.5s63.167 34 87.5 59s43.166 54.833 56.499 89.5s20 72 20 112zM473.998 178.001l-49.001 119.998h-47v-120h-93v365h145c19.333 0 37.333 -2.66699 54 -8s31.334 -13.166 44.001 -23.499s22.5 -23.166 29.5 -38.499
s10.5 -33.333 10.5 -54c0 -21.333 -4.5 -41.333 -13.5 -60s-23.5 -33 -43.5 -43l60 -138h-97zM473.997 421.999c0 13.333 -4.33301 23 -13 29s-19 9 -31 9h-53v-79h53c13.333 0 24 3.5 32 10.5s12 17.167 12 30.5z" />
    <glyph glyph-name="macron" unicode="&#xaf;" horiz-adv-x="305" 
d="M5 631v100h300v-100h-300z" />
    <glyph glyph-name="degree" unicode="&#xb0;" horiz-adv-x="446" 
d="M396 555c0 -25.333 -4.66699 -48.499 -14 -69.499s-22 -38.833 -38 -53.5s-34.5 -26 -55.5 -34s-43.5 -12 -67.5 -12s-46.333 4.33301 -67 13s-38.667 20.5 -54 35.5s-27.5 32.833 -36.5 53.5s-13.5 43 -13.5 67c0 22.667 3.83301 44.167 11.5 64.5
s18.834 38.166 33.501 53.499s32.667 27.333 54 36s45.333 13 72 13c26 0 49.667 -4.16699 71 -12.5s39.666 -20 54.999 -35s27.333 -32.667 36 -53s13 -42.5 13 -66.5zM298 555.001c0 21.333 -7.5 39.333 -22.5 54s-33.167 22 -54.5 22s-39.166 -7.33301 -53.499 -22
s-21.5 -32.667 -21.5 -54c0 -22 7.16699 -40.5 21.5 -55.5s32.166 -22.5 53.499 -22.5s39.5 7.5 54.5 22.5s22.5 33.5 22.5 55.5z" />
    <glyph glyph-name="plusminus" unicode="&#xb1;" horiz-adv-x="608" 
d="M360 322v-160h-113v160h-197v105h197v160h113v-160h198v-105h-198zM50 0v106h508v-106h-508z" />
    <glyph glyph-name="twosuperior" unicode="&#xb2;" horiz-adv-x="405" 
d="M62 341l-0.00390625 72.999l153 131c8.66699 7.33301 15.834 14.5 21.501 21.5s8.5 16.167 8.5 27.5c0 12 -4 21.833 -12 29.5s-18.333 11.5 -31 11.5c-18.667 0 -31.667 -5.33301 -39 -16s-11.666 -23.667 -12.999 -39h-95c3.33301 44.667 17.666 78.5 42.999 101.5
s60.333 34.5 105 34.5c18.667 0 36.334 -2.66699 53.001 -8s31.334 -13.333 44.001 -24s22.834 -23.5 30.501 -38.5s11.5 -32.5 11.5 -52.5c0 -25.333 -7 -46.666 -21 -63.999s-29.667 -33.333 -47 -48l-64 -53h140v-87h-288z" />
    <glyph glyph-name="threesuperior" unicode="&#xb3;" horiz-adv-x="412" 
d="M357 450c0 -13.333 -1.99805 -25.3359 -5.99805 -36.0029s-9 -20 -15 -28c-14 -19.333 -33 -32.666 -57 -39.999s-49.333 -11 -76 -11c-22.667 0 -44 3.83301 -64 11.5s-36.667 18.5 -50 32.5c-20 20 -31.333 47 -34 81h88
c1.33301 -17.333 8.16602 -29.666 20.499 -36.999s26.166 -11 41.499 -11c6.66699 0 13.5 0.666992 20.5 2s13.5 3.5 19.5 6.5s10.833 7.33301 14.5 13s5.5 12.5 5.5 20.5c0 14 -4.66699 24 -14 30s-22.333 9 -39 9h-27v73h27c12.667 0 23.334 2.5 32.001 7.5
s13 14.5 13 28.5s-5.5 24 -16.5 30s-22.5 9 -34.5 9c-17.333 0 -31.333 -4 -42 -12s-17 -20.667 -19 -38h-87c1.33301 19.333 5.33301 36.333 12 51s15.667 27 27 37c28 24.667 64.333 37 109 37c24.667 0 48.167 -4.33301 70.5 -13s40.166 -21.667 53.499 -39
c6 -8 10.833 -16.167 14.5 -24.5s5.5 -19.166 5.5 -32.499c0 -16.667 -4.83301 -32 -14.5 -46s-22.167 -23.667 -37.5 -29c17.333 -5.33301 31.5 -15.833 42.5 -31.5s16.5 -32.5 16.5 -50.5z" />
    <glyph glyph-name="acute" unicode="&#xb4;" horiz-adv-x="255" 
d="M47 566l-40 65l184 138l56 -91z" />
    <glyph glyph-name="mu" unicode="&#xb5;" horiz-adv-x="598" 
d="M416 0l-10 70.002c-12.667 -25.333 -32.167 -45.5 -58.5 -60.5s-56.166 -22.5 -89.499 -22.5c-10 0 -19.667 0.666992 -29 2s-18.333 4.33301 -27 9v-200h-124v722h124v-321c0 -30.667 6.83301 -54.834 20.5 -72.501s37.167 -26.5 70.5 -26.5
c14.667 0 27.167 2.5 37.5 7.5s19.166 11.167 26.499 18.5c15.333 14 25.5 31.667 30.5 53s7.5 42.666 7.5 63.999v277h125v-520h-104z" />
    <glyph glyph-name="paragraph" unicode="&#xb6;" horiz-adv-x="673" 
d="M545 612v-736.998h-100v737h-97v-737h-99v436c-27.333 0 -53.166 5.16699 -77.499 15.5s-45.5 24.5 -63.5 42.5s-32.167 39.167 -42.5 63.5s-15.5 50.166 -15.5 77.499s5.16699 53.166 15.5 77.499s24.5 45.5 42.5 63.5s39.167 32.167 63.5 42.5s50.166 15.5 77.499 15.5
h364v-97h-68z" />
    <glyph glyph-name="periodcentered" unicode="&#xb7;" horiz-adv-x="315" 
d="M72 215v156h152v-156h-152z" />
    <glyph glyph-name="cedilla" unicode="&#xb8;" horiz-adv-x="198" 
d="M113 -230l-104 49l83 150h97z" />
    <glyph glyph-name="onesuperior" unicode="&#xb9;" horiz-adv-x="312" 
d="M134 344v256l-95 -67v103l105 73h83v-365h-93z" />
    <glyph glyph-name="ordmasculine" unicode="&#xba;" horiz-adv-x="475" 
d="M419 501c0 -29.333 -3.33301 -56 -10 -80s-17.667 -45.333 -33 -64c-13.333 -16.667 -32.166 -31.334 -56.499 -44.001s-51.5 -19 -81.5 -19s-57.333 6.33301 -82 19s-43.667 27.334 -57 44.001c-15.333 18.667 -26.333 40 -33 64s-10 50.667 -10 80s3.5 56.5 10.5 81.5
s18.167 46.833 33.5 65.5c13.333 16.667 32.166 31 56.499 43s51.5 18 81.5 18s57 -6 81 -18s42.667 -26.333 56 -43c15.333 -18.667 26.5 -40.5 33.5 -65.5s10.5 -52.167 10.5 -81.5zM323 501c0 18.667 -1.5 37 -4.5 55s-10.167 33.333 -21.5 46
c-6.66699 7.33301 -14.834 13.333 -24.501 18s-21.167 7 -34.5 7s-25 -2.33301 -35 -7s-18.333 -10.667 -25 -18c-11.333 -12.667 -18.333 -28 -21 -46s-4 -36.333 -4 -55s1.33301 -36.834 4 -54.501s9.66699 -32.834 21 -45.501c6.66699 -7.33301 15 -13.333 25 -18
s21.667 -7 35 -7s24.833 2.33301 34.5 7s17.834 10.667 24.501 18c11.333 12.667 18.5 27.834 21.5 45.501s4.5 35.834 4.5 54.501z" />
    <glyph glyph-name="guillemotright" unicode="&#xbb;" horiz-adv-x="587" 
d="M369 54l-73 51l114 194l-114 194l73 52l173 -247zM128 54l-73 51l114 194l-114 194l73 52l173 -247z" />
    <glyph glyph-name="onequarter" unicode="&#xbc;" horiz-adv-x="883" 
d="M780 71v-71h-90v71h-179v95l116 208h96l-123 -222h90v82h90v-82h48v-81h-48zM211 -20l-74 56l505 687l76 -53zM169 344v256l-95 -67v103l105 73h83v-365h-93z" />
    <glyph glyph-name="onehalf" unicode="&#xbd;" horiz-adv-x="916" 
d="M526 0l-0.00390625 72.999l153 131c8.66699 7.33301 15.834 14.5 21.501 21.5s8.5 16.167 8.5 27.5c0 12 -4 21.833 -12 29.5s-18.333 11.5 -31 11.5c-18.667 0 -31.667 -5.33301 -39 -16s-11.666 -23.667 -12.999 -39h-95c3.33301 44.667 17.666 78.5 42.999 101.5
s60.333 34.5 105 34.5c18.667 0 36.334 -2.66699 53.001 -8s31.334 -13.333 44.001 -24s22.834 -23.5 30.501 -38.5s11.5 -32.5 11.5 -52.5c0 -25.333 -7 -46.666 -21 -63.999s-29.667 -33.333 -47 -48l-64 -53h140v-87h-288zM195.996 -20.001l-74 56l505 687l76 -53z
M163.996 343.999v256l-95 -67v103l105 73h83v-365h-93z" />
    <glyph glyph-name="threequarters" unicode="&#xbe;" horiz-adv-x="920" 
d="M817 71v-71h-90v71h-179v95l116 208h96l-123 -222h90v82h90v-82h48v-81h-48zM262 -20l-74 56l505 687l76 -53zM363 450c0 -13.333 -1.99805 -25.3359 -5.99805 -36.0029s-9 -20 -15 -28c-14 -19.333 -33 -32.666 -57 -39.999s-49.333 -11 -76 -11
c-22.667 0 -44 3.83301 -64 11.5s-36.667 18.5 -50 32.5c-20 20 -31.333 47 -34 81h88c1.33301 -17.333 8.16602 -29.666 20.499 -36.999s26.166 -11 41.499 -11c6.66699 0 13.5 0.666992 20.5 2s13.5 3.5 19.5 6.5s10.833 7.33301 14.5 13s5.5 12.5 5.5 20.5
c0 14 -4.66699 24 -14 30s-22.333 9 -39 9h-27v73h27c12.667 0 23.334 2.5 32.001 7.5s13 14.5 13 28.5s-5.5 24 -16.5 30s-22.5 9 -34.5 9c-17.333 0 -31.333 -4 -42 -12s-17 -20.667 -19 -38h-87c1.33301 19.333 5.33301 36.333 12 51s15.667 27 27 37
c28 24.667 64.333 37 109 37c24.667 0 48.167 -4.33301 70.5 -13s40.166 -21.667 53.499 -39c6 -8 10.833 -16.167 14.5 -24.5s5.5 -19.166 5.5 -32.499c0 -16.667 -4.83301 -32 -14.5 -46s-22.167 -23.667 -37.5 -29c17.333 -5.33301 31.5 -15.833 42.5 -31.5
s16.5 -32.5 16.5 -50.5z" />
    <glyph glyph-name="questiondown" unicode="&#xbf;" horiz-adv-x="522" 
d="M195 364v140h139v-140h-139zM490 -8c0 -35.333 -6.33496 -66.165 -19.002 -92.498s-29.834 -48.5 -51.501 -66.5s-47 -31.5 -76 -40.5s-60.167 -13.5 -93.5 -13.5c-32.667 0 -62.667 5 -90 15s-50.666 23.833 -69.999 41.5s-34.5 38.5 -45.5 62.5s-16.5 49.667 -16.5 77
c0 35.333 7.33301 65.833 22 91.5s33.667 48.167 57 67.5l36.5 29.5c11.667 9 21.834 18.5 30.501 28.5s15.5 21.5 20.5 34.5s7.5 28.833 7.5 47.5v28h124v-23c0 -12.667 -0.333008 -25.334 -1 -38.001s-2 -24.667 -4 -36c-4.66699 -22 -11.5 -40.5 -20.5 -55.5
s-19.333 -28.333 -31 -40s-23.667 -22.167 -36 -31.5s-24.5 -19.333 -36.5 -30c-9.33301 -8.66699 -18.166 -18.834 -26.499 -30.501s-12.5 -25.5 -12.5 -41.5c0 -22 8.16699 -41.5 24.5 -58.5s40.5 -25.5 72.5 -25.5s57.667 8.5 77 25.5s29 41.833 29 74.5h129z" />
    <glyph glyph-name="Agrave" unicode="&#xc0;" horiz-adv-x="639" 
d="M504 0l-46 136h-282l-46 -136h-130l249 709h141l249 -709h-135zM317 551l-101 -299h202zM386 764l-200 112l56 91l184 -138z" />
    <glyph glyph-name="Aacute" unicode="&#xc1;" horiz-adv-x="639" 
d="M504 0l-46 136h-282l-46 -136h-130l249 709h141l249 -709h-135zM317 551l-101 -299h202zM228 764l-40 65l184 138l56 -91z" />
    <glyph glyph-name="Acircumflex" unicode="&#xc2;" horiz-adv-x="639" 
d="M504 0l-46 136h-282l-46 -136h-130l249 709h141l249 -709h-135zM317 551l-101 -299h202zM415 775l-103 113l-105 -116l-64 58l138 145h61l134 -145z" />
    <glyph glyph-name="Atilde" unicode="&#xc3;" horiz-adv-x="639" 
d="M504 0l-46 136h-282l-46 -136h-130l249 709h141l249 -709h-135zM317 551l-101 -299h202zM480 828c-14.667 -14.667 -31.498 -27.667 -50.498 -39s-39.5 -17 -61.5 -17c-13.333 0 -25.333 2 -36 6s-20.834 8.33301 -30.501 13l-27 13c-8.33301 4 -16.5 6 -24.5 6
c-11.333 0 -22.5 -3.16699 -33.5 -9.5s-20.167 -13.5 -27.5 -21.5l-50 61c15.333 14.667 32.166 27.667 50.499 39s38.833 17 61.5 17c12.667 0 24.334 -2 35.001 -6s20.667 -8.5 30 -13.5s18.166 -9.5 26.499 -13.5s17.166 -6 26.499 -6c10.667 0 21.834 3.5 33.501 10.5
s21.167 14.167 28.5 21.5z" />
    <glyph glyph-name="Adieresis" unicode="&#xc4;" horiz-adv-x="639" 
d="M504 0l-46 136h-282l-46 -136h-130l249 709h141l249 -709h-135zM317 551l-101 -299h202zM156 791v121h117v-121h-117zM362 791v121h117v-121h-117z" />
    <glyph glyph-name="Aring" unicode="&#xc5;" horiz-adv-x="639" 
d="M504 0l-46.002 136h-282l-46 -136h-130l235 669c-13.333 11.333 -24 25.333 -32 42s-12 34.667 -12 54c0 18 3.33301 34.667 10 50s15.834 28.666 27.501 39.999s25.167 20.333 40.5 27s32 10 50 10s34.667 -3.33301 50 -10s28.833 -15.667 40.5 -27
s20.834 -24.666 27.501 -39.999s10 -32 10 -50c0 -19.333 -3.83301 -37.333 -11.5 -54s-18.167 -30.667 -31.5 -42l235 -669h-135zM374.998 765c0 15.333 -5.5 28.333 -16.5 39s-24.167 16 -39.5 16s-28.166 -5.33301 -38.499 -16s-15.5 -23.667 -15.5 -39
s5.16699 -28.5 15.5 -39.5s23.166 -16.5 38.499 -16.5s28.5 5.5 39.5 16.5s16.5 24.167 16.5 39.5zM316.998 551l-101 -299h202z" />
    <glyph glyph-name="AE" unicode="&#xc6;" horiz-adv-x="957" 
d="M455 0v179h-237l-77 -179h-141l323 709h594v-120h-333v-160h285v-120h-285v-189h333v-120h-462zM455 589h-55l-128 -291h183v291z" />
    <glyph glyph-name="Ccedilla" unicode="&#xc7;" horiz-adv-x="628" 
d="M600 226c-3.33301 -28 -10.3359 -55.498 -21.0029 -82.498s-26.334 -51.167 -47.001 -72.5c-26.667 -27.333 -57.667 -48.166 -93 -62.499s-72 -21.5 -110 -21.5s-74.167 6.33301 -108.5 19s-65.166 32.667 -92.499 60c-19.333 19.333 -34.833 39.666 -46.5 60.999
s-20.5 44 -26.5 68s-10 49.167 -12 75.5s-3 54.166 -3 83.499c0 28.667 1 56.334 3 83.001s6 52 12 76s14.833 46.667 26.5 68s27.167 41.666 46.5 60.999c27.333 27.333 58.166 47.5 92.499 60.5s70.5 19.5 108.5 19.5s74.667 -6.83301 110 -20.5s66.333 -34.167 93 -61.5
c20.667 -21.333 36.334 -45.333 47.001 -72s17.667 -54 21 -82h-132c-1.33301 15.333 -4.66602 28.833 -9.99902 40.5s-12.666 23.167 -21.999 34.5c-11.333 14.667 -26.5 25.667 -45.5 33s-39.5 11 -61.5 11c-20.667 0 -40.5 -4 -59.5 -12s-35.5 -19.667 -49.5 -35
c-12 -12.667 -21.333 -27.334 -28 -44.001s-11.5 -34.167 -14.5 -52.5s-4.83301 -36.833 -5.5 -55.5s-1 -36 -1 -52s0.333008 -33.333 1 -52s2.5 -37.167 5.5 -55.5s7.83301 -35.833 14.5 -52.5s16 -31.334 28 -44.001c14 -15.333 30.5 -27 49.5 -35s38.833 -12 59.5 -12
c22 0 42.5 3.83301 61.5 11.5s34.167 18.834 45.5 33.501c18.667 22.667 29.334 48.667 32.001 78h132zM321.997 -239.998l-104 49l83 150h97z" />
    <glyph glyph-name="Egrave" unicode="&#xc8;" horiz-adv-x="628" 
d="M83 0v709h505v-117h-376v-165h331v-116h-331v-194h376v-117h-505zM405 765l-200 112l56 91l184 -138z" />
    <glyph glyph-name="Eacute" unicode="&#xc9;" horiz-adv-x="628" 
d="M83 0v709h505v-117h-376v-165h331v-116h-331v-194h376v-117h-505zM251 764l-40 65l184 138l56 -91z" />
    <glyph glyph-name="Ecircumflex" unicode="&#xca;" horiz-adv-x="628" 
d="M83 0v709h505v-117h-376v-165h331v-116h-331v-194h376v-117h-505zM437 775l-103 113l-105 -116l-64 58l138 145h61l134 -145z" />
    <glyph glyph-name="Edieresis" unicode="&#xcb;" horiz-adv-x="628" 
d="M83 0v709h505v-117h-376v-165h331v-116h-331v-194h376v-117h-505zM186 791v121h117v-121h-117zM392 791v121h117v-121h-117z" />
    <glyph glyph-name="Igrave" unicode="&#xcc;" horiz-adv-x="297" 
d="M83 0v709h131v-709h-131zM225 770l-200 112l56 91l184 -138z" />
    <glyph glyph-name="Iacute" unicode="&#xcd;" horiz-adv-x="297" 
d="M83 0v709h131v-709h-131zM69 769l-40 65l184 138l56 -91z" />
    <glyph glyph-name="Icircumflex" unicode="&#xce;" horiz-adv-x="297" 
d="M83 0v709h131v-709h-131zM253 775l-103 113l-105 -116l-64 58l138 145h61l134 -145z" />
    <glyph glyph-name="Idieresis" unicode="&#xcf;" horiz-adv-x="297" 
d="M83 0v709h131v-709h-131zM-12 791v121h117v-121h-117zM194 791v121h117v-121h-117z" />
    <glyph glyph-name="Eth" unicode="&#xd0;" horiz-adv-x="684" 
d="M641 355c0 -24.667 -0.833008 -49.5 -2.5 -74.5s-5.5 -49.5 -11.5 -73.5s-14.5 -47.167 -25.5 -69.5s-25.5 -42.833 -43.5 -61.5c-23.333 -24.667 -52.166 -43.5 -86.499 -56.5s-71.833 -19.5 -112.5 -19.5h-276v326h-63v84h63v299h276c40.667 0 78.167 -6.5 112.5 -19.5
s63.166 -31.833 86.499 -56.5c18 -18.667 32.5 -39 43.5 -61s19.5 -45 25.5 -69s9.83301 -48.5 11.5 -73.5s2.5 -49.833 2.5 -74.5zM510 355c0 16 -0.333008 33 -1 51s-2.66699 35.833 -6 53.5s-8.33301 34.5 -15 50.5s-16.334 30.333 -29.001 43
c-12 12 -26.5 21.667 -43.5 29s-35.833 11 -56.5 11h-147v-183h131v-84h-131v-210h147c20.667 0 39.5 3.66699 56.5 11s31.5 17 43.5 29c12.667 12.667 22.334 27 29.001 43s11.667 32.833 15 50.5s5.33301 35.667 6 54s1 35.5 1 51.5z" />
    <glyph glyph-name="Ntilde" unicode="&#xd1;" horiz-adv-x="733" 
d="M517 0l-307 487v-487h-127v709h137l303 -480v480h127v-709h-133zM528 848c-14.667 -14.667 -31.498 -27.667 -50.498 -39s-39.5 -17 -61.5 -17c-13.333 0 -25.333 2 -36 6s-20.834 8.33301 -30.501 13l-27 13c-8.33301 4 -16.5 6 -24.5 6
c-11.333 0 -22.5 -3.16699 -33.5 -9.5s-20.167 -13.5 -27.5 -21.5l-50 61c15.333 14.667 32.166 27.667 50.499 39s38.833 17 61.5 17c12.667 0 24.334 -2 35.001 -6s20.667 -8.5 30 -13.5s18.166 -9.5 26.499 -13.5s17.166 -6 26.499 -6c10.667 0 21.834 3.5 33.501 10.5
s21.167 14.167 28.5 21.5z" />
    <glyph glyph-name="Ograve" unicode="&#xd2;" horiz-adv-x="672" 
d="M630 354c0 -29.333 -1 -57 -3 -83s-6.33301 -51 -13 -75s-15.834 -46.667 -27.501 -68s-27.167 -41.666 -46.5 -60.999c-27.333 -27.333 -58.666 -47.5 -93.999 -60.5s-72 -19.5 -110 -19.5s-74.667 6.5 -110 19.5s-66.666 33.167 -93.999 60.5
c-19.333 19.333 -34.833 39.666 -46.5 60.999s-20.834 44 -27.501 68s-11 49 -13 75s-3 53.667 -3 83c0 28.667 1 56.334 3 83.001s6.33301 52 13 76s15.834 46.667 27.501 68s27.167 41.666 46.5 60.999c27.333 27.333 58.666 47.5 93.999 60.5s72 19.5 110 19.5
s74.667 -6.5 110 -19.5s66.666 -33.167 93.999 -60.5c19.333 -19.333 34.833 -39.666 46.5 -60.999s20.834 -44 27.501 -68s11 -49.333 13 -76s3 -54.334 3 -83.001zM499 354c0 16 -0.333008 33.333 -1 52s-2.66699 37.167 -6 55.5s-8.5 35.833 -15.5 52.5
s-16.5 31.334 -28.5 44.001c-14 15.333 -31 27 -51 35s-40.333 12 -61 12s-41 -4 -61 -12s-37 -19.667 -51 -35c-12 -12.667 -21.5 -27.334 -28.5 -44.001s-12.167 -34.167 -15.5 -52.5s-5.33301 -36.833 -6 -55.5s-1 -36 -1 -52s0.333008 -33.333 1 -52s2.66699 -37 6 -55
s8.5 -35.333 15.5 -52s16.5 -31.334 28.5 -44.001c14 -15.333 31 -27 51 -35s40.333 -12 61 -12s41 4 61 12s37 19.667 51 35c12 12.667 21.5 27.334 28.5 44.001s12.167 34 15.5 52s5.33301 36.333 6 55s1 36 1 52zM411 765l-200 112l56 91l184 -138z" />
    <glyph glyph-name="Oacute" unicode="&#xd3;" horiz-adv-x="672" 
d="M630 354c0 -29.333 -1 -57 -3 -83s-6.33301 -51 -13 -75s-15.834 -46.667 -27.501 -68s-27.167 -41.666 -46.5 -60.999c-27.333 -27.333 -58.666 -47.5 -93.999 -60.5s-72 -19.5 -110 -19.5s-74.667 6.5 -110 19.5s-66.666 33.167 -93.999 60.5
c-19.333 19.333 -34.833 39.666 -46.5 60.999s-20.834 44 -27.501 68s-11 49 -13 75s-3 53.667 -3 83c0 28.667 1 56.334 3 83.001s6.33301 52 13 76s15.834 46.667 27.501 68s27.167 41.666 46.5 60.999c27.333 27.333 58.666 47.5 93.999 60.5s72 19.5 110 19.5
s74.667 -6.5 110 -19.5s66.666 -33.167 93.999 -60.5c19.333 -19.333 34.833 -39.666 46.5 -60.999s20.834 -44 27.501 -68s11 -49.333 13 -76s3 -54.334 3 -83.001zM499 354c0 16 -0.333008 33.333 -1 52s-2.66699 37.167 -6 55.5s-8.5 35.833 -15.5 52.5
s-16.5 31.334 -28.5 44.001c-14 15.333 -31 27 -51 35s-40.333 12 -61 12s-41 -4 -61 -12s-37 -19.667 -51 -35c-12 -12.667 -21.5 -27.334 -28.5 -44.001s-12.167 -34.167 -15.5 -52.5s-5.33301 -36.833 -6 -55.5s-1 -36 -1 -52s0.333008 -33.333 1 -52s2.66699 -37 6 -55
s8.5 -35.333 15.5 -52s16.5 -31.334 28.5 -44.001c14 -15.333 31 -27 51 -35s40.333 -12 61 -12s41 4 61 12s37 19.667 51 35c12 12.667 21.5 27.334 28.5 44.001s12.167 34 15.5 52s5.33301 36.333 6 55s1 36 1 52zM245 764l-40 65l184 138l56 -91z" />
    <glyph glyph-name="Ocircumflex" unicode="&#xd4;" horiz-adv-x="672" 
d="M630 354c0 -29.333 -1 -57 -3 -83s-6.33301 -51 -13 -75s-15.834 -46.667 -27.501 -68s-27.167 -41.666 -46.5 -60.999c-27.333 -27.333 -58.666 -47.5 -93.999 -60.5s-72 -19.5 -110 -19.5s-74.667 6.5 -110 19.5s-66.666 33.167 -93.999 60.5
c-19.333 19.333 -34.833 39.666 -46.5 60.999s-20.834 44 -27.501 68s-11 49 -13 75s-3 53.667 -3 83c0 28.667 1 56.334 3 83.001s6.33301 52 13 76s15.834 46.667 27.501 68s27.167 41.666 46.5 60.999c27.333 27.333 58.666 47.5 93.999 60.5s72 19.5 110 19.5
s74.667 -6.5 110 -19.5s66.666 -33.167 93.999 -60.5c19.333 -19.333 34.833 -39.666 46.5 -60.999s20.834 -44 27.501 -68s11 -49.333 13 -76s3 -54.334 3 -83.001zM499 354c0 16 -0.333008 33.333 -1 52s-2.66699 37.167 -6 55.5s-8.5 35.833 -15.5 52.5
s-16.5 31.334 -28.5 44.001c-14 15.333 -31 27 -51 35s-40.333 12 -61 12s-41 -4 -61 -12s-37 -19.667 -51 -35c-12 -12.667 -21.5 -27.334 -28.5 -44.001s-12.167 -34.167 -15.5 -52.5s-5.33301 -36.833 -6 -55.5s-1 -36 -1 -52s0.333008 -33.333 1 -52s2.66699 -37 6 -55
s8.5 -35.333 15.5 -52s16.5 -31.334 28.5 -44.001c14 -15.333 31 -27 51 -35s40.333 -12 61 -12s41 4 61 12s37 19.667 51 35c12 12.667 21.5 27.334 28.5 44.001s12.167 34 15.5 52s5.33301 36.333 6 55s1 36 1 52zM443 775l-103 113l-105 -116l-64 58l138 145h61l134 -145
z" />
    <glyph glyph-name="Otilde" unicode="&#xd5;" horiz-adv-x="672" 
d="M630 354c0 -29.333 -1 -57 -3 -83s-6.33301 -51 -13 -75s-15.834 -46.667 -27.501 -68s-27.167 -41.666 -46.5 -60.999c-27.333 -27.333 -58.666 -47.5 -93.999 -60.5s-72 -19.5 -110 -19.5s-74.667 6.5 -110 19.5s-66.666 33.167 -93.999 60.5
c-19.333 19.333 -34.833 39.666 -46.5 60.999s-20.834 44 -27.501 68s-11 49 -13 75s-3 53.667 -3 83c0 28.667 1 56.334 3 83.001s6.33301 52 13 76s15.834 46.667 27.501 68s27.167 41.666 46.5 60.999c27.333 27.333 58.666 47.5 93.999 60.5s72 19.5 110 19.5
s74.667 -6.5 110 -19.5s66.666 -33.167 93.999 -60.5c19.333 -19.333 34.833 -39.666 46.5 -60.999s20.834 -44 27.501 -68s11 -49.333 13 -76s3 -54.334 3 -83.001zM499 354c0 16 -0.333008 33.333 -1 52s-2.66699 37.167 -6 55.5s-8.5 35.833 -15.5 52.5
s-16.5 31.334 -28.5 44.001c-14 15.333 -31 27 -51 35s-40.333 12 -61 12s-41 -4 -61 -12s-37 -19.667 -51 -35c-12 -12.667 -21.5 -27.334 -28.5 -44.001s-12.167 -34.167 -15.5 -52.5s-5.33301 -36.833 -6 -55.5s-1 -36 -1 -52s0.333008 -33.333 1 -52s2.66699 -37 6 -55
s8.5 -35.333 15.5 -52s16.5 -31.334 28.5 -44.001c14 -15.333 31 -27 51 -35s40.333 -12 61 -12s41 4 61 12s37 19.667 51 35c12 12.667 21.5 27.334 28.5 44.001s12.167 34 15.5 52s5.33301 36.333 6 55s1 36 1 52zM507 834c-14.667 -14.667 -31.498 -27.667 -50.498 -39
s-39.5 -17 -61.5 -17c-13.333 0 -25.333 2 -36 6s-20.834 8.33301 -30.501 13l-27 13c-8.33301 4 -16.5 6 -24.5 6c-11.333 0 -22.5 -3.16699 -33.5 -9.5s-20.167 -13.5 -27.5 -21.5l-50 61c15.333 14.667 32.166 27.667 50.499 39s38.833 17 61.5 17
c12.667 0 24.334 -2 35.001 -6s20.667 -8.5 30 -13.5s18.166 -9.5 26.499 -13.5s17.166 -6 26.499 -6c10.667 0 21.834 3.5 33.501 10.5s21.167 14.167 28.5 21.5z" />
    <glyph glyph-name="Odieresis" unicode="&#xd6;" horiz-adv-x="672" 
d="M630 354c0 -29.333 -1 -57 -3 -83s-6.33301 -51 -13 -75s-15.834 -46.667 -27.501 -68s-27.167 -41.666 -46.5 -60.999c-27.333 -27.333 -58.666 -47.5 -93.999 -60.5s-72 -19.5 -110 -19.5s-74.667 6.5 -110 19.5s-66.666 33.167 -93.999 60.5
c-19.333 19.333 -34.833 39.666 -46.5 60.999s-20.834 44 -27.501 68s-11 49 -13 75s-3 53.667 -3 83c0 28.667 1 56.334 3 83.001s6.33301 52 13 76s15.834 46.667 27.501 68s27.167 41.666 46.5 60.999c27.333 27.333 58.666 47.5 93.999 60.5s72 19.5 110 19.5
s74.667 -6.5 110 -19.5s66.666 -33.167 93.999 -60.5c19.333 -19.333 34.833 -39.666 46.5 -60.999s20.834 -44 27.501 -68s11 -49.333 13 -76s3 -54.334 3 -83.001zM499 354c0 16 -0.333008 33.333 -1 52s-2.66699 37.167 -6 55.5s-8.5 35.833 -15.5 52.5
s-16.5 31.334 -28.5 44.001c-14 15.333 -31 27 -51 35s-40.333 12 -61 12s-41 -4 -61 -12s-37 -19.667 -51 -35c-12 -12.667 -21.5 -27.334 -28.5 -44.001s-12.167 -34.167 -15.5 -52.5s-5.33301 -36.833 -6 -55.5s-1 -36 -1 -52s0.333008 -33.333 1 -52s2.66699 -37 6 -55
s8.5 -35.333 15.5 -52s16.5 -31.334 28.5 -44.001c14 -15.333 31 -27 51 -35s40.333 -12 61 -12s41 4 61 12s37 19.667 51 35c12 12.667 21.5 27.334 28.5 44.001s12.167 34 15.5 52s5.33301 36.333 6 55s1 36 1 52zM175 793v121h117v-121h-117zM381 793v121h117v-121h-117z
" />
    <glyph glyph-name="multiply" unicode="&#xd7;" horiz-adv-x="687" 
d="M343 225l-208 -208l-72 72l208 208l-208 208l72 72l208 -207l208 207l73 -72l-208 -208l208 -208l-73 -72z" />
    <glyph glyph-name="Oslash" unicode="&#xd8;" horiz-adv-x="672" 
d="M630 354c0 -29.333 -1 -57 -3 -83s-6.33301 -51 -13 -75s-15.834 -46.667 -27.501 -68s-27.167 -41.666 -46.5 -60.999c-27.333 -27.333 -58.666 -47.5 -93.999 -60.5s-72 -19.5 -110 -19.5c-44.667 0 -86 8.33301 -124 25l-40 -84l-67 30l43 94
c-3.33301 2.66699 -6.16602 5.16699 -8.49902 7.5l-7.5 7.5c-19.333 19.333 -34.833 39.666 -46.5 60.999s-20.834 44 -27.501 68s-11 49 -13 75s-3 53.667 -3 83c0 28.667 1 56.334 3 83.001s6.33301 52 13 76s15.834 46.667 27.501 68s27.167 41.666 46.5 60.999
c27.333 27.333 58.666 47.5 93.999 60.5s72 19.5 110 19.5c41.333 0 79.666 -7.33301 114.999 -22l33 70l67 -30l-35 -76l12 -10.5l12 -11.5c19.333 -19.333 34.833 -39.666 46.5 -60.999s20.834 -44 27.501 -68s11 -49.333 13 -76s3 -54.334 3 -83.001zM499 354
c0 14.667 -0.334961 30.332 -1.00195 46.999s-2.16699 33.5 -4.5 50.5s-6.16602 33.333 -11.499 49s-12.666 30.167 -21.999 43.5l-197 -422c22.667 -12 47 -18 73 -18c20.667 0 41 4 61 12s37 19.667 51 35c12 12.667 21.5 27.334 28.5 44.001s12.167 34 15.5 52
s5.33301 36.333 6 55s1 36 1 52zM399.998 590.998c-20.667 9.33301 -41.999 14.001 -63.999 14.001c-20.667 0 -41 -4 -61 -12s-37 -19.667 -51 -35c-12 -12.667 -21.5 -27.334 -28.5 -44.001s-12.167 -34.167 -15.5 -52.5s-5.33301 -36.833 -6 -55.5s-1 -36 -1 -52
c0 -28 1.66699 -58.333 5 -91s12.666 -62 27.999 -88z" />
    <glyph glyph-name="Ugrave" unicode="&#xd9;" horiz-adv-x="682" 
d="M619 272c0 -42 -5.83301 -80.5 -17.5 -115.5s-29.167 -65 -52.5 -90s-52.333 -44.5 -87 -58.5s-75 -21 -121 -21s-86.333 7 -121 21s-63.667 33.5 -87 58.5s-40.833 55 -52.5 90s-17.5 73.5 -17.5 115.5v437h129v-435c0 -50.667 12 -91.667 36 -123s61.667 -47 113 -47
s89 15.667 113 47s36 72.333 36 123v435h129v-437zM408 770l-200 112l56 91l184 -138z" />
    <glyph glyph-name="Uacute" unicode="&#xda;" horiz-adv-x="682" 
d="M619 272c0 -42 -5.83301 -80.5 -17.5 -115.5s-29.167 -65 -52.5 -90s-52.333 -44.5 -87 -58.5s-75 -21 -121 -21s-86.333 7 -121 21s-63.667 33.5 -87 58.5s-40.833 55 -52.5 90s-17.5 73.5 -17.5 115.5v437h129v-435c0 -50.667 12 -91.667 36 -123s61.667 -47 113 -47
s89 15.667 113 47s36 72.333 36 123v435h129v-437zM271 769l-40 65l184 138l56 -91z" />
    <glyph glyph-name="Ucircumflex" unicode="&#xdb;" horiz-adv-x="682" 
d="M619 272c0 -42 -5.83301 -80.5 -17.5 -115.5s-29.167 -65 -52.5 -90s-52.333 -44.5 -87 -58.5s-75 -21 -121 -21s-86.333 7 -121 21s-63.667 33.5 -87 58.5s-40.833 55 -52.5 90s-17.5 73.5 -17.5 115.5v437h129v-435c0 -50.667 12 -91.667 36 -123s61.667 -47 113 -47
s89 15.667 113 47s36 72.333 36 123v435h129v-437zM448 775l-103 113l-105 -116l-64 58l138 145h61l134 -145z" />
    <glyph glyph-name="Udieresis" unicode="&#xdc;" horiz-adv-x="682" 
d="M619 272c0 -42 -5.83301 -80.5 -17.5 -115.5s-29.167 -65 -52.5 -90s-52.333 -44.5 -87 -58.5s-75 -21 -121 -21s-86.333 7 -121 21s-63.667 33.5 -87 58.5s-40.833 55 -52.5 90s-17.5 73.5 -17.5 115.5v437h129v-435c0 -50.667 12 -91.667 36 -123s61.667 -47 113 -47
s89 15.667 113 47s36 72.333 36 123v435h129v-437zM179 792v121h117v-121h-117zM385 792v121h117v-121h-117z" />
    <glyph glyph-name="Yacute" unicode="&#xdd;" horiz-adv-x="624" 
d="M376 272v-272h-130v272l-246 437h140l175 -306l175 306h134zM233 764l-40 65l184 138l56 -91z" />
    <glyph glyph-name="Thorn" unicode="&#xde;" horiz-adv-x="594" 
d="M581 364c0 -72 -20.5 -128.667 -61.5 -170s-102.167 -62 -183.5 -62h-125v-132h-128v709h128v-119h125c81.333 0 142.5 -20.667 183.5 -62s61.5 -96 61.5 -164zM451 363c0 34 -9.16797 61.5 -27.501 82.5s-49.166 31.5 -92.499 31.5h-120v-233h120c44 0 75 10.333 93 31
s27 50 27 88z" />
    <glyph glyph-name="germandbls" unicode="&#xdf;" horiz-adv-x="609" 
d="M584 211c0 -32 -5.16504 -61.4971 -15.498 -88.4971s-24.833 -50.333 -43.5 -70s-41.334 -35 -68.001 -46s-56.334 -16.5 -89.001 -16.5c-15.333 0 -31.166 0.833008 -47.499 2.5s-31.833 4.16699 -46.5 7.5v109c10.667 -2 21.834 -3.5 33.501 -4.5
s22.834 -1.5 33.501 -1.5c37.333 0 66.166 11.167 86.499 33.5s30.5 51.5 30.5 87.5c0 44 -12.667 75.5 -38 94.5s-58 28.5 -98 28.5h-21v104h21c27.333 0 48.666 7.5 63.999 22.5s23 35.5 23 61.5c0 27.333 -8 49 -24 65s-37.667 24 -65 24
c-18.667 0 -34.334 -3 -47.001 -9s-22.834 -14.333 -30.501 -25s-13.167 -23.334 -16.5 -38.001s-5 -30.667 -5 -48v-504h-123v417h-83v103h85c0.666992 33.333 6.66699 63.166 18 89.499s26.833 48.5 46.5 66.5s42.834 31.833 69.501 41.5s56 14.5 88 14.5
c30 0 58 -4.33301 84 -13s48.5 -21.167 67.5 -37.5s34 -36 45 -59s16.5 -48.5 16.5 -76.5c0 -15.333 -2.16699 -30.333 -6.5 -45s-10.5 -28.5 -18.5 -41.5s-18 -24.333 -30 -34s-25.333 -16.834 -40 -21.501c23.333 -5.33301 44 -14 62 -26s33 -26.5 45 -43.5
s21.167 -36.167 27.5 -57.5s9.5 -43.333 9.5 -66z" />
    <glyph glyph-name="agrave" unicode="&#xe0;" horiz-adv-x="562" 
d="M531 6c-10.667 -4.66699 -19.835 -8.16797 -27.502 -10.501s-19.167 -3.5 -34.5 -3.5c-27.333 0 -48.333 7.33301 -63 22s-23 31.667 -25 51c-12 -21.333 -32 -39.666 -60 -54.999s-60.667 -23 -98 -23c-31.333 0 -58.666 4.5 -81.999 13.5s-42.833 21 -58.5 36
s-27.5 32.333 -35.5 52s-12 40.167 -12 61.5c0 24.667 4.5 46.667 13.5 66s21.5 36 37.5 50s34.667 24.833 56 32.5s44.333 12.5 69 14.5l153 11v32c0 24.667 -5.83301 44.5 -17.5 59.5s-35.167 22.5 -70.5 22.5c-29.333 0 -52.166 -6.33301 -68.499 -19
s-25.166 -31 -26.499 -55h-121c2 29.333 8.83301 54.666 20.5 75.999s27.167 38.833 46.5 52.5s41.666 23.834 66.999 30.501s52.666 10 81.999 10c44.667 0 84.5 -7.83301 119.5 -23.5s60.167 -43.167 75.5 -82.5c6.66699 -16.667 10.834 -34 12.501 -52
s2.5 -35.667 2.5 -53v-193c0 -12 2.16699 -20.5 6.5 -25.5s11.833 -7.5 22.5 -7.5c5.33301 0 9 0.333008 11 1c2 0 3.66699 0.333008 5 1v-92zM363.999 230.999l-132.001 -10.002c-19.333 -1.33301 -36.666 -7.66602 -51.999 -18.999s-23 -27.666 -23 -48.999
c0 -20 7.5 -35.833 22.5 -47.5s32.167 -17.5 51.5 -17.5c39.333 0 71.333 10.167 96 30.5s37 49.833 37 88.5v24zM156.998 677.997l56 91l184 -138l-40 -65z" />
    <glyph glyph-name="aacute" unicode="&#xe1;" horiz-adv-x="562" 
d="M531 6c-10.667 -4.66699 -19.835 -8.16797 -27.502 -10.501s-19.167 -3.5 -34.5 -3.5c-27.333 0 -48.333 7.33301 -63 22s-23 31.667 -25 51c-12 -21.333 -32 -39.666 -60 -54.999s-60.667 -23 -98 -23c-31.333 0 -58.666 4.5 -81.999 13.5s-42.833 21 -58.5 36
s-27.5 32.333 -35.5 52s-12 40.167 -12 61.5c0 24.667 4.5 46.667 13.5 66s21.5 36 37.5 50s34.667 24.833 56 32.5s44.333 12.5 69 14.5l153 11v32c0 24.667 -5.83301 44.5 -17.5 59.5s-35.167 22.5 -70.5 22.5c-29.333 0 -52.166 -6.33301 -68.499 -19
s-25.166 -31 -26.499 -55h-121c2 29.333 8.83301 54.666 20.5 75.999s27.167 38.833 46.5 52.5s41.666 23.834 66.999 30.501s52.666 10 81.999 10c44.667 0 84.5 -7.83301 119.5 -23.5s60.167 -43.167 75.5 -82.5c6.66699 -16.667 10.834 -34 12.501 -52
s2.5 -35.667 2.5 -53v-193c0 -12 2.16699 -20.5 6.5 -25.5s11.833 -7.5 22.5 -7.5c5.33301 0 9 0.333008 11 1c2 0 3.66699 0.333008 5 1v-92zM363.999 230.999l-132.001 -10.002c-19.333 -1.33301 -36.666 -7.66602 -51.999 -18.999s-23 -27.666 -23 -48.999
c0 -20 7.5 -35.833 22.5 -47.5s32.167 -17.5 51.5 -17.5c39.333 0 71.333 10.167 96 30.5s37 49.833 37 88.5v24zM181.998 565.997l-40 65l184 138l56 -91z" />
    <glyph glyph-name="acircumflex" unicode="&#xe2;" horiz-adv-x="562" 
d="M531 6c-10.667 -4.66699 -19.835 -8.16797 -27.502 -10.501s-19.167 -3.5 -34.5 -3.5c-27.333 0 -48.333 7.33301 -63 22s-23 31.667 -25 51c-12 -21.333 -32 -39.666 -60 -54.999s-60.667 -23 -98 -23c-31.333 0 -58.666 4.5 -81.999 13.5s-42.833 21 -58.5 36
s-27.5 32.333 -35.5 52s-12 40.167 -12 61.5c0 24.667 4.5 46.667 13.5 66s21.5 36 37.5 50s34.667 24.833 56 32.5s44.333 12.5 69 14.5l153 11v32c0 24.667 -5.83301 44.5 -17.5 59.5s-35.167 22.5 -70.5 22.5c-29.333 0 -52.166 -6.33301 -68.499 -19
s-25.166 -31 -26.499 -55h-121c2 29.333 8.83301 54.666 20.5 75.999s27.167 38.833 46.5 52.5s41.666 23.834 66.999 30.501s52.666 10 81.999 10c44.667 0 84.5 -7.83301 119.5 -23.5s60.167 -43.167 75.5 -82.5c6.66699 -16.667 10.834 -34 12.501 -52
s2.5 -35.667 2.5 -53v-193c0 -12 2.16699 -20.5 6.5 -25.5s11.833 -7.5 22.5 -7.5c5.33301 0 9 0.333008 11 1c2 0 3.66699 0.333008 5 1v-92zM363.999 230.999l-132.001 -10.002c-19.333 -1.33301 -36.666 -7.66602 -51.999 -18.999s-23 -27.666 -23 -48.999
c0 -20 7.5 -35.833 22.5 -47.5s32.167 -17.5 51.5 -17.5c39.333 0 71.333 10.167 96 30.5s37 49.833 37 88.5v24zM375.998 573.997l-103 113l-105 -116l-64 58l138 145h61l134 -145z" />
    <glyph glyph-name="atilde" unicode="&#xe3;" horiz-adv-x="562" 
d="M531 6c-10.667 -4.66699 -19.835 -8.16797 -27.502 -10.501s-19.167 -3.5 -34.5 -3.5c-27.333 0 -48.333 7.33301 -63 22s-23 31.667 -25 51c-12 -21.333 -32 -39.666 -60 -54.999s-60.667 -23 -98 -23c-31.333 0 -58.666 4.5 -81.999 13.5s-42.833 21 -58.5 36
s-27.5 32.333 -35.5 52s-12 40.167 -12 61.5c0 24.667 4.5 46.667 13.5 66s21.5 36 37.5 50s34.667 24.833 56 32.5s44.333 12.5 69 14.5l153 11v32c0 24.667 -5.83301 44.5 -17.5 59.5s-35.167 22.5 -70.5 22.5c-29.333 0 -52.166 -6.33301 -68.499 -19
s-25.166 -31 -26.499 -55h-121c2 29.333 8.83301 54.666 20.5 75.999s27.167 38.833 46.5 52.5s41.666 23.834 66.999 30.501s52.666 10 81.999 10c44.667 0 84.5 -7.83301 119.5 -23.5s60.167 -43.167 75.5 -82.5c6.66699 -16.667 10.834 -34 12.501 -52
s2.5 -35.667 2.5 -53v-193c0 -12 2.16699 -20.5 6.5 -25.5s11.833 -7.5 22.5 -7.5c5.33301 0 9 0.333008 11 1c2 0 3.66699 0.333008 5 1v-92zM363.999 230.999l-132.001 -10.002c-19.333 -1.33301 -36.666 -7.66602 -51.999 -18.999s-23 -27.666 -23 -48.999
c0 -20 7.5 -35.833 22.5 -47.5s32.167 -17.5 51.5 -17.5c39.333 0 71.333 10.167 96 30.5s37 49.833 37 88.5v24zM442.998 670.997c-14.667 -15.333 -31.5 -28.8311 -50.5 -40.498s-39.5 -17.5 -61.5 -17.5c-13.333 0 -25.5 2 -36.5 6s-21.167 8.5 -30.5 13.5l-27 14
c-8.66699 4.33301 -17 6.5 -25 6.5c-11.333 0 -22.5 -3.33301 -33.5 -10s-20.5 -14.334 -28.5 -23.001l-50 63c15.333 15.333 32.333 29 51 41s39.334 18 62.001 18c13.333 0 25.333 -2.16699 36 -6.5s20.5 -9 29.5 -14s17.833 -9.66699 26.5 -14s17.667 -6.5 27 -6.5
c10.667 0 21.667 3.66699 33 11s20.666 14.666 27.999 21.999z" />
    <glyph glyph-name="adieresis" unicode="&#xe4;" horiz-adv-x="562" 
d="M531 6c-10.667 -4.66699 -19.835 -8.16797 -27.502 -10.501s-19.167 -3.5 -34.5 -3.5c-27.333 0 -48.333 7.33301 -63 22s-23 31.667 -25 51c-12 -21.333 -32 -39.666 -60 -54.999s-60.667 -23 -98 -23c-31.333 0 -58.666 4.5 -81.999 13.5s-42.833 21 -58.5 36
s-27.5 32.333 -35.5 52s-12 40.167 -12 61.5c0 24.667 4.5 46.667 13.5 66s21.5 36 37.5 50s34.667 24.833 56 32.5s44.333 12.5 69 14.5l153 11v32c0 24.667 -5.83301 44.5 -17.5 59.5s-35.167 22.5 -70.5 22.5c-29.333 0 -52.166 -6.33301 -68.499 -19
s-25.166 -31 -26.499 -55h-121c2 29.333 8.83301 54.666 20.5 75.999s27.167 38.833 46.5 52.5s41.666 23.834 66.999 30.501s52.666 10 81.999 10c44.667 0 84.5 -7.83301 119.5 -23.5s60.167 -43.167 75.5 -82.5c6.66699 -16.667 10.834 -34 12.501 -52
s2.5 -35.667 2.5 -53v-193c0 -12 2.16699 -20.5 6.5 -25.5s11.833 -7.5 22.5 -7.5c5.33301 0 9 0.333008 11 1c2 0 3.66699 0.333008 5 1v-92zM363.999 230.999l-132.001 -10.002c-19.333 -1.33301 -36.666 -7.66602 -51.999 -18.999s-23 -27.666 -23 -48.999
c0 -20 7.5 -35.833 22.5 -47.5s32.167 -17.5 51.5 -17.5c39.333 0 71.333 10.167 96 30.5s37 49.833 37 88.5v24zM118.998 600.997v121h117v-121h-117zM324.998 600.997v121h117v-121h-117z" />
    <glyph glyph-name="aring" unicode="&#xe5;" horiz-adv-x="562" 
d="M531 6c-10.667 -4.66699 -19.835 -8.16797 -27.502 -10.501s-19.167 -3.5 -34.5 -3.5c-27.333 0 -48.333 7.33301 -63 22s-23 31.667 -25 51c-12 -21.333 -32 -39.666 -60 -54.999s-60.667 -23 -98 -23c-31.333 0 -58.666 4.5 -81.999 13.5s-42.833 21 -58.5 36
s-27.5 32.333 -35.5 52s-12 40.167 -12 61.5c0 24.667 4.5 46.667 13.5 66s21.5 36 37.5 50s34.667 24.833 56 32.5s44.333 12.5 69 14.5l153 11v32c0 24.667 -5.83301 44.5 -17.5 59.5s-35.167 22.5 -70.5 22.5c-29.333 0 -52.166 -6.33301 -68.499 -19
s-25.166 -31 -26.499 -55h-121c2 29.333 8.83301 54.666 20.5 75.999s27.167 38.833 46.5 52.5s41.666 23.834 66.999 30.501s52.666 10 81.999 10c44.667 0 84.5 -7.83301 119.5 -23.5s60.167 -43.167 75.5 -82.5c6.66699 -16.667 10.834 -34 12.501 -52
s2.5 -35.667 2.5 -53v-193c0 -12 2.16699 -20.5 6.5 -25.5s11.833 -7.5 22.5 -7.5c5.33301 0 9 0.333008 11 1c2 0 3.66699 0.333008 5 1v-92zM363.999 230.999l-132.001 -10.002c-19.333 -1.33301 -36.666 -7.66602 -51.999 -18.999s-23 -27.666 -23 -48.999
c0 -20 7.5 -35.833 22.5 -47.5s32.167 -17.5 51.5 -17.5c39.333 0 71.333 10.167 96 30.5s37 49.833 37 88.5v24zM395.998 709.997c0 -17.333 -3.16699 -33.333 -9.5 -48s-15 -27.5 -26 -38.5s-24 -19.667 -39 -26s-30.833 -9.5 -47.5 -9.5
c-17.333 0 -33.333 3.16699 -48 9.5s-27.5 15 -38.5 26s-19.667 23.833 -26 38.5s-9.5 30.667 -9.5 48c0 16.667 3.16699 32.5 9.5 47.5s15 27.833 26 38.5s23.833 19.167 38.5 25.5s30.667 9.5 48 9.5c16.667 0 32.5 -3.16699 47.5 -9.5s28 -14.833 39 -25.5
s19.667 -23.5 26 -38.5s9.5 -30.833 9.5 -47.5zM326.998 709.997c0 14.667 -5.16699 27 -15.5 37s-22.833 15 -37.5 15s-27 -5 -37 -15s-15 -22.333 -15 -37s5 -27.167 15 -37.5s22.333 -15.5 37 -15.5s27.167 5.16699 37.5 15.5s15.5 22.833 15.5 37.5z" />
    <glyph glyph-name="ae" unicode="&#xe6;" horiz-adv-x="860" 
d="M477 219c0.666992 -18 3.16699 -35.166 7.5 -51.499s11 -30.666 20 -42.999s20.5 -22.166 34.5 -29.499s31 -11 51 -11c50.667 0 84.334 23.333 101.001 70h121c-2 -16 -7.16699 -32.5 -15.5 -49.5s-17.5 -31.5 -27.5 -43.5c-21.333 -26 -47.5 -44.833 -78.5 -56.5
s-63.167 -17.5 -96.5 -17.5c-47.333 0 -87.666 9.66699 -120.999 29s-56.666 43.333 -69.999 72c-7.33301 -13.333 -16.166 -26 -26.499 -38s-22.833 -22.667 -37.5 -32s-31.834 -16.833 -51.501 -22.5s-41.834 -8.5 -66.501 -8.5c-23.333 0 -46 3.33301 -68 10
s-41.833 16.667 -59.5 30s-31.834 30.166 -42.501 50.499s-16 44.166 -16 71.499c0 26 4.66699 48.5 14 67.5s22 35 38 48s34.667 23.167 56 30.5s44 12 68 14c11.333 1.33301 25.166 2.16602 41.499 2.49902s31.833 0.5 46.5 0.5h26c8.66699 0 17.334 -0.333008 26.001 -1
v45c0 28 -6.5 48.167 -19.5 60.5s-33.5 18.5 -61.5 18.5s-49.833 -5.83301 -65.5 -17.5s-24.5 -29.5 -26.5 -53.5h-121c2 29.333 8.66699 54.666 20 75.999s26.5 38.833 45.5 52.5s41 23.834 66 30.501s52.167 10 81.5 10c67.333 0 120 -20.333 158 -61
c16.667 18.667 38 33.5 64 44.5s58 16.5 96 16.5c38.667 0 74.167 -7.66699 106.5 -23s59.5 -39.333 81.5 -72c19.333 -28 31.666 -58.667 36.999 -92s8 -66.333 8 -99v-28h-344zM695 311.001c0 17.333 -2.16797 33.5 -6.50098 48.5s-10.666 28 -18.999 39
s-19.333 19.667 -33 26s-30.167 9.5 -49.5 9.5c-37.333 0 -65 -12 -83 -36s-27.333 -53 -28 -87h219zM302.999 219.001l-36.5 -0.000976562c-12.333 0 -24.5 -0.666992 -36.5 -2c-20.667 -1.33301 -38 -7 -52 -17s-21 -25.667 -21 -47c0 -20.667 7.33301 -36.334 22 -47.001
s31.667 -16 51 -16c20.667 0 38.5 3.33301 53.5 10s27.5 15.834 37.5 27.501s17.5 25.334 22.5 41.001s7.5 32.5 7.5 50.5h-48z" />
    <glyph glyph-name="ccedilla" unicode="&#xe7;" horiz-adv-x="531" 
d="M498 184c-1.33301 -20.667 -5.33301 -40.8311 -12 -60.498s-16 -37.167 -28 -52.5c-18 -22.667 -42.167 -42 -72.5 -58s-65.5 -24 -105.5 -24s-75.667 8.16699 -107 24.5s-56 35.5 -74 57.5c-19.333 24.667 -33.666 53 -42.999 85s-14 67 -14 105s4.66699 73 14 105
s23.666 60.333 42.999 85c18 22 42.667 41.167 74 57.5s67 24.5 107 24.5s75.167 -8 105.5 -24s54.5 -35.333 72.5 -58c12 -15.333 21.333 -32.833 28 -52.5s10.667 -39.834 12 -60.501h-123c-0.666992 9.33301 -2.33398 18 -5.00098 26s-6 15.333 -10 22
c-7.33301 11.333 -17.666 20.666 -30.999 27.999s-29.666 11 -48.999 11c-17.333 0 -32.166 -3 -44.499 -9s-22.833 -13.667 -31.5 -23c-15.333 -16.667 -25 -36.667 -29 -60s-6 -47.333 -6 -72s2 -48.5 6 -71.5s13.667 -42.833 29 -59.5
c8.66699 -9.33301 19.167 -17.166 31.5 -23.499s27.166 -9.5 44.499 -9.5c19.333 0 35.666 3.66699 48.999 11s23.666 16.666 30.999 27.999c4 6.66699 7.33301 14 10 22s4.33398 16.667 5.00098 26h123zM274 -242.997l-104 49l83 150h97z" />
    <glyph glyph-name="egrave" unicode="&#xe8;" horiz-adv-x="557" 
d="M518 256c-0.666992 -4.66699 -0.995117 -8.99707 -0.995117 -12.9971v-22h-348c0 -20 3.16699 -39 9.5 -57s15.833 -33 28.5 -45c9.33301 -8.66699 20.166 -16.167 32.499 -22.5s27.166 -9.5 44.499 -9.5c18 0 32.833 1.83301 44.5 5.5s22.167 10.167 31.5 19.5
c12 12 20.333 26.667 25 44h120c-1.33301 -15.333 -6.5 -32.166 -15.5 -50.499s-18.5 -33.5 -28.5 -45.5c-22 -26 -48.333 -44.667 -79 -56s-62.667 -17 -96 -17c-36 0 -67.167 5.83301 -93.5 17.5s-49.833 27.167 -70.5 46.5c-26 25.333 -45.833 55.666 -59.5 90.999
s-20.5 74.333 -20.5 117c0 42 6.16699 80.833 18.5 116.5s31.166 66.167 56.499 91.5c19.333 20 42.833 36 70.5 48s59.5 18 95.5 18c38.667 0 74.667 -7.83301 108 -23.5s60.666 -39.834 81.999 -72.501c19.333 -28.667 31.666 -57.834 36.999 -87.501s8 -60.834 8 -93.501
zM393.005 312.003c-0.666992 38 -11.333 68.334 -32 91.001c-8.66699 9.33301 -19.5 16.666 -32.5 21.999s-28.5 8 -46.5 8c-19.333 0 -36.333 -3.66699 -51 -11s-26.667 -17 -36 -29c-9.33301 -11.333 -16 -23.333 -20 -36s-6.33301 -27.667 -7 -45h225zM164.006 679.004
l56 91l184 -138l-40 -65z" />
    <glyph glyph-name="eacute" unicode="&#xe9;" horiz-adv-x="557" 
d="M518 256c-0.666992 -4.66699 -0.995117 -8.99707 -0.995117 -12.9971v-22h-348c0 -20 3.16699 -39 9.5 -57s15.833 -33 28.5 -45c9.33301 -8.66699 20.166 -16.167 32.499 -22.5s27.166 -9.5 44.499 -9.5c18 0 32.833 1.83301 44.5 5.5s22.167 10.167 31.5 19.5
c12 12 20.333 26.667 25 44h120c-1.33301 -15.333 -6.5 -32.166 -15.5 -50.499s-18.5 -33.5 -28.5 -45.5c-22 -26 -48.333 -44.667 -79 -56s-62.667 -17 -96 -17c-36 0 -67.167 5.83301 -93.5 17.5s-49.833 27.167 -70.5 46.5c-26 25.333 -45.833 55.666 -59.5 90.999
s-20.5 74.333 -20.5 117c0 42 6.16699 80.833 18.5 116.5s31.166 66.167 56.499 91.5c19.333 20 42.833 36 70.5 48s59.5 18 95.5 18c38.667 0 74.667 -7.83301 108 -23.5s60.666 -39.834 81.999 -72.501c19.333 -28.667 31.666 -57.834 36.999 -87.501s8 -60.834 8 -93.501
zM393.005 312.003c-0.666992 38 -11.333 68.334 -32 91.001c-8.66699 9.33301 -19.5 16.666 -32.5 21.999s-28.5 8 -46.5 8c-19.333 0 -36.333 -3.66699 -51 -11s-26.667 -17 -36 -29c-9.33301 -11.333 -16 -23.333 -20 -36s-6.33301 -27.667 -7 -45h225zM209.006 566.004
l-40 65l184 138l56 -91z" />
    <glyph glyph-name="ecircumflex" unicode="&#xea;" horiz-adv-x="557" 
d="M518 256c-0.666992 -4.66699 -0.995117 -8.99707 -0.995117 -12.9971v-22h-348c0 -20 3.16699 -39 9.5 -57s15.833 -33 28.5 -45c9.33301 -8.66699 20.166 -16.167 32.499 -22.5s27.166 -9.5 44.499 -9.5c18 0 32.833 1.83301 44.5 5.5s22.167 10.167 31.5 19.5
c12 12 20.333 26.667 25 44h120c-1.33301 -15.333 -6.5 -32.166 -15.5 -50.499s-18.5 -33.5 -28.5 -45.5c-22 -26 -48.333 -44.667 -79 -56s-62.667 -17 -96 -17c-36 0 -67.167 5.83301 -93.5 17.5s-49.833 27.167 -70.5 46.5c-26 25.333 -45.833 55.666 -59.5 90.999
s-20.5 74.333 -20.5 117c0 42 6.16699 80.833 18.5 116.5s31.166 66.167 56.499 91.5c19.333 20 42.833 36 70.5 48s59.5 18 95.5 18c38.667 0 74.667 -7.83301 108 -23.5s60.666 -39.834 81.999 -72.501c19.333 -28.667 31.666 -57.834 36.999 -87.501s8 -60.834 8 -93.501
zM393.005 312.003c-0.666992 38 -11.333 68.334 -32 91.001c-8.66699 9.33301 -19.5 16.666 -32.5 21.999s-28.5 8 -46.5 8c-19.333 0 -36.333 -3.66699 -51 -11s-26.667 -17 -36 -29c-9.33301 -11.333 -16 -23.333 -20 -36s-6.33301 -27.667 -7 -45h225zM380.006 574.004
l-103 113l-105 -116l-64 58l138 145h61l134 -145z" />
    <glyph glyph-name="edieresis" unicode="&#xeb;" horiz-adv-x="557" 
d="M518 256c-0.666992 -4.66699 -0.995117 -8.99707 -0.995117 -12.9971v-22h-348c0 -20 3.16699 -39 9.5 -57s15.833 -33 28.5 -45c9.33301 -8.66699 20.166 -16.167 32.499 -22.5s27.166 -9.5 44.499 -9.5c18 0 32.833 1.83301 44.5 5.5s22.167 10.167 31.5 19.5
c12 12 20.333 26.667 25 44h120c-1.33301 -15.333 -6.5 -32.166 -15.5 -50.499s-18.5 -33.5 -28.5 -45.5c-22 -26 -48.333 -44.667 -79 -56s-62.667 -17 -96 -17c-36 0 -67.167 5.83301 -93.5 17.5s-49.833 27.167 -70.5 46.5c-26 25.333 -45.833 55.666 -59.5 90.999
s-20.5 74.333 -20.5 117c0 42 6.16699 80.833 18.5 116.5s31.166 66.167 56.499 91.5c19.333 20 42.833 36 70.5 48s59.5 18 95.5 18c38.667 0 74.667 -7.83301 108 -23.5s60.666 -39.834 81.999 -72.501c19.333 -28.667 31.666 -57.834 36.999 -87.501s8 -60.834 8 -93.501
zM393.005 312.003c-0.666992 38 -11.333 68.334 -32 91.001c-8.66699 9.33301 -19.5 16.666 -32.5 21.999s-28.5 8 -46.5 8c-19.333 0 -36.333 -3.66699 -51 -11s-26.667 -17 -36 -29c-9.33301 -11.333 -16 -23.333 -20 -36s-6.33301 -27.667 -7 -45h225zM130.006 601.004
v121h117v-121h-117zM336.006 601.004v121h117v-121h-117z" />
    <glyph glyph-name="igrave" unicode="&#xec;" horiz-adv-x="286" 
d="M32 670l50 84l164 -127l-36 -60zM80 0v520h127v-520h-127z" />
    <glyph glyph-name="iacute" unicode="&#xed;" horiz-adv-x="286" 
d="M60 568l-36 60l164 127l50 -84zM80 0v520h127v-520h-127z" />
    <glyph glyph-name="icircumflex" unicode="&#xee;" horiz-adv-x="286" 
d="M236 569l-91 104l-94 -107l-57 53l123 134h54l120 -134zM80 0v520h127v-520h-127z" />
    <glyph glyph-name="idieresis" unicode="&#xef;" horiz-adv-x="286" 
d="M183 608v107h104v-107h-104zM-1 608v107h104v-107h-104zM80 0v520h127v-520h-127z" />
    <glyph glyph-name="eth" unicode="&#xf0;" horiz-adv-x="562" 
d="M520 259c0 -38 -4.66797 -73 -14.001 -105s-23.666 -60.333 -42.999 -85c-18 -22 -42.833 -41.167 -74.5 -57.5s-67.5 -24.5 -107.5 -24.5s-75.833 8.16699 -107.5 24.5s-56.5 35.5 -74.5 57.5c-19.333 24.667 -33.666 53 -42.999 85s-14 67 -14 105
s4.83301 73.5 14.5 106.5s24.167 61.833 43.5 86.5c18 22 42.667 41 74 57s67 24 107 24h6l-30 50h-110v67h71l-41 72h125l42 -72h96v-67h-56l91 -149c15.333 -25.333 26.666 -52.833 33.999 -82.5s11 -60.5 11 -92.5zM392.999 259c0 24.667 -1.83301 48.834 -5.5 72.501
s-13.167 43.834 -28.5 60.501c-8.66699 9.33301 -19.5 17.166 -32.5 23.499s-28.167 9.5 -45.5 9.5s-32.5 -3.16699 -45.5 -9.5s-23.833 -14.166 -32.5 -23.499c-15.333 -16.667 -24.833 -36.834 -28.5 -60.501s-5.5 -47.834 -5.5 -72.501s1.83301 -48.667 5.5 -72
s13.167 -43.333 28.5 -60c8.66699 -9.33301 19.5 -17.166 32.5 -23.499s28.167 -9.5 45.5 -9.5s32.5 3.16699 45.5 9.5s23.833 14.166 32.5 23.499c15.333 16.667 24.833 36.667 28.5 60s5.5 47.333 5.5 72z" />
    <glyph glyph-name="ntilde" unicode="&#xf1;" horiz-adv-x="591" 
d="M396 0l0.00195312 318.998c0 30.667 -6 54.667 -18 72s-34.667 26 -68 26c-22 0 -40.333 -6.16699 -55 -18.5s-26.334 -28.166 -35.001 -47.499s-13.667 -41.833 -15 -67.5s-2 -49.5 -2 -71.5v-212h-125v520h105l9 -67c15.333 27.333 37.166 47.5 65.499 60.5
s57.5 19.5 87.5 19.5c28 0 52.833 -4.66699 74.5 -14s40 -22.166 55 -38.499s26.5 -36 34.5 -59s12 -47.833 12 -74.5v-347h-125zM476.002 670.998c-14.667 -15.333 -31.5 -28.8311 -50.5 -40.498s-39.5 -17.5 -61.5 -17.5c-13.333 0 -25.5 2 -36.5 6
s-21.167 8.5 -30.5 13.5l-27 14c-8.66699 4.33301 -17 6.5 -25 6.5c-11.333 0 -22.5 -3.33301 -33.5 -10s-20.5 -14.334 -28.5 -23.001l-50 63c15.333 15.333 32.333 29 51 41s39.334 18 62.001 18c13.333 0 25.333 -2.16699 36 -6.5s20.5 -9 29.5 -14
s17.833 -9.66699 26.5 -14s17.667 -6.5 27 -6.5c10.667 0 21.667 3.66699 33 11s20.666 14.666 27.999 21.999z" />
    <glyph glyph-name="ograve" unicode="&#xf2;" 
d="M528 260c0 -44 -5.33301 -80.833 -16 -110.5s-25.667 -56.834 -45 -81.501c-18 -22 -42.833 -41 -74.5 -57s-67.5 -24 -107.5 -24s-75.833 8 -107.5 24s-56.5 35 -74.5 57c-19.333 24.667 -34.333 51.834 -45 81.501s-16 66.5 -16 110.5s5.33301 80.833 16 110.5
s25.667 56.834 45 81.501c18 22 42.833 41 74.5 57s67.5 24 107.5 24s75.833 -8 107.5 -24s56.5 -35 74.5 -57c19.333 -24.667 34.333 -51.834 45 -81.501s16 -66.5 16 -110.5zM401 260c0 24.667 -2.33301 48.5 -7 71.5s-14.667 42.833 -30 59.5
c-8.66699 9.33301 -19.667 17.166 -33 23.499s-28.666 9.5 -45.999 9.5s-32.666 -3.16699 -45.999 -9.5s-24.333 -14.166 -33 -23.499c-15.333 -16.667 -25.333 -36.5 -30 -59.5s-7 -46.833 -7 -71.5s2.33301 -48.5 7 -71.5s14.667 -42.833 30 -59.5
c8.66699 -9.33301 19.667 -17.166 33 -23.499s28.666 -9.5 45.999 -9.5s32.666 3.16699 45.999 9.5s24.333 14.166 33 23.499c15.333 16.667 25.333 36.5 30 59.5s7 46.833 7 71.5zM167 679l56 91l184 -138l-40 -65z" />
    <glyph glyph-name="oacute" unicode="&#xf3;" 
d="M528 260c0 -44 -5.33301 -80.833 -16 -110.5s-25.667 -56.834 -45 -81.501c-18 -22 -42.833 -41 -74.5 -57s-67.5 -24 -107.5 -24s-75.833 8 -107.5 24s-56.5 35 -74.5 57c-19.333 24.667 -34.333 51.834 -45 81.501s-16 66.5 -16 110.5s5.33301 80.833 16 110.5
s25.667 56.834 45 81.501c18 22 42.833 41 74.5 57s67.5 24 107.5 24s75.833 -8 107.5 -24s56.5 -35 74.5 -57c19.333 -24.667 34.333 -51.834 45 -81.501s16 -66.5 16 -110.5zM401 260c0 24.667 -2.33301 48.5 -7 71.5s-14.667 42.833 -30 59.5
c-8.66699 9.33301 -19.667 17.166 -33 23.499s-28.666 9.5 -45.999 9.5s-32.666 -3.16699 -45.999 -9.5s-24.333 -14.166 -33 -23.499c-15.333 -16.667 -25.333 -36.5 -30 -59.5s-7 -46.833 -7 -71.5s2.33301 -48.5 7 -71.5s14.667 -42.833 30 -59.5
c8.66699 -9.33301 19.667 -17.166 33 -23.499s28.666 -9.5 45.999 -9.5s32.666 3.16699 45.999 9.5s24.333 14.166 33 23.499c15.333 16.667 25.333 36.5 30 59.5s7 46.833 7 71.5zM210 566l-40 65l184 138l56 -91z" />
    <glyph glyph-name="ocircumflex" unicode="&#xf4;" 
d="M528 260c0 -44 -5.33301 -80.833 -16 -110.5s-25.667 -56.834 -45 -81.501c-18 -22 -42.833 -41 -74.5 -57s-67.5 -24 -107.5 -24s-75.833 8 -107.5 24s-56.5 35 -74.5 57c-19.333 24.667 -34.333 51.834 -45 81.501s-16 66.5 -16 110.5s5.33301 80.833 16 110.5
s25.667 56.834 45 81.501c18 22 42.833 41 74.5 57s67.5 24 107.5 24s75.833 -8 107.5 -24s56.5 -35 74.5 -57c19.333 -24.667 34.333 -51.834 45 -81.501s16 -66.5 16 -110.5zM401 260c0 24.667 -2.33301 48.5 -7 71.5s-14.667 42.833 -30 59.5
c-8.66699 9.33301 -19.667 17.166 -33 23.499s-28.666 9.5 -45.999 9.5s-32.666 -3.16699 -45.999 -9.5s-24.333 -14.166 -33 -23.499c-15.333 -16.667 -25.333 -36.5 -30 -59.5s-7 -46.833 -7 -71.5s2.33301 -48.5 7 -71.5s14.667 -42.833 30 -59.5
c8.66699 -9.33301 19.667 -17.166 33 -23.499s28.666 -9.5 45.999 -9.5s32.666 3.16699 45.999 9.5s24.333 14.166 33 23.499c15.333 16.667 25.333 36.5 30 59.5s7 46.833 7 71.5zM384 574l-103 113l-105 -116l-64 58l138 145h61l134 -145z" />
    <glyph glyph-name="otilde" unicode="&#xf5;" 
d="M528 260c0 -44 -5.33301 -80.833 -16 -110.5s-25.667 -56.834 -45 -81.501c-18 -22 -42.833 -41 -74.5 -57s-67.5 -24 -107.5 -24s-75.833 8 -107.5 24s-56.5 35 -74.5 57c-19.333 24.667 -34.333 51.834 -45 81.501s-16 66.5 -16 110.5s5.33301 80.833 16 110.5
s25.667 56.834 45 81.501c18 22 42.833 41 74.5 57s67.5 24 107.5 24s75.833 -8 107.5 -24s56.5 -35 74.5 -57c19.333 -24.667 34.333 -51.834 45 -81.501s16 -66.5 16 -110.5zM401 260c0 24.667 -2.33301 48.5 -7 71.5s-14.667 42.833 -30 59.5
c-8.66699 9.33301 -19.667 17.166 -33 23.499s-28.666 9.5 -45.999 9.5s-32.666 -3.16699 -45.999 -9.5s-24.333 -14.166 -33 -23.499c-15.333 -16.667 -25.333 -36.5 -30 -59.5s-7 -46.833 -7 -71.5s2.33301 -48.5 7 -71.5s14.667 -42.833 30 -59.5
c8.66699 -9.33301 19.667 -17.166 33 -23.499s28.666 -9.5 45.999 -9.5s32.666 3.16699 45.999 9.5s24.333 14.166 33 23.499c15.333 16.667 25.333 36.5 30 59.5s7 46.833 7 71.5zM444 678c-14.667 -15.333 -31.5 -28.8311 -50.5 -40.498s-39.5 -17.5 -61.5 -17.5
c-13.333 0 -25.5 2 -36.5 6s-21.167 8.5 -30.5 13.5l-27 14c-8.66699 4.33301 -17 6.5 -25 6.5c-11.333 0 -22.5 -3.33301 -33.5 -10s-20.5 -14.334 -28.5 -23.001l-50 63c15.333 15.333 32.333 29 51 41s39.334 18 62.001 18c13.333 0 25.333 -2.16699 36 -6.5
s20.5 -9 29.5 -14s17.833 -9.66699 26.5 -14s17.667 -6.5 27 -6.5c10.667 0 21.667 3.66699 33 11s20.666 14.666 27.999 21.999z" />
    <glyph glyph-name="odieresis" unicode="&#xf6;" 
d="M528 260c0 -44 -5.33301 -80.833 -16 -110.5s-25.667 -56.834 -45 -81.501c-18 -22 -42.833 -41 -74.5 -57s-67.5 -24 -107.5 -24s-75.833 8 -107.5 24s-56.5 35 -74.5 57c-19.333 24.667 -34.333 51.834 -45 81.501s-16 66.5 -16 110.5s5.33301 80.833 16 110.5
s25.667 56.834 45 81.501c18 22 42.833 41 74.5 57s67.5 24 107.5 24s75.833 -8 107.5 -24s56.5 -35 74.5 -57c19.333 -24.667 34.333 -51.834 45 -81.501s16 -66.5 16 -110.5zM401 260c0 24.667 -2.33301 48.5 -7 71.5s-14.667 42.833 -30 59.5
c-8.66699 9.33301 -19.667 17.166 -33 23.499s-28.666 9.5 -45.999 9.5s-32.666 -3.16699 -45.999 -9.5s-24.333 -14.166 -33 -23.499c-15.333 -16.667 -25.333 -36.5 -30 -59.5s-7 -46.833 -7 -71.5s2.33301 -48.5 7 -71.5s14.667 -42.833 30 -59.5
c8.66699 -9.33301 19.667 -17.166 33 -23.499s28.666 -9.5 45.999 -9.5s32.666 3.16699 45.999 9.5s24.333 14.166 33 23.499c15.333 16.667 25.333 36.5 30 59.5s7 46.833 7 71.5zM128 601v121h117v-121h-117zM334 601v121h117v-121h-117z" />
    <glyph glyph-name="divide" unicode="&#xf7;" horiz-adv-x="648" 
d="M257 436v139h137v-139h-137zM60 243v114h528v-114h-528zM257 30v139h137v-139h-137z" />
    <glyph glyph-name="oslash" unicode="&#xf8;" 
d="M528 260c0 -44 -5.33105 -80.832 -15.998 -110.499s-25.667 -56.834 -45 -81.501c-18 -22 -42.833 -41 -74.5 -57s-67.5 -24 -107.5 -24c-32 0 -61 5 -87 15l-35 -77l-63 28l37 82c-6.66699 5.33301 -12.834 10.666 -18.501 15.999s-10.834 11 -15.501 17
c-19.333 24.667 -34.333 51.834 -45 81.501s-16 66.5 -16 110.5s5.33301 80.833 16 110.5s25.667 56.834 45 81.501c18 22 42.833 41 74.5 57s67.5 24 107.5 24c25.333 0 50 -3.66699 74 -11l29 62l63 -28l-29 -64c18.667 -12.667 33.667 -26 45 -40
c19.333 -24.667 34.333 -51.834 45 -81.501s16 -66.5 16 -110.5zM401.002 260.001c0 22.667 -1.99805 44.668 -5.99805 66.001s-11.667 40 -23 56l-127 -279c11.333 -4.66699 24.666 -7 39.999 -7c17.333 0 32.666 3.16699 45.999 9.5s24.333 14.166 33 23.499
c15.333 16.667 25.333 36.5 30 59.5s7 46.833 7 71.5zM313.004 421.002c-9.33301 2 -18.6689 2.99902 -28.002 2.99902c-17.333 0 -32.666 -3.16699 -45.999 -9.5s-24.333 -14.166 -33 -23.499c-15.333 -16.667 -25.333 -36.5 -30 -59.5s-7 -46.833 -7 -71.5
c0 -19.333 1.33301 -38.5 4 -57.5s8.33398 -36.167 17.001 -51.5z" />
    <glyph glyph-name="ugrave" unicode="&#xf9;" horiz-adv-x="590" 
d="M408 0l-8.99707 68.001c-12.667 -25.333 -32.334 -45.166 -59.001 -59.499s-56.667 -21.5 -90 -21.5c-28 0 -53 4.5 -75 13.5s-40.833 21.667 -56.5 38s-27.667 35.833 -36 58.5s-12.5 48 -12.5 76v347h125v-319c0 -30.667 6.66699 -54.834 20 -72.501
s36.666 -26.5 69.999 -26.5c14.667 0 27.167 2.5 37.5 7.5s19.166 11.167 26.499 18.5c15.333 14 25.5 31.667 30.5 53s7.5 42.666 7.5 63.999v275h125v-520h-104zM161.003 678.001l56 91l184 -138l-40 -65z" />
    <glyph glyph-name="uacute" unicode="&#xfa;" horiz-adv-x="590" 
d="M408 0l-8.99707 68.001c-12.667 -25.333 -32.334 -45.166 -59.001 -59.499s-56.667 -21.5 -90 -21.5c-28 0 -53 4.5 -75 13.5s-40.833 21.667 -56.5 38s-27.667 35.833 -36 58.5s-12.5 48 -12.5 76v347h125v-319c0 -30.667 6.66699 -54.834 20 -72.501
s36.666 -26.5 69.999 -26.5c14.667 0 27.167 2.5 37.5 7.5s19.166 11.167 26.499 18.5c15.333 14 25.5 31.667 30.5 53s7.5 42.666 7.5 63.999v275h125v-520h-104zM222.003 566.001l-40 65l184 138l56 -91z" />
    <glyph glyph-name="ucircumflex" unicode="&#xfb;" horiz-adv-x="590" 
d="M408 0l-8.99707 68.001c-12.667 -25.333 -32.334 -45.166 -59.001 -59.499s-56.667 -21.5 -90 -21.5c-28 0 -53 4.5 -75 13.5s-40.833 21.667 -56.5 38s-27.667 35.833 -36 58.5s-12.5 48 -12.5 76v347h125v-319c0 -30.667 6.66699 -54.834 20 -72.501
s36.666 -26.5 69.999 -26.5c14.667 0 27.167 2.5 37.5 7.5s19.166 11.167 26.499 18.5c15.333 14 25.5 31.667 30.5 53s7.5 42.666 7.5 63.999v275h125v-520h-104zM390.003 574.001l-103 113l-105 -116l-64 58l138 145h61l134 -145z" />
    <glyph glyph-name="udieresis" unicode="&#xfc;" horiz-adv-x="590" 
d="M408 0l-8.99707 68.001c-12.667 -25.333 -32.334 -45.166 -59.001 -59.499s-56.667 -21.5 -90 -21.5c-28 0 -53 4.5 -75 13.5s-40.833 21.667 -56.5 38s-27.667 35.833 -36 58.5s-12.5 48 -12.5 76v347h125v-319c0 -30.667 6.66699 -54.834 20 -72.501
s36.666 -26.5 69.999 -26.5c14.667 0 27.167 2.5 37.5 7.5s19.166 11.167 26.499 18.5c15.333 14 25.5 31.667 30.5 53s7.5 42.666 7.5 63.999v275h125v-520h-104zM134.003 601.001v121h117v-121h-117zM340.003 601.001v121h117v-121h-117z" />
    <glyph glyph-name="yacute" unicode="&#xfd;" horiz-adv-x="530" 
d="M301 -89c-6.66699 -17.333 -14.5 -33.833 -23.5 -49.5s-19.833 -29.5 -32.5 -41.5s-27.5 -21.5 -44.5 -28.5s-36.833 -10.5 -59.5 -10.5c-20.667 0 -38.5 1.33301 -53.5 4s-29.167 5.66699 -42.5 9v104c8 -1.33301 14.833 -2.66602 20.5 -3.99902s11 -2.33301 16 -3
s10 -1.16699 15 -1.5s11.167 -0.5 18.5 -0.5c11.333 0 22.5 2.66699 33.5 8s19.833 15.666 26.5 30.999l30 73l-205 519h137l136 -376l130 376h127zM213 563l-40 65l184 138l56 -91z" />
    <glyph glyph-name="thorn" unicode="&#xfe;" horiz-adv-x="592" 
d="M550 260c0 -41.333 -6 -80.8359 -18 -118.503s-30.667 -69.834 -56 -96.501c-16.667 -17.333 -36.167 -31.166 -58.5 -41.499s-48.5 -15.5 -78.5 -15.5c-26 0 -52 4.83301 -78 14.5s-45.667 24.834 -59 45.501v-247h-124v921h124v-249c13.333 20.667 33 35.834 59 45.501
s52 14.5 78 14.5c30 0 56.167 -5.16699 78.5 -15.5s41.833 -24.166 58.5 -41.499c25.333 -26.667 44 -59 56 -97s18 -77.667 18 -119zM424 259.997c0 24 -2.5 47.9941 -7.5 71.9941s-14.167 44.667 -27.5 62c-8.66699 10.667 -19.167 19.334 -31.5 26.001
s-27.833 10 -46.5 10c-24 0 -43.5 -5.16699 -58.5 -15.5s-26.667 -23.666 -35 -39.999s-14 -34.666 -17 -54.999s-4.5 -40.166 -4.5 -59.499s1.5 -39 4.5 -59s8.66699 -38.167 17 -54.5s20 -29.666 35 -39.999s34.5 -15.5 58.5 -15.5c18.667 0 34.167 3.33301 46.5 10
s22.833 15.334 31.5 26.001c13.333 17.333 22.5 37.833 27.5 61.5s7.5 47.5 7.5 71.5z" />
    <glyph glyph-name="ydieresis" unicode="&#xff;" horiz-adv-x="530" 
d="M301 -89c-6.66699 -17.333 -14.5 -33.833 -23.5 -49.5s-19.833 -29.5 -32.5 -41.5s-27.5 -21.5 -44.5 -28.5s-36.833 -10.5 -59.5 -10.5c-20.667 0 -38.5 1.33301 -53.5 4s-29.167 5.66699 -42.5 9v104c8 -1.33301 14.833 -2.66602 20.5 -3.99902s11 -2.33301 16 -3
s10 -1.16699 15 -1.5s11.167 -0.5 18.5 -0.5c11.333 0 22.5 2.66699 33.5 8s19.833 15.666 26.5 30.999l30 73l-205 519h137l136 -376l130 376h127zM111 601v121h117v-121h-117zM317 601v121h117v-121h-117z" />
    <glyph glyph-name="dotlessi" unicode="&#x131;" horiz-adv-x="286" 
d="M80 0v520h127v-520h-127z" />
    <glyph glyph-name="Lslash" unicode="&#x141;" horiz-adv-x="566" 
d="M99 0v274l-53 -33l-43 69l96 60v339h129v-258l109 69l44 -70l-153 -95v-233h329v-122h-458z" />
    <glyph glyph-name="lslash" unicode="&#x142;" horiz-adv-x="389" 
d="M264 395l0.00195312 -240c0 -15.333 3 -27.5 9 -36.5s19.667 -13.5 41 -13.5c5.33301 0 9.33301 0.166992 12 0.5s5.66699 0.5 9 0.5v-105c-12.667 -2.66699 -21.834 -4.5 -27.501 -5.5s-14.834 -1.5 -27.501 -1.5c-42.667 0 -77 11 -103 33s-39 57.667 -39 107v181
l-45 -28l-43 69l88 56v311h126v-231l65 41l44 -69z" />
    <glyph glyph-name="OE" unicode="&#x152;" horiz-adv-x="1030" 
d="M485 0v35.999c-18.667 -14 -42 -25.667 -70 -35s-57 -14 -87 -14c-42 0 -80.5 7 -115.5 21s-64.833 33.667 -89.5 59c-18.667 19.333 -33.334 40.333 -44.001 63s-18.834 46.5 -24.501 71.5s-9.16699 50.5 -10.5 76.5s-2 51.667 -2 77s0.666992 51 2 77
s4.83301 51.333 10.5 76s13.834 48.334 24.501 71.001s25.334 43.667 44.001 63c24.667 25.333 54.5 45 89.5 59s73.5 21 115.5 21c30 0 59.5 -4.83301 88.5 -14.5s51.833 -21.167 68.5 -34.5v36h505v-117h-376v-165h331v-116h-331v-194h376v-117h-505zM483 382.999
c0 16 -0.333008 32.167 -1 48.5s-2.66699 32.5 -6 48.5s-8.33301 31.167 -15 45.5s-15.667 27.166 -27 38.499c-12.667 12.667 -28 22.667 -46 30s-38 11 -60 11s-42 -3.66699 -60 -11s-33.333 -17.333 -46 -30c-11.333 -11.333 -20.333 -24.166 -27 -38.499
s-11.667 -29.5 -15 -45.5s-5.33301 -32.167 -6 -48.5s-1 -32.5 -1 -48.5v-56c0 -16 0.333008 -32.333 1 -49s2.66699 -33 6 -49s8.33301 -31.167 15 -45.5s15.667 -27.166 27 -38.499c12.667 -12.667 28 -22.667 46 -30s38 -11 60 -11s42 3.66699 60 11s33.333 17.333 46 30
c11.333 11.333 20.333 24.166 27 38.499s11.667 29.5 15 45.5s5.33301 32.333 6 49s1 33 1 49v56z" />
    <glyph glyph-name="oe" unicode="&#x153;" horiz-adv-x="904" 
d="M865 256l-0.00195312 -19.001c0 -5.33301 -0.333008 -10.666 -1 -15.999h-344c0 -20 3.16699 -39.667 9.5 -59s15.833 -35 28.5 -47c9.33301 -8.66699 19.5 -16 30.5 -22s25.167 -9 42.5 -9c18 0 33 2.16699 45 6.5s22.667 11.166 32 20.499c12 12 20.333 27 25 45h120
c-1.33301 -15.333 -6.5 -32.166 -15.5 -50.499s-18.5 -33.5 -28.5 -45.5c-22 -26 -48.167 -44.667 -78.5 -56s-62.166 -17 -95.499 -17c-36 0 -67 5.83301 -93 17.5s-49.333 27.167 -70 46.5c-2 2 -4.16699 4 -6.5 6s-4.5 4.33301 -6.5 7
c-18 -21.333 -42.5 -39.5 -73.5 -54.5s-65.833 -22.5 -104.5 -22.5c-40 0 -75.833 8.16699 -107.5 24.5s-56.5 35.5 -74.5 57.5c-19.333 24.667 -33.666 53 -42.999 85s-14 67 -14 105s4.83301 73.5 14.5 106.5s24.167 61.833 43.5 86.5c18 22 42.667 41 74 57s67 24 107 24
c38.667 0 73.334 -7.33301 104.001 -22s55 -32.667 73 -54l9 9c19.333 20 42.666 36.167 69.999 48.5s59 18.5 95 18.5c38.667 0 74.5 -8 107.5 -24s60.167 -40.333 81.5 -73c18.667 -28.667 30.667 -57 36 -85s8 -59.667 8 -95zM739.998 311.999
c-1.33301 40 -11.667 70.668 -31 92.001c-8.66699 9.33301 -19.334 16.666 -32.001 21.999s-28 8 -46 8c-19.333 0 -36.166 -3.66699 -50.499 -11s-26.166 -17 -35.499 -29c-9.33301 -11.333 -15.833 -23.5 -19.5 -36.5s-5.83398 -28.167 -6.50098 -45.5h221zM392.997 259
c0 24.667 -1.83301 48.834 -5.5 72.501s-13.167 43.834 -28.5 60.501c-8.66699 9.33301 -19.5 17.166 -32.5 23.499s-28.167 9.5 -45.5 9.5s-32.5 -3.16699 -45.5 -9.5s-23.833 -14.166 -32.5 -23.499c-15.333 -16.667 -24.833 -36.834 -28.5 -60.501
s-5.5 -47.834 -5.5 -72.501s1.83301 -48.667 5.5 -72s13.167 -43.333 28.5 -60c8.66699 -9.33301 19.5 -17.166 32.5 -23.499s28.167 -9.5 45.5 -9.5s32.5 3.16699 45.5 9.5s23.833 14.166 32.5 23.499c15.333 16.667 24.833 36.667 28.5 60s5.5 47.333 5.5 72z" />
    <glyph glyph-name="Scaron" unicode="&#x160;" horiz-adv-x="632" 
d="M599 211c0 -33.333 -5.49902 -62.001 -16.499 -86.001s-25.167 -44.667 -42.5 -62c-27.333 -27.333 -60.5 -46.833 -99.5 -58.5s-80.5 -17.5 -124.5 -17.5c-38 0 -75.5 5.5 -112.5 16.5s-70.167 29.833 -99.5 56.5c-21.333 19.333 -39 43.166 -53 71.499
s-21 59.5 -21 93.5h132c0 -17.333 3.5 -33.5 10.5 -48.5s15.833 -27.833 26.5 -38.5c15.333 -15.333 33.833 -25.5 55.5 -30.5s42.834 -7.5 63.501 -7.5c24.667 0 48 2.83301 70 8.5s39.667 15.5 53 29.5c8 8.66699 14.667 17.834 20 27.501s8 23.167 8 40.5
c0 26 -8.5 45.5 -25.5 58.5s-36.5 21.5 -58.5 25.5c-24 4.66699 -50.333 8 -79 10s-54.667 5 -78 9c-24.667 4 -47.834 11 -69.501 21s-40.667 23.167 -57 39.5s-29.333 36 -39 59s-14.5 49.167 -14.5 78.5c0 28 5.66699 53.667 17 77s26.333 44.333 45 63
c23.333 23.333 53.333 41.666 90 54.999s76 20 118 20c38 0 74.5 -5.83301 109.5 -17.5s64.5 -28.834 88.5 -51.501c21.333 -20 38.5 -42.667 51.5 -68s19.833 -53 20.5 -83h-132c-0.666992 12.667 -3.83398 25.167 -9.50098 37.5s-12.834 23.166 -21.501 32.499
c-11.333 12 -27.333 21.333 -48 28s-40.667 10 -60 10c-20 0 -40.5 -2.66699 -61.5 -8s-38.833 -15.666 -53.5 -30.999c-7.33301 -8 -13.166 -16.667 -17.499 -26s-6.5 -20.666 -6.5 -33.999c0 -23.333 6.66699 -41.166 20 -53.499s30.666 -20.166 51.999 -23.499
c22.667 -3.33301 48.167 -6.33301 76.5 -9s54.166 -5.66699 77.499 -9c26.667 -4 51.834 -11.167 75.501 -21.5s44.334 -24 62.001 -41s31.667 -37.5 42 -61.5s15.5 -51 15.5 -81zM142.001 919.999l65 59l107 -118l105 115l62 -56l-136 -148h-63z" />
    <glyph glyph-name="scaron" unicode="&#x161;" horiz-adv-x="521" 
d="M482 161c0 -25.333 -4.16992 -47.3389 -12.5029 -66.0059s-19.166 -34.667 -32.499 -48c-21.333 -21.333 -47.333 -36.666 -78 -45.999s-64 -14 -100 -14c-33.333 0 -64.333 4.83301 -93 14.5s-53.667 24.834 -75 45.501c-15.333 14.667 -28.333 32.334 -39 53.001
s-16 43.334 -16 68.001h117c0 -11.333 2.66699 -22.666 8 -33.999s12 -20.333 20 -27c10 -8 21.167 -13.833 33.5 -17.5s27.5 -5.5 45.5 -5.5c10.667 0 22.167 0.833008 34.5 2.5s23.833 4.83398 34.5 9.50098s19.5 11.334 26.5 20.001s10.5 20 10.5 34
c0 15.333 -4.66699 27.666 -14 36.999s-22 15.333 -38 18c-23.333 3.33301 -47.333 6.16602 -72 8.49902s-48.667 6.16602 -72 11.499c-18 4 -34.167 10.333 -48.5 19s-26.833 19.167 -37.5 31.5s-18.834 26 -24.501 41s-8.5 30.833 -8.5 47.5c0 26.667 5 49.5 15 68.5
s22.667 35.167 38 48.5c19.333 16.667 42.333 29.5 69 38.5s56.334 13.5 89.001 13.5c31.333 0 61.5 -5 90.5 -15s53.167 -25.333 72.5 -46c14 -15.333 25.167 -32.166 33.5 -50.499s12.5 -37.166 12.5 -56.499h-119c0 10 -2 19 -6 27s-9 15.333 -15 22
c-7.33301 7.33301 -17.166 13.166 -29.499 17.499s-25.166 6.5 -38.499 6.5c-9.33301 0 -18.333 -0.333008 -27 -1s-17.667 -3 -27 -7c-11.333 -4.66699 -20.833 -11.667 -28.5 -21s-11.5 -20.666 -11.5 -33.999c0 -18.667 6.5 -31.5 19.5 -38.5s26.5 -11.5 40.5 -13.5
c12 -1.33301 22 -2.5 30 -3.5l24 -3c8 -1 16.333 -2.16699 25 -3.5l32 -5c41.333 -6.66699 75.333 -22.5 102 -47.5s40 -58.167 40 -99.5zM111.997 705.994l59 53l96 -106l94 103l56 -50l-122 -134h-57z" />
    <glyph glyph-name="Ydieresis" unicode="&#x178;" horiz-adv-x="624" 
d="M376 272v-272h-130v272l-246 437h140l175 -306l175 306h134zM154 779v121h117v-121h-117zM360 779v121h117v-121h-117z" />
    <glyph glyph-name="florin" unicode="&#x192;" horiz-adv-x="532" 
d="M499 608l-21.498 3.99902c-7 1.33301 -14.167 2 -21.5 2c-28 0 -49 -5.16699 -63 -15.5s-24.333 -29.166 -31 -56.499c-3.33301 -14.667 -6.33301 -29.667 -9 -45l-8 -46h130v-112h-155l-62 -310c-9.33301 -46.667 -28.666 -83.5 -57.999 -110.5
s-68.333 -40.5 -117 -40.5c-28.667 0 -56.334 4 -83.001 12v106c18 -4 36.333 -6 55 -6c28 0 47.667 6.33301 59 19s19.666 31.667 24.999 57l55 273h-94v112h117l24 119c9.33301 46 29.666 83.333 60.999 112s71 43 119 43c13.333 0 26.333 -0.833008 39 -2.5
s25.667 -3.5 39 -5.5v-109z" />
    <glyph glyph-name="circumflex" unicode="&#x2c6;" horiz-adv-x="365" 
d="M288 574l-103 113l-105 -116l-64 58l138 145h61l134 -145z" />
    <glyph glyph-name="caron" unicode="&#x2c7;" horiz-adv-x="358" 
d="M208 776h-63l-136 148l62 56l105 -115l107 118l65 -59z" />
    <glyph glyph-name="breve" unicode="&#x2d8;" horiz-adv-x="350" 
d="M346 767c-2 -26 -6.83398 -49.667 -14.501 -71s-18.5 -39.666 -32.5 -54.999s-31.167 -27.333 -51.5 -36s-43.833 -13 -70.5 -13s-50 4.33301 -70 13s-37 20.667 -51 36s-24.833 33.666 -32.5 54.999s-12.5 45 -14.5 71h94c3.33301 -30 10.833 -51.5 22.5 -64.5
s28.834 -19.5 51.501 -19.5s40 6.5 52 19.5s19.667 34.5 23 64.5h94z" />
    <glyph glyph-name="dotaccent" unicode="&#x2d9;" horiz-adv-x="265" 
d="M68 592v128h133v-128h-133z" />
    <glyph glyph-name="ring" unicode="&#x2da;" horiz-adv-x="248" 
d="M248 710c0 -17.333 -3.16699 -33.333 -9.5 -48s-15 -27.5 -26 -38.5s-24 -19.667 -39 -26s-30.833 -9.5 -47.5 -9.5c-17.333 0 -33.333 3.16699 -48 9.5s-27.5 15 -38.5 26s-19.667 23.833 -26 38.5s-9.5 30.667 -9.5 48c0 16.667 3.16699 32.5 9.5 47.5
s15 27.833 26 38.5s23.833 19.167 38.5 25.5s30.667 9.5 48 9.5c16.667 0 32.5 -3.16699 47.5 -9.5s28 -14.833 39 -25.5s19.667 -23.5 26 -38.5s9.5 -30.833 9.5 -47.5zM179 710c0 14.667 -5.16699 27 -15.5 37s-22.833 15 -37.5 15s-27 -5 -37 -15s-15 -22.333 -15 -37
s5 -27.167 15 -37.5s22.333 -15.5 37 -15.5s27.167 5.16699 37.5 15.5s15.5 22.833 15.5 37.5z" />
    <glyph glyph-name="ogonek" unicode="&#x2db;" horiz-adv-x="198" 
d="M84 -237l-80 210h102l88 -158z" />
    <glyph glyph-name="tilde" unicode="&#x2dc;" horiz-adv-x="382" 
d="M369 672c-15.333 -15.333 -32.6689 -29.167 -52.002 -41.5s-40.333 -18.5 -63 -18.5c-13.333 0 -25.666 2.16699 -36.999 6.5s-21.666 9 -30.999 14l-27 14c-8.66699 4.33301 -17.334 6.5 -26.001 6.5c-12 0 -23.667 -3.33301 -35 -10s-20.666 -14.334 -27.999 -23.001
l-51 64c15.333 15.333 32.5 29.166 51.5 41.499s40.167 18.5 63.5 18.5c13.333 0 25.5 -2.16699 36.5 -6.5s21.167 -9.16602 30.5 -14.499s18.333 -10.166 27 -14.499s17.667 -6.5 27 -6.5c11.333 0 22.833 3.83301 34.5 11.5s21.167 15.167 28.5 22.5z" />
    <glyph glyph-name="hungarumlaut" unicode="&#x2dd;" horiz-adv-x="510" 
d="M302 608l-42 65l185 144l59 -92zM47 608l-42 65l185 144l59 -92z" />
    <glyph glyph-name="uni03A9" unicode="&#x3a9;" horiz-adv-x="838" 
d="M788 354c0 -54 -9.16992 -103.333 -27.5029 -148s-43.833 -83.334 -76.5 -116.001s-71.667 -58 -117 -76s-94.666 -27 -147.999 -27c-54 0 -103.5 9 -148.5 27s-83.833 43.333 -116.5 76s-58.167 71.334 -76.5 116.001s-27.5 94 -27.5 148
c0 53.333 9.33301 102.5 28 147.5s44.334 83.833 77.001 116.5s71.5 58.167 116.5 76.5s94.167 27.5 147.5 27.5c52.667 0 101.667 -9.16699 147 -27.5s84.333 -44 117 -77s58.334 -72 77.001 -117s28 -93.833 28 -146.5zM694.997 354c0 40.667 -6.66699 78.167 -20 112.5
s-32.166 64 -56.499 89s-53.5 44.667 -87.5 59s-71.333 21.5 -112 21.5c-41.333 0 -78.833 -7.16699 -112.5 -21.5s-62.5 -34 -86.5 -59s-42.667 -54.667 -56 -89s-20 -71.833 -20 -112.5s6.66699 -78.167 20 -112.5s32 -64 56 -89s52.833 -44.5 86.5 -58.5
s71.167 -21 112.5 -21c40.667 0 78 7.16699 112 21.5s63.167 34 87.5 59s43.166 54.667 56.499 89s20 71.5 20 111.5zM589.997 408c0 -48 -13.667 -83.667 -41 -107s-64 -35 -110 -35h-51v-104h-100v386h151c21.333 0 41.166 -3.16699 59.499 -9.5s34.333 -15.5 48 -27.5
s24.334 -26.667 32.001 -44s11.5 -37 11.5 -59zM492.997 408c0 17.333 -4.83203 30.333 -14.499 39s-22.834 13 -39.501 13h-52v-106h52c36 0 54 18 54 54z" />
    <glyph glyph-name="pi" unicode="&#x3c0;" horiz-adv-x="636" 
d="M581 1l-33 -5.5c-10 -1.66699 -21.333 -2.5 -34 -2.5c-48 0 -83.833 12.333 -107.5 37s-35.5 60.667 -35.5 108v266h-121v-406h-124v406h-76v101h520v-101h-75v-248c0 -17.333 3.5 -30 10.5 -38s19.167 -12 36.5 -12c5.33301 0 12.333 0.333008 21 1s14.667 1 18 1v-107z
" />
    <glyph glyph-name="endash" unicode="&#x2013;" horiz-adv-x="659" 
d="M60 252v112h539v-112h-539z" />
    <glyph glyph-name="emdash" unicode="&#x2014;" horiz-adv-x="1149" 
d="M60 252v111h1029v-111h-1029z" />
    <glyph glyph-name="quoteleft" unicode="&#x2018;" horiz-adv-x="267" 
d="M61 414l0.000976562 135c0 40.667 7.16699 75 21.5 103s42.166 50.667 83.499 68l32 -58c-26 -12.667 -43.167 -26.5 -51.5 -41.5s-12.5 -35.167 -12.5 -60.5h71v-146h-144z" />
    <glyph glyph-name="quoteright" unicode="&#x2019;" horiz-adv-x="247" 
d="M196 573c0 -40.667 -7.16797 -75 -21.501 -103s-42.166 -50.667 -83.499 -68l-33 58c26 12.667 43.333 26.5 52 41.5s13 35.167 13 60.5h-72v147h145v-136z" />
    <glyph glyph-name="quotesinglbase" unicode="&#x201a;" horiz-adv-x="287" 
d="M217 11c0 -20.667 -1.66797 -39.668 -5.00098 -57.001s-9 -33.333 -17 -48s-18.833 -27.667 -32.5 -39s-31.167 -21.333 -52.5 -30l-33 59c26.667 12.667 44.334 26.834 53.001 42.501s13 36.167 13 61.5h-73v150h147v-139z" />
    <glyph glyph-name="quotedblleft" unicode="&#x201c;" horiz-adv-x="483" 
d="M275 413v135c0 40.667 7.33301 75 22 103s42.667 50.667 84 68l32 -58c-26 -12.667 -43.333 -26.5 -52 -41.5s-13 -35.167 -13 -60.5h71v-146h-144zM64 413v135c0 40.667 7 75 21 103s41.667 50.667 83 68l32 -58c-26 -12.667 -43.333 -26.5 -52 -41.5
s-13 -35.167 -13 -60.5h72v-146h-143z" />
    <glyph glyph-name="quotedblright" unicode="&#x201d;" horiz-adv-x="463" 
d="M409 574c0 -40.667 -7 -75 -21 -103s-41.667 -50.667 -83 -68l-32 58c26 12.667 43.333 26.5 52 41.5s13 35.167 13 60.5h-72v146h143v-135zM198 574c0 -40.667 -7.33301 -75 -22 -103s-42.667 -50.667 -84 -68l-32 58c26 12.667 43.333 26.5 52 41.5s13 35.167 13 60.5
h-71v146h144v-135z" />
    <glyph glyph-name="quotedblbase" unicode="&#x201e;" horiz-adv-x="504" 
d="M434 11c0 -20.667 -1.66797 -39.668 -5.00098 -57.001s-9 -33.333 -17 -48s-18.833 -27.667 -32.5 -39s-31.167 -21.333 -52.5 -30l-33 59c26.667 12.667 44.334 26.834 53.001 42.501s13 36.167 13 61.5h-73v150h147v-139zM216.999 10.999
c0 -20.667 -1.66797 -39.668 -5.00098 -57.001s-9 -33.333 -17 -48s-18.833 -27.667 -32.5 -39s-31.167 -21.333 -52.5 -30l-33 59c26.667 12.667 44.334 26.834 53.001 42.501s13 36.167 13 61.5h-73v150h147v-139z" />
    <glyph glyph-name="dagger" unicode="&#x2020;" horiz-adv-x="562" 
d="M338 415v-540h-114v540h-184v105h184v189h114v-189h184v-105h-184z" />
    <glyph glyph-name="daggerdbl" unicode="&#x2021;" horiz-adv-x="562" 
d="M338 64v-189h-114v189h-184v105h184v246h-184v105h184v189h114v-189h184v-105h-184v-246h184v-105h-184z" />
    <glyph glyph-name="bullet" unicode="&#x2022;" horiz-adv-x="432" 
d="M357 292c0 -19.333 -3.66699 -37.666 -11 -54.999s-17.333 -32.333 -30 -45s-27.667 -22.667 -45 -30s-35.666 -11 -54.999 -11s-37.666 3.66699 -54.999 11s-32.333 17.333 -45 30s-22.667 27.667 -30 45s-11 35.666 -11 54.999s3.66699 37.666 11 54.999
s17.333 32.333 30 45s27.667 22.667 45 30s35.666 11 54.999 11s37.666 -3.66699 54.999 -11s32.333 -17.333 45 -30s22.667 -27.667 30 -45s11 -35.666 11 -54.999z" />
    <glyph glyph-name="ellipsis" unicode="&#x2026;" horiz-adv-x="999" 
d="M762 0v146h145v-146h-145zM427 0v146h145v-146h-145zM92 0v146h145v-146h-145z" />
    <glyph glyph-name="perthousand" unicode="&#x2030;" horiz-adv-x="1165" 
d="M1147 172c0 -21.333 -2.16699 -41.5 -6.5 -60.5s-12.166 -36.833 -23.499 -53.5c-14.667 -21.333 -32.834 -38.166 -54.501 -50.499s-48.167 -18.5 -79.5 -18.5c-30.667 0 -56.834 6.16699 -78.501 18.5s-40.167 29.166 -55.5 50.499c-11.333 16.667 -19 34.5 -23 53.5
s-6 39.167 -6 60.5c0 20.667 2 40.667 6 60s11.667 37.333 23 54c15.333 21.333 33.833 38 55.5 50s47.834 18 78.501 18c31.333 0 57.833 -6 79.5 -18s39.834 -28.667 54.501 -50c11.333 -16.667 19.166 -34.667 23.499 -54s6.5 -39.333 6.5 -60zM782 172
c0 -21.333 -2.16699 -41.5 -6.5 -60.5s-12.166 -36.833 -23.499 -53.5c-14.667 -21.333 -32.834 -38.166 -54.501 -50.499s-48.167 -18.5 -79.5 -18.5c-30.667 0 -56.834 6.16699 -78.501 18.5s-40.167 29.166 -55.5 50.499c-11.333 16.667 -19 34.5 -23 53.5
s-6 39.167 -6 60.5c0 20.667 2 40.667 6 60s11.667 37.333 23 54c15.333 21.333 33.833 38 55.5 50s47.834 18 78.501 18c31.333 0 57.833 -6 79.5 -18s39.834 -28.667 54.501 -50c11.333 -16.667 19.166 -34.667 23.499 -54s6.5 -39.333 6.5 -60zM195 -20l-74 56l505 687
l76 -53zM372 537c0 -20.667 -2.16699 -40.667 -6.5 -60s-12.166 -37.333 -23.499 -54c-14.667 -21.333 -32.834 -38.166 -54.501 -50.499s-48.167 -18.5 -79.5 -18.5c-30.667 0 -56.834 6.16699 -78.501 18.5s-40.167 29.166 -55.5 50.499c-11.333 16.667 -19 34.667 -23 54
s-6 39.333 -6 60s2 40.667 6 60s11.667 37.333 23 54c15.333 21.333 33.833 38 55.5 50s47.834 18 78.501 18c31.333 0 57.833 -6 79.5 -18s39.834 -28.667 54.501 -50c11.333 -16.667 19.166 -34.667 23.499 -54s6.5 -39.333 6.5 -60zM1053 172
c0 12.667 -0.833008 25 -2.5 37s-5 22.667 -10 32s-12.167 16.833 -21.5 22.5s-21.333 8.5 -36 8.5s-26.5 -2.83301 -35.5 -8.5s-16 -13.167 -21 -22.5s-8.33301 -20 -10 -32s-2.5 -24.333 -2.5 -37c0 -13.333 0.833008 -26 2.5 -38s5 -22.667 10 -32s12 -16.833 21 -22.5
s20.833 -8.5 35.5 -8.5s26.667 2.83301 36 8.5s16.5 13.167 21.5 22.5s8.33301 20 10 32s2.5 24.667 2.5 38zM688 172c0 12.667 -0.833008 25 -2.5 37s-5 22.667 -10 32s-12.167 16.833 -21.5 22.5s-21.333 8.5 -36 8.5s-26.5 -2.83301 -35.5 -8.5s-16 -13.167 -21 -22.5
s-8.33301 -20 -10 -32s-2.5 -24.333 -2.5 -37c0 -13.333 0.833008 -26 2.5 -38s5 -22.667 10 -32s12 -16.833 21 -22.5s20.833 -8.5 35.5 -8.5s26.667 2.83301 36 8.5s16.5 13.167 21.5 22.5s8.33301 20 10 32s2.5 24.667 2.5 38zM278 537c0 12.667 -0.833008 25 -2.5 37
s-5 22.833 -10 32.5s-12.167 17.334 -21.5 23.001s-21.333 8.5 -36 8.5s-26.5 -2.83301 -35.5 -8.5s-16 -13.334 -21 -23.001s-8.33301 -20.5 -10 -32.5s-2.5 -24.333 -2.5 -37c0 -13.333 0.833008 -26 2.5 -38s5 -22.667 10 -32s12 -16.833 21 -22.5s20.833 -8.5 35.5 -8.5
s26.667 2.83301 36 8.5s16.5 13.167 21.5 22.5s8.33301 20 10 32s2.5 24.667 2.5 38z" />
    <glyph glyph-name="guilsinglleft" unicode="&#x2039;" horiz-adv-x="336" 
d="M213 54l-173 244l173 247l73 -52l-114 -194l114 -194z" />
    <glyph glyph-name="guilsinglright" unicode="&#x203a;" horiz-adv-x="336" 
d="M123 54l-73 51l114 194l-114 194l73 52l173 -247z" />
    <glyph glyph-name="fraction" unicode="&#x2044;" horiz-adv-x="587" 
d="M77 -20l-74 56l505 687l76 -53z" />
    <glyph glyph-name="Euro" unicode="&#x20ac;" horiz-adv-x="621" 
d="M606 54c-28 -21.333 -57.499 -37.832 -88.499 -49.499s-68.167 -17.5 -111.5 -17.5c-42 0 -80.5 7 -115.5 21s-65.833 34.333 -92.5 61c-25.333 25.333 -44.5 52.166 -57.5 80.499s-22.167 57.833 -27.5 88.5h-78v73h70c-0.666992 6 -1 12.167 -1 18.5v18.5v17
c0 6 0.333008 11.667 1 17h-70v73h77c5.33301 31.333 14.666 61.5 27.999 90.5s32.666 56.167 57.999 81.5c26.667 26.667 57.5 47 92.5 61s73.5 21 115.5 21c43.333 0 80.5 -5.83301 111.5 -17.5s60.5 -28.167 88.5 -49.5l-47 -101
c-25.333 19.333 -49.666 33.333 -72.999 42s-50 13 -80 13c-24 0 -46.333 -4 -67 -12s-39.334 -20.667 -56.001 -38c-12 -13.333 -21.5 -27.5 -28.5 -42.5s-12.167 -31.167 -15.5 -48.5h281l-35 -73h-254v-71h234l-35 -73h-191c7.33301 -34.667 22 -64 44 -88
c16.667 -17.333 35.334 -30 56.001 -38s43 -12 67 -12c30 0 58.5 5.5 85.5 16.5s49.5 23.833 67.5 38.5z" />
    <glyph glyph-name="trademark" unicode="&#x2122;" horiz-adv-x="857" 
d="M702 328v256l-78 -246h-73l-78 245v-255h-95v381h135l77 -241l76 241h131v-381h-95zM216 624v-296h-96v296h-110v85h316v-85h-110z" />
    <glyph glyph-name="Omega" unicode="&#x2126;" horiz-adv-x="838" 
d="M788 354c0 -54 -9.16992 -103.333 -27.5029 -148s-43.833 -83.334 -76.5 -116.001s-71.667 -58 -117 -76s-94.666 -27 -147.999 -27c-54 0 -103.5 9 -148.5 27s-83.833 43.333 -116.5 76s-58.167 71.334 -76.5 116.001s-27.5 94 -27.5 148
c0 53.333 9.33301 102.5 28 147.5s44.334 83.833 77.001 116.5s71.5 58.167 116.5 76.5s94.167 27.5 147.5 27.5c52.667 0 101.667 -9.16699 147 -27.5s84.333 -44 117 -77s58.334 -72 77.001 -117s28 -93.833 28 -146.5zM694.997 354c0 40.667 -6.66699 78.167 -20 112.5
s-32.166 64 -56.499 89s-53.5 44.667 -87.5 59s-71.333 21.5 -112 21.5c-41.333 0 -78.833 -7.16699 -112.5 -21.5s-62.5 -34 -86.5 -59s-42.667 -54.667 -56 -89s-20 -71.833 -20 -112.5s6.66699 -78.167 20 -112.5s32 -64 56 -89s52.833 -44.5 86.5 -58.5
s71.167 -21 112.5 -21c40.667 0 78 7.16699 112 21.5s63.167 34 87.5 59s43.166 54.667 56.499 89s20 71.5 20 111.5zM589.997 408c0 -48 -13.667 -83.667 -41 -107s-64 -35 -110 -35h-51v-104h-100v386h151c21.333 0 41.166 -3.16699 59.499 -9.5s34.333 -15.5 48 -27.5
s24.334 -26.667 32.001 -44s11.5 -37 11.5 -59zM492.997 408c0 17.333 -4.83203 30.333 -14.499 39s-22.834 13 -39.501 13h-52v-106h52c36 0 54 18 54 54z" />
    <glyph glyph-name="partialdiff" unicode="&#x2202;" 
d="M239 547l-153 -111v136l171 123h107v-586h139v-109h-403v109h139v438z" />
    <glyph glyph-name="Delta" unicode="&#x2206;" horiz-adv-x="650" 
d="M486 256v288l-382 -382l-69 70l382 381h-289v96h457v-453h-99z" />
    <glyph glyph-name="product" unicode="&#x220f;" horiz-adv-x="932" 
d="M65 790v28l79 79h28zM65 590v27l280 280h27zM65 189v27l681 681h27zM65 389v28l480 480h27zM65 -11v27l802 802v-28zM65 -212v28l802 801v-27zM785 -293h-27l109 109v-28zM184 -293h-27l710 710v-28zM585 -293h-27l309 309v-27zM385 -293h-28l510 509v-27z" />
    <glyph glyph-name="summation" unicode="&#x2211;" horiz-adv-x="953" 
d="M58 -99v248h84v-162h670v162h83v-248h-837z" />
    <glyph glyph-name="minus" unicode="&#x2212;" horiz-adv-x="659" 
d="M60 252v112h539v-112h-539z" />
    <glyph glyph-name="radical" unicode="&#x221a;" horiz-adv-x="697" 
d="M594 728l-254 -736h-106l-189 528h133l109 -321l211 633h209v-104h-113z" />
    <glyph glyph-name="infinity" unicode="&#x221e;" horiz-adv-x="719" 
d="M313 0c-31.333 0 -60.832 3.99609 -88.499 11.9961s-52 20.167 -73 36.5s-37.667 37 -50 62s-18.5 54.5 -18.5 88.5c0 16 2.5 32.5 7.5 49.5s12.167 33 21.5 48s20.166 28.5 32.499 40.5s26.166 21 41.499 27c-28 16.667 -50 38.334 -66 65.001s-24 56.334 -24 89.001
s6.16699 61 18.5 85s29 44 50 60s45 27.833 72 35.5s55.5 11.5 85.5 11.5c16.667 0 33.334 -0.666992 50.001 -2s33 -4 49 -8v-108c-15.333 3.33301 -30.5 5.83301 -45.5 7.5s-30.167 2.5 -45.5 2.5c-14 0 -27.667 -1.66699 -41 -5s-25 -8.66602 -35 -15.999
s-18.167 -16.666 -24.5 -27.999s-9.5 -25 -9.5 -41c0 -32.667 10.333 -56.5 31 -71.5s46 -22.5 76 -22.5h116v104h117v-104h103v-106h-103v-206h103v-106h-350zM443.001 311.996h-121c-34 0 -61.833 -9.16699 -83.5 -27.5s-32.5 -44.5 -32.5 -78.5s10.5 -59.167 31.5 -75.5
s47.5 -24.5 79.5 -24.5h126v206z" />
    <glyph glyph-name="integral" unicode="&#x222b;" horiz-adv-x="630" 
d="M521 162l-382 382v-288h-99v453h457v-96h-289l382 -381z" />
    <glyph glyph-name="approxequal" unicode="&#x2248;" horiz-adv-x="640" 
d="M580 377l-36.0039 -36.499c-12 -11.667 -24.667 -22 -38 -31s-27.5 -16.167 -42.5 -21.5s-31.5 -8 -49.5 -8c-19.333 0 -37.666 3.16699 -54.999 9.5s-33.666 13.166 -48.999 20.499l-45 20c-15.333 6.66699 -28.666 10 -39.999 10
c-19.333 0 -36.666 -6.16699 -51.999 -18.5s-29.333 -25.166 -42 -38.499l-71 84l36 36.5c12 11.667 24.667 22 38 31s27.5 16.167 42.5 21.5s31.5 8 49.5 8c18.667 0 36.5 -3 53.5 -9s33.167 -12.667 48.5 -20l23 -10c7.33301 -3.33301 14.666 -6.33301 21.999 -9
s14.333 -4.83398 21 -6.50098s13.334 -2.5 20.001 -2.5c19.333 0 36.333 5.83301 51 17.5s28.667 24.167 42 37.5zM579.996 157.001c-12 -12.667 -24.0029 -24.665 -36.0029 -35.998s-24.667 -21.5 -38 -30.5s-27.5 -16.167 -42.5 -21.5s-31.5 -8 -49.5 -8
c-19.333 0 -37.666 3 -54.999 9s-33.666 12.667 -48.999 20l-45 21c-14 6 -27.333 9 -40 9c-19.333 0 -36.666 -6 -51.999 -18s-29.333 -24.667 -42 -38l-71 84c12 12.667 24 24.667 36 36s24.667 21.5 38 30.5s27.5 16.167 42.5 21.5s31.5 8 49.5 8
c18.667 0 36.5 -2.83301 53.5 -8.5s33.167 -12.167 48.5 -19.5c8 -3.33301 15.667 -6.83301 23 -10.5s14.666 -6.83398 21.999 -9.50098s14.333 -4.83398 21 -6.50098s13.334 -2.5 20.001 -2.5c19.333 0 36.333 5.83301 51 17.5s28.667 24.167 42 37.5z" />
    <glyph glyph-name="notequal" unicode="&#x2260;" horiz-adv-x="690" 
d="M261 129l-101 -131l-58 44l67 87h-79v99h155l77 100h-232v98h308l97 126l57 -45l-62 -81h110v-98h-186l-77 -100h263v-99h-339z" />
    <glyph glyph-name="lessequal" unicode="&#x2264;" horiz-adv-x="797" 
d="M212 275l204 -204l-70 -70l-321 323l321 323l70 -69l-204 -205h540v-98h-540z" />
    <glyph glyph-name="greaterequal" unicode="&#x2265;" horiz-adv-x="797" 
d="M451 0l-70 70l204 204h-540v98h540l-204 205l70 69l321 -323z" />
    <glyph glyph-name="lozenge" unicode="&#x25ca;" 
d="M530 348c0 -28.667 -1 -57 -3 -85s-5.83301 -55 -11.5 -81s-14 -50.333 -25 -73s-25.5 -42.667 -43.5 -60s-40 -32 -66 -44s-58 -18 -96 -18s-70 6 -96 18s-48 26.667 -66 44s-32.5 37.333 -43.5 60s-19.333 47 -25 73s-9.5 53 -11.5 81s-3 56.333 -3 85s1 57 3 85
s5.83301 55 11.5 81s14 50.333 25 73s25.5 42.667 43.5 60s40 32 66 44s58 18 96 18s70 -6 96 -18s48 -26.667 66 -44s32.5 -37.333 43.5 -60s19.333 -47 25 -73s9.5 -53 11.5 -81s3 -56.333 3 -85zM385 536c-8.66699 18 -20.832 33 -36.499 45s-36.834 18 -63.501 18
c-28 0 -50.167 -6.66699 -66.5 -20s-28.5 -30.333 -36.5 -51s-13 -43.167 -15 -67.5s-3 -47.833 -3 -70.5v-110zM406.002 422l-222 -260c8.66699 -19.333 20.667 -35 36 -47s37 -18 65 -18s50.167 6.66699 66.5 20s28.5 30.166 36.5 50.499s13 42.833 15 67.5
s3 48.334 3 71.001v116z" />
    <glyph glyph-name="fi" unicode="&#xfb01;" horiz-adv-x="659" 
d="M449 590v131h134v-131h-134zM453 0v520h127v-520h-127zM379 623c-13.333 2.66699 -26.167 4.66797 -38.5 6.00098s-26.833 2 -43.5 2c-22.667 0 -39.667 -5.83301 -51 -17.5s-17 -26.834 -17 -45.501v-48h139v-103h-139v-417h-125v417h-88v103h88v50
c0 48 15.5 87.333 46.5 118s74.5 46 130.5 46c18 0 34 -0.833008 48 -2.5s30.667 -4.5 50 -8.5v-100z" />
    <glyph glyph-name="fl" unicode="&#xfb02;" horiz-adv-x="673" 
d="M643 1c-12.667 -2.66699 -21.832 -4.5 -27.499 -5.5s-14.834 -1.5 -27.501 -1.5c-42.667 0 -77 11 -103 33s-39 57.667 -39 107v589h126v-568c0 -15.333 3 -27.5 9 -36.5s19.667 -13.5 41 -13.5c5.33301 0 9.33301 0.166992 12 0.5s5.66699 0.5 9 0.5v-105zM379.002 623
c-13.333 2.66699 -26.167 4.66797 -38.5 6.00098s-26.833 2 -43.5 2c-22.667 0 -39.667 -5.83301 -51 -17.5s-17 -26.834 -17 -45.501v-48h139v-103h-139v-417h-125v417h-88v103h88v50c0 48 15.5 87.333 46.5 118s74.5 46 130.5 46c18 0 34 -0.833008 48 -2.5
s30.667 -4.5 50 -8.5v-100z" />
    <glyph glyph-name=".null" horiz-adv-x="0" 
 />
    <glyph glyph-name="nonmarkingreturn" horiz-adv-x="708" 
 />
    </font>
</defs>
</svg>
